<svg id="Capa_1" enable-background="new 0 0 512 512" height="512" viewBox="0 0 512 512" width="512" xmlns="http://www.w3.org/2000/svg"><g><path d="m421.267 280.956-160-60c-3.396-1.273-7.138-1.273-10.534 0l-160 60c-4.136 1.551-7.277 4.803-8.77 8.781v75.263h348.074v-75.264c-1.493-3.978-4.635-7.23-8.77-8.78z" fill="#ffda44"/><path d="m111.963 345v-39.966l144.037-54.013 144.037 54.013v39.966z" fill="#5f55af"/><g><path d="m430.037 289.736c-1.493-3.978-4.634-7.23-8.77-8.781l-160-60c-1.698-.636-3.483-.955-5.267-.955v145h174.037z" fill="#ff9f22"/></g><path d="m400.037 345v-39.966l-144.037-54.013v93.979z" fill="#453d83"/><g><path d="m256 355s-104.664-39.249-174.037-65.264c-.621 1.653-.963 3.429-.963 5.264v142c0 6.253 3.879 11.85 9.733 14.045l160 60c3.396 1.273 7.138 1.273 10.534 0l160-60c5.854-2.196 9.733-7.793 9.733-14.045v-142c0-1.836-.343-3.611-.963-5.264z" fill="#ffda44"/><path d="m430.037 289.736-174.037 65.264v157c1.784 0 3.569-.318 5.267-.955l160-60c5.854-2.196 9.733-7.793 9.733-14.045v-142c0-1.835-.343-3.611-.963-5.264z" fill="#ff9f22"/></g><g><g><g><g><g fill="#ff9f22"><path d="m446 130h-30c-8.284 0-15-6.716-15-15 0-8.284 6.716-15 15-15h30c8.284 0 15 6.716 15 15 0 8.284-6.716 15-15 15z"/><path d="m393.01 57.5c-4.142-7.174-1.684-16.348 5.49-20.49l25.98-15c7.174-4.142 16.348-1.684 20.49 5.49 4.142 7.174 1.684 16.348-5.49 20.49l-25.98 15c-7.175 4.142-16.348 1.684-20.49-5.49z"/><path d="m424.48 207.99-25.98-15c-7.174-4.142-9.632-13.316-5.49-20.49 4.142-7.174 13.316-9.632 20.49-5.49l25.98 15c7.174 4.142 9.632 13.316 5.49 20.49-4.142 7.174-13.315 9.632-20.49 5.49z"/></g><path d="m96 130h-30c-8.284 0-15-6.716-15-15 0-8.284 6.716-15 15-15h30c8.284 0 15 6.716 15 15 0 8.284-6.716 15-15 15z" fill="#ffda44"/><path d="m98.5 62.99-25.98-15c-7.174-4.142-9.632-13.316-5.49-20.49 4.142-7.174 13.316-9.632 20.49-5.49l25.98 15c7.174 4.142 9.632 13.316 5.49 20.49-4.142 7.174-13.316 9.632-20.49 5.49z" fill="#ffda44"/><path d="m67.029 202.5c-4.142-7.174-1.684-16.348 5.49-20.49l25.98-15c7.174-4.142 16.348-1.684 20.49 5.49 4.142 7.174 1.684 16.348-5.49 20.49l-25.98 15c-7.174 4.142-16.348 1.684-20.49-5.49z" fill="#ffda44"/></g></g></g><g><g><path d="m299.75 250h-87.5c-8.284 0-15-6.716-15-15v-2.867c0-10.555-5.247-20.934-14.394-28.476-26.6-21.931-41.856-54.245-41.856-88.657 0-63.411 51.589-115 115-115s115 51.589 115 115c0 34.411-15.256 66.725-41.855 88.657-9.148 7.542-14.395 17.921-14.395 28.477v2.866c0 8.284-6.716 15-15 15z" fill="#fff79f"/><path d="m256 0v250h43.75c8.284 0 15-6.716 15-15v-2.867c0-10.555 5.246-20.934 14.395-28.477 26.599-21.931 41.855-54.245 41.855-88.656 0-63.411-51.589-115-115-115z" fill="#ffda44"/><path d="m296.606 94.393c-5.858-5.858-15.355-5.858-21.213 0l-19.393 19.394-19.393-19.393c-5.858-5.858-15.355-5.858-21.213 0-5.858 5.858-5.858 15.355 0 21.213l25.606 25.606v108.787h30v-108.787l25.607-25.607c5.857-5.857 5.857-15.355-.001-21.213z" fill="#ffda44"/><path d="m296.606 94.393c-5.858-5.858-15.355-5.858-21.213 0l-19.393 19.394v136.213h15v-108.787l25.606-25.607c5.858-5.857 5.858-15.355 0-21.213z" fill="#ff9f22"/><path d="m197.25 235v30c0 19.299 15.701 35 35 35h47.5c19.299 0 35-15.701 35-35v-30z" fill="#fff5f5"/><path d="m256 235v65h23.75c19.299 0 35-15.701 35-35v-30z" fill="#dfdef5"/></g></g></g><g><path d="m101.267 280.955c-5.051-1.894-10.727-.931-14.87 2.521l-60 50c-4.104 3.42-6.08 8.765-5.187 14.031.894 5.267 4.52 9.661 9.522 11.537l160 60c1.711.642 3.494.955 5.265.955 3.456 0 6.866-1.194 9.604-3.477l50.399-41.996v-35.546z" fill="#fff79f"/><path d="m485.602 333.477-60-50c-4.143-3.451-9.82-4.414-14.87-2.521l-154.732 58.024v35.546l50.397 41.998c2.739 2.282 6.148 3.477 9.604 3.477 1.771 0 3.554-.313 5.265-.955l160-60c5.002-1.876 8.628-6.271 9.522-11.537.894-5.268-1.082-10.613-5.186-14.032z" fill="#ffda44"/></g></g></svg>