<svg id="Capa_1" enable-background="new 0 0 512 512" height="512" viewBox="0 0 512 512" width="512" xmlns="http://www.w3.org/2000/svg"><g><g><path d="m470.13 61.57-210-61c-1.35-.38-2.74-.57-4.13-.57s-2.78.19-4.13.57l-210 61c-6.42 1.85-10.87 7.74-10.87 14.43v141.59c0 135.27 90.82 256.69 220.87 293.84 1.35.38 2.75.57 4.13.57s2.78-.19 4.13-.57c130.05-37.15 220.87-158.57 220.87-293.84v-141.59c0-6.69-4.45-12.58-10.87-14.43z" fill="#8df4e6"/><path d="m481 76v141.59c0 135.27-90.82 256.69-220.87 293.84-1.35.38-2.75.57-4.13.57v-512c1.39 0 2.78.19 4.13.57l210 61c6.42 1.85 10.87 7.74 10.87 14.43z" fill="#7adfe3"/><path d="m256 481.374c-54.932-16.672-104.287-51.376-139.34-98.078-35.893-47.819-55.66-106.668-55.66-165.706v-130.337l195-56.643 195 56.643v130.337c0 59.038-19.767 117.887-55.659 165.706-35.055 46.702-84.409 81.406-139.341 98.078z" fill="#7adfe3"/><path d="m395.341 383.296c35.892-47.819 55.659-106.668 55.659-165.706v-130.337l-195-56.643v450.763c54.932-16.671 104.286-51.375 139.341-98.077z" fill="#55b3dc"/></g><g><path d="m256 391c-74.443 0-135-60.557-135-135s60.557-135 135-135 135 60.557 135 135-60.557 135-135 135z" fill="#e6f7ff"/></g><path d="m391 256c0-74.443-60.557-135-135-135v270c74.443 0 135-60.557 135-135z" fill="#c2dbf2"/><g id="Shield_1_"><g><path d="m241 301c-3.838 0-7.676-1.465-10.605-4.395l-30-30c-5.859-5.859-5.859-15.352 0-21.211s15.352-5.859 21.211 0l19.394 19.395 49.395-49.395c5.859-5.859 15.352-5.859 21.211 0s5.859 15.352 0 21.211l-60 60c-2.93 2.93-6.768 4.395-10.606 4.395z" fill="#7adfe3"/></g></g><path d="m290.395 215.395-34.395 34.394v42.422l55.605-55.605c5.859-5.859 5.859-15.352 0-21.211s-15.351-5.86-21.21 0z" fill="#55b3dc"/></g></svg>