<svg id="Layer_1" viewBox="0 0 512 512" xmlns="http://www.w3.org/2000/svg" data-name="Layer 1"><g fill-rule="evenodd"><path d="m256 10.943c-36.342 22.69-80.345 35.618-104 41.655v101.993c0 12.621 3.026 24.043 9.473 34.899 17.662 29.74 61.665 53.152 94.527 73.019 32.862-19.867 76.864-43.28 94.526-73.019 6.447-10.855 9.474-22.277 9.474-34.899v-101.993c-23.655-6.037-67.658-18.965-104-41.655z" fill="#2dd62d"/><path d="m247.13 16.21c-34.394 19.45-73.371 30.835-95.13 36.388v101.993c0 12.622 3.026 24.044 9.474 34.899 17.662 29.74 61.665 53.152 94.526 73.02 27.127-16.4 61.843-35.217 83.07-58.013 1.152-1.632 2.232-3.282 3.225-4.953 6.447-10.855 9.474-26.648 9.474-39.269v-101.995c-23.126-5.902-65.701-18.391-101.553-40.148-.469-.285-1.844-1.144-3.086-1.922z" fill="#43f043"/><path d="m249.452 36.702c-24.555 13.462-53.355 23.011-80.358 30.923v84.635c0 8.058 1.812 15.064 5.933 22.003 10.841 18.253 43.8 37.752 68.102 49.672l-42.87-34.217c-12.18-9.721-18.635-23.133-18.635-38.717v-76.27c27.973-8.197 56.083-18.144 82.874-30.234-2.839-1.413-5.671-2.851-8.497-4.31-2.202-1.137-4.385-2.299-6.548-3.484z" fill="#2dd62d"/><path d="m256 40.186c-24.555 13.462-51.745 23.766-78.747 31.679v82.726c0 8.059 1.812 15.065 5.933 22.003 12.271 20.663 47.332 41.577 72.814 56.566 25.482-14.988 60.542-35.903 72.814-56.566 4.121-6.939 5.933-13.945 5.933-22.003v-82.726c-27.002-7.913-54.192-18.217-78.747-31.679z" fill="#fff"/><path d="m209.625 120.713c5.033-2.905 11.528-1.165 14.434 3.868l14.43 24.994 51.134-51.134c4.11-4.109 10.834-4.109 14.943 0s4.109 10.834 0 14.943l-61.793 61.793c-2.173 2.173-4.966 3.121-8.013 2.72s-5.499-2.04-7.036-4.701l-21.967-38.049c-2.906-5.033-1.166-11.528 3.867-14.434z" fill="#4eb1fc"/><path d="m209.625 120.713c5.033-2.906 11.528-1.165 14.434 3.868l14.43 24.994 51.135-51.134c4.109-4.109 10.834-4.109 14.943 0 .646.646 1.19 1.357 1.633 2.111-.453 1.77-1.369 3.443-2.748 4.821l-61.793 61.793c-2.173 2.173-4.966 3.121-8.013 2.72s-5.499-2.04-7.036-4.701l-21.919-37.965c.686-2.651 2.389-5.039 4.933-6.508z" fill="#85caff"/><path d="m92.594 100.802 10.181 21.671 23.756 2.986c1.228.154 2.196.954 2.578 2.132.383 1.178.07 2.393-.833 3.24l-17.464 16.38 4.501 23.516c.233 1.216-.229 2.383-1.231 3.111s-2.254.806-3.339.209l-20.974-11.547-20.974 11.547c-1.084.597-2.337.519-3.339-.209s-1.463-1.895-1.231-3.111l4.501-23.516-17.464-16.38c-.903-.847-1.215-2.062-.833-3.24.382-1.177 1.35-1.977 2.578-2.132l23.756-2.986 10.181-21.671c.526-1.12 1.586-1.793 2.824-1.793s2.298.673 2.824 1.793z" fill="#fcdb35"/><path d="m107.402 172.206-22.171-12.206-21.055 11.592c-.023-.282-.007-.573.049-.866l4.501-23.516-17.463-16.38c-.903-.847-1.216-2.062-.833-3.24s1.35-1.977 2.578-2.132l23.756-2.986 9.529-20.282 9.093 19.354 23.756 2.986c1.228.154 2.195.954 2.578 2.132s.07 2.393-.833 3.24l-17.464 16.379 4.501 23.516c.168.877-.025 1.729-.522 2.409z" fill="#ffeb87"/><path d="m425.054 100.802 10.181 21.671 23.756 2.986c1.228.154 2.196.954 2.578 2.132.383 1.178.07 2.393-.833 3.24l-17.464 16.38 4.501 23.516c.233 1.216-.229 2.383-1.231 3.111-1.001.728-2.254.806-3.339.209l-20.974-11.547-20.974 11.547c-1.084.597-2.337.519-3.339-.209s-1.463-1.895-1.23-3.111l4.501-23.516-17.464-16.38c-.903-.847-1.215-2.062-.833-3.24.382-1.177 1.35-1.977 2.578-2.132l23.756-2.986 10.181-21.671c.526-1.12 1.586-1.793 2.824-1.793s2.298.673 2.824 1.793z" fill="#fcdb35"/><path d="m439.862 172.206-22.171-12.206-21.055 11.592c-.023-.282-.007-.573.049-.866l4.501-23.516-17.463-16.38c-.903-.847-1.215-2.062-.833-3.24s1.35-1.977 2.578-2.132l23.756-2.986 9.529-20.282 9.093 19.354 23.756 2.986c1.228.154 2.195.954 2.578 2.132s.07 2.393-.833 3.24l-17.464 16.379 4.501 23.516c.168.877-.025 1.729-.522 2.409z" fill="#ffeb87"/><path d="m259.032 480.607 19.244 10.944c24.84 14.341 39.854-16.153 20.448-27.453l10.805 6.238c8.63 4.983 19.768 1.999 24.751-6.632 4.965-8.599 2-19.725-6.575-24.717l5.78 3.337c9.189 5.305 21.049 2.127 26.355-7.062 5.283-9.151 2.133-20.99-6.985-26.31l.018.011 5.743 3.315c9.189 5.306 21.049 2.127 26.355-7.062 2.638-4.569 3.157-9.868 1.897-14.631-1.501-3.887-2.82-7.306-8.959-11.723l-57.973-33.47c-30.678-24.615-47.278-38.771-70.194-62.046-39.817-28.618-68.474 6.982-121.151-22.644l-37.47-21.074c-33.437 27.243-52.409 61.34-40.651 116.942l66.915 34.495 17.251 18.564z" fill="#ffcec0"/><g fill="#fdb0a0"><path d="m381.701 409.409c1.252-1.211 2.357-2.613 3.269-4.192 2.638-4.569 3.157-9.868 1.897-14.631-1.501-3.887-2.82-7.306-8.959-11.723l-57.973-33.47c-30.678-24.615-47.277-38.771-70.194-62.046-4.972-3.573-9.77-6.145-14.462-7.968l-50.65 31.579c-18.143 11.312-17.696 34.615-1.948 47.656 9.167 7.591 19.814 11.987 31.825 11.52 23.995-.934 42.917-20.855 64.681-20.984 12.418-.073 23.168 6.736 33.542 12.726l57.307 33.086c4.903 3.133 14.659 8.7 11.665 18.449z"/><path d="m295.941 462.491c-3.563-2.057-8.155-.826-10.213 2.737-2.055 3.558-.822 8.158 2.736 10.212l17.599 10.161c3.221-7.084 1.571-16.315-7.339-21.503l-2.784-1.607z"/><path d="m317.034 432.825c-3.978-2.296-9.105-.922-11.401 3.055-2.294 3.973-.917 9.108 3.055 11.402l26.256 15.159c4.001-8.397.922-18.704-7.239-23.455z"/><path d="m352.855 408.952-16.477-9.513c-3.978-2.296-9.105-.923-11.401 3.055-2.294 3.972-.918 9.108 3.055 11.401l32.954 19.026c3.569-8.74.227-19.094-8.131-23.97z"/></g><path d="m131.402 415.231c-5.246 9.087-2.104 20.813 6.983 26.06 9.074 5.239 20.821 2.091 26.06-6.983l13.71-23.747c5.246-9.087 2.104-20.813-6.983-26.059-9.074-5.239-20.821-2.092-26.06 6.983l-13.71 23.747z" fill="#f0e3df"/><path d="m230.529 472.462c-5.246 9.086-2.104 20.813 6.983 26.06 9.074 5.239 20.82 2.091 26.059-6.983l13.71-23.748c5.246-9.086 2.104-20.813-6.983-26.059-9.074-5.239-20.821-2.092-26.06 6.983l-13.71 23.747z" fill="#f0e3df"/><path d="m192.858 461.402c-5.246 9.087-2.104 20.813 6.983 26.06 9.074 5.239 20.82 2.091 26.059-6.983l18.339-31.765c5.246-9.086 2.104-20.813-6.983-26.059-9.074-5.239-20.821-2.092-26.06 6.982l-18.339 31.765z" fill="#f0e3df"/><path d="m155.929 449.057c-5.246 9.087-2.104 20.813 6.983 26.06 9.074 5.239 20.82 2.092 26.059-6.983l22.226-38.497c5.246-9.087 2.104-20.813-6.983-26.059-9.074-5.239-20.821-2.092-26.06 6.983l-22.225 38.497z" fill="#f0e3df"/><path d="m460.384 356.571-73.518 34.015c-1.501-3.887-2.82-7.306-8.959-11.723l-57.973-33.47c-12.667-7.314-24.883-14.751-40.834-14.656-34.697.205-58.006 36.975-87.228 12.776-7.358-6.093-10.113-17.781.382-24.324l61.989-38.649c20.679-12.893 42.939-19.039 65.536-11.591 19.378 6.387 38.528 4.844 56.36-5.073l43.594-24.246c37.573 25.967 54.016 73.268 40.651 116.942z" fill="#d9c5bf"/><path d="m460.384 356.571-73.518 34.015c-1.501-3.887-2.82-7.306-8.959-11.722l-57.973-33.47c-12.668-7.314-24.883-14.751-40.834-14.656-34.697.205-58.006 36.975-87.228 12.777l-.13-.11c.578-3.475 2.655-6.804 6.743-9.353l61.989-38.65c20.679-12.893 42.939-19.039 65.536-11.591 19.378 6.387 38.528 4.844 56.36-5.074l32.539-18.097 17.956-10.272c28.098 27.047 39.205 68.012 27.518 106.204z" fill="#f0e3df"/><path d="m472.594 362.228-18.419 7.822c-2.326.988-4.781.769-6.895-.615-2.115-1.384-3.297-3.546-3.323-6.073-.443-43.745-18.345-79.612-50.104-106.35-1.906-1.604-2.821-3.846-2.581-6.326.239-2.479 1.565-4.504 3.742-5.715l23.491-13.065c3.969-2.208 8.615-1.835 12.182.978 37.151 29.302 56.774 80.428 48.399 121.408-.748 3.663-3.048 6.475-6.49 7.936z" fill="#4eb1fc"/><path d="m472.594 362.228-12.689 5.389c-.074-.045-.148-.092-.222-.14-2.242-1.468-3.496-3.759-3.523-6.439-.469-46.38-19.45-84.409-53.123-112.757-1.897-1.598-2.869-3.791-2.77-6.231l18.237-10.143c3.969-2.207 8.615-1.835 12.181.978 37.151 29.302 56.774 80.428 48.4 121.408-.749 3.663-3.049 6.475-6.49 7.936z" fill="#85caff"/><path d="m39.406 362.228 18.42 7.822c2.326.988 4.78.769 6.895-.615 2.114-1.384 3.297-3.546 3.323-6.073.443-43.745 18.345-79.612 50.104-106.35 1.906-1.604 2.822-3.846 2.582-6.326-.24-2.479-1.565-4.504-3.742-5.715l-23.491-13.065c-3.969-2.208-8.615-1.835-12.181.978-37.151 29.302-56.774 80.428-48.399 121.408.749 3.663 3.048 6.475 6.49 7.936z" fill="#4eb1fc"/><path d="m39.406 362.228 12.689 5.389c.075-.045.148-.092.222-.14 2.243-1.468 3.496-3.759 3.524-6.439.469-46.38 19.45-84.409 53.123-112.757 1.898-1.598 2.869-3.791 2.77-6.231l-18.237-10.143c-3.969-2.207-8.615-1.835-12.181.978-37.151 29.302-56.774 80.428-48.4 121.408.749 3.663 3.049 6.475 6.49 7.936z" fill="#85caff"/><path d="m141.93 442.878c8.39 2.762 17.935-.642 22.513-8.57l13.711-23.748c4.585-7.941 2.763-17.897-3.834-23.784z" fill="#d9c5bf"/><path d="m241.057 500.109c8.39 2.762 17.936-.641 22.514-8.57l13.71-23.747c4.585-7.941 2.762-17.898-3.834-23.784z" fill="#d9c5bf"/><path d="m203.386 489.049c8.39 2.762 17.936-.641 22.514-8.57l18.339-31.765c4.585-7.941 2.762-17.897-3.834-23.783z" fill="#d9c5bf"/><path d="m166.457 476.704c8.375 2.757 17.901-.629 22.489-8.526l22.251-38.541c4.585-7.941 2.763-17.897-3.834-23.784z" fill="#d9c5bf"/></g></svg>