<svg id="Layer_1" enable-background="new 0 0 512 512" viewBox="0 0 512 512" xmlns="http://www.w3.org/2000/svg" xmlns:xlink="http://www.w3.org/1999/xlink"><linearGradient id="SVGID_1_" gradientUnits="userSpaceOnUse" x1="16" x2="496" y1="256" y2="256"><stop offset="0" stop-color="#4baffe"/><stop offset="1" stop-color="#06ecfe"/></linearGradient><path clip-rule="evenodd" d="m367.799 69.346c1.878 3.242.772 7.393-2.471 9.271-3.242 1.878-7.393.772-9.271-2.471l-15.883-27.509c-1.933-3.342-.777-7.528 2.849-9.475l27.157-15.679c3.242-1.863 7.381-.745 9.245 2.497 1.863 3.242.745 7.382-2.497 9.245l-21.622 12.483zm80.085 303.209c15.305-18.862 27.482-40.346 35.743-63.664 35.869-101.245-8.581-213.24-103.239-262.749-3.315-1.731-7.407-.446-9.138 2.869s-.446 7.407 2.869 9.138c32.72 17.143 60.156 43.005 79.221 74.5 43.954 72.609 37.494 165.521-15.976 231.352-2.362 2.905-1.922 7.175.983 9.537 2.906 2.361 7.176 1.922 9.537-.983zm-376.154-91.3c3.756 0 6.801 3.045 6.801 6.801s-3.045 6.801-6.801 6.801h-48.929c-3.756 0-6.801-3.045-6.801-6.801s3.045-6.801 6.801-6.801zm31.681-44.001c3.756 0 6.801 3.045 6.801 6.801s-3.045 6.801-6.801 6.801h-48.929c-3.756 0-6.801-3.045-6.801-6.801s3.045-6.801 6.801-6.801zm17.601-44.001c3.756 0 6.801 3.045 6.801 6.801s-3.045 6.801-6.801 6.801h-48.93c-3.756 0-6.801-3.045-6.801-6.801s3.045-6.801 6.801-6.801zm-98.211 198.007h292.41v-33.426c0-6.049 7.356-9.102 11.655-4.762l62.181 62.181c2.655 2.655 2.655 6.961 0 9.617l-62.228 62.227c-5.593 5.593-11.609.22-11.609-7.061v-31.173h-292.409c-3.756 0-6.801-3.045-6.801-6.801v-44.002c0-3.755 3.045-6.8 6.801-6.8zm284.69-304.089c21.98 0 39.802 17.822 39.802 39.802s-17.822 39.802-39.802 39.802-39.802-17.822-39.802-39.802 17.822-39.802 39.802-39.802zm-47.698 64.955-62.484-62.484c-2.655-2.655-6.961-2.655-9.616 0l-36.177 36.176c-1.258 1.234-2.039 2.953-2.039 4.855v69.994c0 7.325 5.86 13.008 11.609 7.259l31.415-31.414 16.645 16.645-178.836 178.835c-4.34 4.299-1.287 11.655 4.762 11.655h71.09c2.408 0 4.207-.036 6.164-1.993l57.676-57.676 16.645 16.645-31.368 31.368c-4.34 4.299-1.287 11.655 4.762 11.655h70.504c2.608 0 4.62.138 6.75-1.993l36.223-36.223c2.655-2.655 2.655-6.961 0-9.616l-57.676-57.676 39.144-39.144 57.676 57.676c2.655 2.655 6.961 2.655 9.616 0l36.177-36.177c1.258-1.234 2.039-2.953 2.039-4.855v-71.442c0-6.824-6.888-10.532-11.609-5.811l-31.414 31.414z" fill="url(#SVGID_1_)" fill-rule="evenodd"/></svg>