<svg height="512pt" viewBox="-10 0 512 512.00006" width="512pt" xmlns="http://www.w3.org/2000/svg"><g fill-rule="evenodd"><path d="m306.917969 130.417969-16.523438 15.066406 14.507813 29.992187c12.433594.144532 26.472656-12.671874 26.472656-25.261718v-9.839844c0-5.488281-4.460938-9.957031-9.949219-9.957031zm0 0" fill="#de9376"/><path d="m109.445312 130.417969 4.144532 4.730469 14.070312 16.148437-16.171875 24.179687c-12.464843.144532-26.503906-12.671874-26.503906-25.261718v-9.839844c0-5.488281 4.46875-9.957031 9.957031-9.957031zm0 0" fill="#de9376"/><path d="m394.398438 447.261719c23.964843 0 26.183593 2.394531 17.367187-26.367188l-24.839844-81.535156-11.882812-39.65625c-8-24.761719-27.816407-28.882813-50.523438-35.480469-14.363281-4.175781-28.726562-8.671875-43.027343-13.023437l-148.34375.523437c-13.953126 4.265625-27.90625 8.675782-41.890626 12.703125-22.414062 6.484375-41.914062 10.746094-49.824218 35.277344l-36.71875 121.191406c-8.730469 28.792969-6.628906 26.367188 17.367187 26.367188zm0 0" fill="#55b8e6"/><path d="m170.890625 13.722656c-34.269531 13.40625-59.371094 45.238282-63.285156 83.34375l97.847656 16.207032 101.464844-16.207032c-3.882813-37.992187-28.867188-69.734375-62.992188-83.226562zm0 0" fill="#ffcc73"/><path d="m91.261719 371.25v76.011719h233.257812v-183.039063c-1.460937-.410156-2.921875-.847656-4.410156-1.285156l-38.617187-11.742188v84.367188c0 4.933594-4.058594 8.996094-9.019532 8.996094h-130.332031c-4.933594 0-8.992187-4.0625-8.992187-8.996094v-83.839844l-36.777344 11.214844c-1.722656.523438-3.414063 1.023438-5.109375 1.488281zm0 0" fill="#ffcc73"/><path d="m170.628906 45.4375c0 9.140625 7.5 16.617188 16.636719 16.617188h40.28125c9.136719 0 16.609375-7.476563 16.609375-16.617188v-28.792969c0-.964843-.058594-1.898437-.234375-2.804687-1.3125-7.824219-8.171875-13.839844-16.375-13.839844h-40.28125c-8.140625 0-14.972656 5.957031-16.375 13.722656-.175781.933594-.261719 1.929688-.261719 2.921875zm0 0" fill="#f59556"/><path d="m133.148438 409.035156 147.992187.089844v-18.425781c0-4.964844-4.058594-9.023438-8.992187-9.023438h-130.007813c-4.933594 0-8.992187 4.058594-8.992187 9.023438zm0 0" fill="#ffe4c7"/><path d="m133.148438 447.261719h147.992187v-38.136719l-147.992187-.089844zm0 0" fill="#f59556"/><path d="m133.148438 251.722656c4.730468 24.179688 35.960937 42.871094 74.113281 42.871094 38.148437 0 69.851562-18.953125 74.230469-43.394531l-24.347657-7.417969h-97.929687zm0 0" fill="#f7b297"/><path d="m91.261719 288.636719v-24.210938c-22.417969 6.484375-41.917969 10.746094-49.828125 35.277344l-36.71875 121.191406c-8.730469 28.792969-6.628906 26.367188 17.367187 26.367188h.289063c.703125-2.449219 1.519531-5.226563 2.453125-8.351563l36.722656-121.21875c5.425781-16.761718 16.226563-24.03125 29.714844-29.054687zm0 0" fill="#507fcf"/><path d="m133.148438 274.996094v-23.273438l-36.78125 11.214844c-1.722657.527344-3.410157 1.023438-5.105469 1.488281v24.210938c6.214843-2.308594 13.019531-4.148438 20.109375-6.191407 4.644531-1.34375 12.640625-4.148437 21.777344-7.449218zm0 0" fill="#f59556"/><path d="m143.597656 271.171875c-5.429687-5.78125-9.078125-12.382813-10.449218-19.449219v23.273438c3.355468-1.222656 6.890624-2.511719 10.449218-3.824219zm0 0" fill="#507fcf"/><path d="m133.148438 390.699219v18.335937l18.535156.03125v-18.367187c0-4.964844 4.027344-9.023438 8.988281-9.023438h-18.535156c-4.929688 0-8.988281 4.058594-8.988281 9.023438zm0 0" fill="#f2b4a7"/><path d="m133.148438 409.035156v38.226563h18.535156v-38.195313zm0 0" fill="#d65036"/><path d="m107.605469 97.066406h.027343zm63.285156-83.34375c-34.269531 13.433594-59.371094 45.238282-63.285156 83.34375h23.964843.0625c2.917969-28.382812 17.570313-53.265625 38.996094-69.648437v-10.773438c0-.992187.085938-1.957031.261719-2.921875zm0 0" fill="#f59556"/><path d="m187.265625 0c-8.140625 0-14.972656 5.957031-16.375 13.722656-.175781.964844-.261719 1.929688-.261719 2.921875v28.792969c0 7.183594 4.640625 13.347656 11.089844 15.652344 1.722656.644531 3.589844.964844 5.546875.964844h15.707031c-9.140625 0-16.636718-7.476563-16.636718-16.617188v-28.792969c0-.992187.082031-1.957031.257812-2.890625v-.03125c1.371094-7.707031 8.085938-13.605468 16.144531-13.722656zm0 0" fill="#d65036"/><path d="m159.214844 243.78125-10.769532 3.300781-15.296874 4.640625c1.371093 7.066406 5.019531 13.667969 10.449218 19.449219 6.335938-2.304687 12.640625-5.109375 18.738282-6.863281 8.554687-2.453125 10.511718.4375 21.308593 4.441406 17.898438 6.65625 31.324219 6.628906 49.1875-.03125 8.492188-3.183594 16.695313-7.648438 24.316407-13.050781 3.734374-2.660157 7.324218-5.550781 10.769531-8.617188l-10.769531-3.269531zm0 0" fill="#eb8975"/><path d="m109.765625 161.605469c0 28.0625 20.757813 61.792969 49.449219 82.175781 7.675781 5.429688 15.910156 9.929688 24.429687 13.113281 17.898438 6.628907 31.324219 6.597657 49.1875-.0625 8.492188-3.152343 16.695313-7.648437 24.316407-13.050781 28.691406-20.382812 49.414062-54.113281 49.414062-82.175781l.355469-31.191407-97.234375-14.570312-100.238282 14.570312zm0 0" fill="#ffd9b0"/><path d="m109.765625 161.605469c0 28.0625 20.757813 61.792969 49.449219 82.175781 4.085937 2.890625 8.289062 5.519531 12.636718 7.796875 3.855469 2.042969 7.796876 3.824219 11.792969 5.316406 15.09375 5.574219 27.003907 6.453125 41.074219 2.597657-2.570312-.703126-5.226562-1.578126-7.96875-2.597657-4.089844-1.523437-8.117188-3.332031-12.027344-5.433593-4.261718-2.25-8.40625-4.820313-12.40625-7.652344-28.722656-20.382813-49.445312-54.113282-49.445312-82.203125l-.320313-31.191407h-33.105469zm0 0" fill="#ebab92"/><path d="m109.445312 130.417969h198.140626c6.21875 0 11.324218-5.113281 11.324218-11.332031v-10.6875c0-6.21875-5.105468-11.332032-11.324218-11.332032h-199.980469c-6.21875 0-11.296875 5.113282-11.296875 11.332032v10.6875c0 6.21875 5.078125 11.332031 11.296875 11.332031zm0 0" fill="#f59556"/><path d="m107.605469 97.066406c-6.21875.03125-11.296875 5.113282-11.296875 11.332032v10.6875c0 5.050781 3.328125 9.34375 7.910156 10.804687 1.082031.320313 2.21875.527344 3.386719.527344h23.851562c-6.160156-.117188-11.152343-5.171875-11.152343-11.332031v-10.6875c0-3.417969 1.546874-6.484376 3.941406-8.554688 1.984375-1.726562 4.523437-2.746094 7.324218-2.773438h-23.964843zm0 0" fill="#d65036"/><path d="m492.972656 340.996094c-.027344-5.664063.027344-22.019532-17.074218-23.976563-41.65625-.730469-39.789063-21.582031-74.085938-21.582031s-32.402344 20.851562-74.054688 21.582031c-17.136718 1.957031-17.078124 18.308594-17.078124 23.976563l-.058594 73.328125c.089844 5.371093.820312 10.746093 2.164062 16.058593 7.558594 30.285157 34.644532 58.550782 73.789063 77.242188 11.207031 5.082031 16.433593 6.539062 30.503906 0 39.144531-18.691406 66.230469-46.960938 73.792969-77.242188 1.3125-5.3125 2.042968-10.6875 2.128906-16.058593zm0 0" fill="#d0ffb5"/><path d="m401.808594 295.441406c-34.296875 0-32.398438 20.847656-74.082032 21.578125-17.105468 1.957031-17.046874 18.3125-17.046874 23.976563l-.058594 12v61.328125c.089844 5.371093.816406 10.746093 2.160156 16.058593 7.5625 30.285157 34.648438 58.550782 73.792969 77.242188 11.207031 5.082031 16.433593 6.539062 30.503906 0 39.144531-18.691406 66.230469-46.960938 73.792969-77.242188 1.3125-5.3125 2.042968-10.6875 2.128906-16.058593v-61.328125l-.027344-12c-.027344-5.664063.027344-22.019532-17.078125-23.976563-41.652343-.730469-39.785156-21.578125-74.085937-21.578125zm-63.335938 64.679688c0-3.941406-.03125-15.300782 11.847656-16.671875 28.984376-.527344 27.644532-15.011719 51.492188-15.011719 23.851562 0 22.535156 14.484375 51.492188 15.011719 11.910156 1.371093 11.878906 12.730469 11.878906 16.671875l.03125 8.324218v42.636719c-.0625 3.738281-.585938 7.476563-1.492188 11.183594-5.25 21.054687-24.082031 40.679687-51.285156 53.675781-9.777344 4.554688-13.425781 3.53125-21.222656 0-27.207032-12.996094-46.03125-32.621094-51.285156-53.675781-.933594-3.707031-1.433594-7.445313-1.488282-11.183594v-42.636719zm0 0" fill="#52c46d"/><path d="m375.890625 352.441406.03125-8.320312c0-1.667969 0-4.675782.902344-7.683594-5.984375 3.449219-12.929688 6.777344-26.503907 7.011719-11.878906 1.371093-11.847656 12.730469-11.847656 16.671875l-.03125 8.324218v42.636719c.054688 3.738281.554688 7.476563 1.488282 11.183594 2.160156 8.671875 6.652343 17.140625 13.105468 24.996094 9.136719 11.15625 22.214844 21.054687 38.179688 28.679687 7.792968 3.53125 11.445312 4.554688 21.222656 0 8.289062-3.972656 15.789062-8.527344 22.386719-13.582031-1.867188-.523437-3.824219-1.371094-6.15625-2.421875-7.796875-3.738281-14.917969-8.003906-21.222657-12.703125-37.976562-28.296875-31.554687-52.332031-31.554687-94.792969zm0 0" fill="#aaf589"/></g><path d="m391.738281 434.902344c-1.691406 0-3.390625-.550782-4.816406-1.675782l-18.101563-14.3125c-3.371093-2.664062-3.945312-7.5625-1.28125-10.9375 2.664063-3.375 7.558594-3.949218 10.929688-1.285156l12.09375 9.566406 33.394531-40.859374c2.722657-3.328126 7.625-3.820313 10.949219-1.09375 3.324219 2.722656 3.816406 7.628906 1.097656 10.957031l-38.238281 46.78125c-1.539063 1.882812-3.773437 2.859375-6.027344 2.859375zm0 0" fill="#525252"/></svg>