<?xml version="1.0" encoding="utf-8"?>
<!-- Generator: Adobe Illustrator 27.5.0, SVG Export Plug-In . SVG Version: 6.00 Build 0)  -->
<svg version="1.1" id="Capa_1" xmlns="http://www.w3.org/2000/svg" xmlns:xlink="http://www.w3.org/1999/xlink" x="0px" y="0px"
	 viewBox="0 0 2122 2122" style="enable-background:new 0 0 2122 2122;" xml:space="preserve">
<rect x="-0.001" style="fill:#EDE7E4;" width="2121.321" height="2121.321"/>
<rect x="-0.001" y="1687.147" style="fill:#BFB9BD;" width="2121.306" height="434.174"/>
<rect x="-0.001" y="1617.786" style="fill:#DED1D2;" width="2121.306" height="69.361"/>
<path style="fill:#E3D6D4;" d="M238.72,153.107H137.858c-5.028,0-9.106-4.078-9.106-9.108v-30.163c0-5.03,4.078-9.108,9.106-9.108
	H238.72c5.033,0,9.111,4.078,9.111,9.108v30.163C247.831,149.029,243.753,153.107,238.72,153.107z"/>
<path style="fill:#E3D6D4;" d="M363.264,201.484H262.403c-5.033,0-9.111-4.078-9.111-9.108v-30.16c0-5.03,4.078-9.108,9.111-9.108
	h100.861c5.028,0,9.106,4.078,9.106,9.108v30.16C372.37,197.406,368.292,201.484,363.264,201.484z"/>
<path style="fill:#E3D6D4;" d="M482.342,423.765H381.481c-5.033,0-9.11-4.078-9.11-9.108v-30.16c0-5.03,4.077-9.108,9.11-9.108
	h100.861c5.028,0,9.106,4.078,9.106,9.108v30.16C491.448,419.687,487.37,423.765,482.342,423.765z"/>
<path style="fill:#E3D6D4;" d="M1741.347,334.852h-100.862c-5.033,0-9.111-4.078-9.111-9.108v-30.16c0-5.03,4.078-9.108,9.111-9.108
	h100.862c5.028,0,9.106,4.078,9.106,9.108v30.16C1750.453,330.774,1746.375,334.852,1741.347,334.852z"/>
<path style="fill:#E3D6D4;" d="M1622.269,399.577h-100.861c-5.033,0-9.111-4.078-9.111-9.108v-30.163
	c0-5.03,4.078-9.108,9.111-9.108h100.861c5.028,0,9.106,4.078,9.106,9.108v30.163
	C1631.375,395.499,1627.297,399.577,1622.269,399.577z"/>
<path style="fill:#E3D6D4;" d="M1313.38,592.492h-100.861c-5.032,0-9.11-4.078-9.11-9.108v-30.161c0-5.03,4.078-9.108,9.11-9.108
	h100.861c5.028,0,9.106,4.078,9.106,9.108v30.161C1322.486,588.414,1318.408,592.492,1313.38,592.492z"/>
<path style="fill:#E3D6D4;" d="M1313.38,713.755h-100.861c-5.032,0-9.11-4.078-9.11-9.108v-30.161c0-5.03,4.078-9.11,9.11-9.11
	h100.861c5.028,0,9.106,4.08,9.106,9.11v30.161C1322.486,709.677,1318.408,713.755,1313.38,713.755z"/>
<path style="fill:#E3D6D4;" d="M1194.302,652.228h-100.861c-5.033,0-9.111-4.078-9.111-9.108v-30.163
	c0-5.03,4.078-9.108,9.111-9.108h100.861c5.028,0,9.106,4.078,9.106,9.108v30.163C1203.408,648.15,1199.33,652.228,1194.302,652.228
	z"/>
<path style="fill:#E3D6D4;" d="M1778.925,864.862h100.861c5.028,0,9.106-4.078,9.106-9.108v-30.163c0-5.03-4.078-9.108-9.106-9.108
	h-100.861c-5.033,0-9.111,4.078-9.111,9.108v30.163C1769.814,860.784,1773.892,864.862,1778.925,864.862z"/>
<path style="fill:#E3D6D4;" d="M987.01,1079.854h100.862c5.028,0,9.106-4.078,9.106-9.108v-30.161c0-5.03-4.078-9.108-9.106-9.108
	H987.01c-5.033,0-9.111,4.078-9.111,9.108v30.161C977.899,1075.776,981.977,1079.854,987.01,1079.854z"/>
<path style="fill:#E3D6D4;" d="M1107.93,1129.327h100.861c5.028,0,9.106-4.078,9.106-9.108v-30.161c0-5.03-4.078-9.108-9.106-9.108
	H1107.93c-5.028,0-9.106,4.078-9.106,9.108v30.161C1098.824,1125.249,1102.902,1129.327,1107.93,1129.327z"/>
<path style="fill:#E3D6D4;" d="M57.576,961.387h100.856c5.033,0,9.111-4.078,9.111-9.108v-30.163c0-5.03-4.078-9.108-9.111-9.108
	H57.576c-5.033,0-9.111,4.078-9.111,9.108v30.163C48.466,957.309,52.544,961.387,57.576,961.387z"/>
<path style="fill:#E3D6D4;" d="M57.576,1300.439h100.856c5.033,0,9.111-4.078,9.111-9.108v-30.161c0-5.03-4.078-9.108-9.111-9.108
	H57.576c-5.033,0-9.111,4.078-9.111,9.108v30.161C48.466,1296.361,52.544,1300.439,57.576,1300.439z"/>
<path style="fill:#E3D6D4;" d="M178.496,1010.861h100.861c5.028,0,9.106-4.078,9.106-9.108v-30.163c0-5.03-4.078-9.108-9.106-9.108
	H178.496c-5.033,0-9.111,4.078-9.111,9.108v30.163C169.385,1006.783,173.463,1010.861,178.496,1010.861z"/>
<path style="fill:#E3D6D4;" d="M1236.426,1068.229h100.861c5.028,0,9.106-4.078,9.106-9.108v-30.163c0-5.03-4.078-9.108-9.106-9.108
	h-100.861c-5.032,0-9.11,4.078-9.11,9.108v30.163C1227.315,1064.151,1231.393,1068.229,1236.426,1068.229z"/>
<path style="fill:#E3D6D4;" d="M1521.407,1312.846h100.861c5.028,0,9.106-4.078,9.106-9.108v-30.163c0-5.03-4.078-9.108-9.106-9.108
	h-100.861c-5.033,0-9.111,4.078-9.111,9.108v30.163C1512.296,1308.768,1516.374,1312.846,1521.407,1312.846z"/>
<path style="fill:#E3D6D4;" d="M1640.485,1361.876h100.862c5.028,0,9.106-4.078,9.106-9.108v-30.16c0-5.03-4.078-9.108-9.106-9.108
	h-100.862c-5.033,0-9.111,4.078-9.111,9.108v30.16C1631.375,1357.798,1635.453,1361.876,1640.485,1361.876z"/>
<path style="fill:#E3D6D4;" d="M1957.54,1504.286h100.861c5.032,0,9.11-4.078,9.11-9.108v-30.163c0-5.03-4.078-9.108-9.11-9.108
	H1957.54c-5.028,0-9.106,4.078-9.106,9.108v30.163C1948.434,1500.208,1952.512,1504.286,1957.54,1504.286z"/>
<path style="fill:#E3D6D4;" d="M987.01,1373.008h100.862c5.028,0,9.106-4.078,9.106-9.108v-30.161c0-5.031-4.078-9.108-9.106-9.108
	H987.01c-5.033,0-9.111,4.077-9.111,9.108v30.161C977.899,1368.931,981.977,1373.008,987.01,1373.008z"/>
<path style="fill:#E3D6D4;" d="M1778.925,986.123h100.861c5.028,0,9.106-4.078,9.106-9.108v-30.161c0-5.03-4.078-9.108-9.106-9.108
	h-100.861c-5.033,0-9.111,4.078-9.111,9.108v30.161C1769.814,982.045,1773.892,986.123,1778.925,986.123z"/>
<path style="fill:#E3D6D4;" d="M1655.633,1035.547h100.862c5.028,0,9.106-4.078,9.106-9.108v-30.16c0-5.03-4.078-9.108-9.106-9.108
	h-100.862c-5.033,0-9.111,4.078-9.111,9.108v30.16C1646.522,1031.469,1650.6,1035.547,1655.633,1035.547z"/>
<path style="fill:#E3D6D4;" d="M1898.003,924.596h100.861c5.028,0,9.106-4.078,9.106-9.108v-30.16c0-5.03-4.078-9.108-9.106-9.108
	h-100.861c-5.033,0-9.111,4.078-9.111,9.108v30.16C1888.892,920.518,1892.97,924.596,1898.003,924.596z"/>
<path style="fill:#E3D6D4;" d="M2121.319,544.115h-85.466c-5.033,0-9.111,4.078-9.111,9.108v30.161c0,5.03,4.078,9.108,9.111,9.108
	h85.466V544.115z"/>
<path style="fill:#E3D6D4;" d="M2121.319,1128.842h-50.114c-5.033,0-9.111,4.078-9.111,9.108v30.16c0,5.03,4.078,9.108,9.111,9.108
	h50.114V1128.842z"/>
<path style="fill:#E3D6D4;" d="M1860.425,399.577h-100.861c-5.033,0-9.11-4.078-9.11-9.108v-30.163c0-5.03,4.078-9.108,9.11-9.108
	h100.861c5.028,0,9.106,4.078,9.106,9.108v30.163C1869.531,395.499,1865.453,399.577,1860.425,399.577z"/>
<path style="fill:#E3D6D4;" d="M1051.55,258.982H950.689c-5.028,0-9.106-4.078-9.106-9.108v-30.163c0-5.03,4.078-9.108,9.106-9.108
	h100.862c5.033,0,9.111,4.078,9.111,9.108v30.163C1060.661,254.904,1056.583,258.982,1051.55,258.982z"/>
<path style="fill:#E3D6D4;" d="M1170.629,323.705h-100.861c-5.028,0-9.106-4.078-9.106-9.108v-30.16c0-5.03,4.078-9.108,9.106-9.108
	h100.861c5.033,0,9.11,4.078,9.11,9.108v30.16C1179.739,319.627,1175.662,323.705,1170.629,323.705z"/>
<path style="fill:#E3D6D4;" d="M363.264,480.671H262.403c-5.033,0-9.111-4.078-9.111-9.108v-30.163c0-5.03,4.078-9.108,9.111-9.108
	h100.861c5.028,0,9.106,4.078,9.106,9.108v30.163C372.37,476.592,368.292,480.671,363.264,480.671z"/>
<rect x="303.085" y="539.125" style="fill:#CE9A92;" width="624.102" height="1152.564"/>
<path style="fill:#C38981;" d="M578.059,1055.664v-4.735H367.094V625.07l206.23,0v430.594H578.059v-4.735V1055.664h4.733V620.335
	c0-1.264-0.492-2.453-1.386-3.348c-0.894-0.894-2.083-1.387-3.347-1.387H362.363c-1.247,0-2.468,0.505-3.35,1.386
	c-0.882,0.882-1.386,2.101-1.386,3.348v435.329c0,1.247,0.504,2.467,1.386,3.348c0.882,0.882,2.102,1.386,3.35,1.386h215.696
	c1.264,0,2.453-0.492,3.347-1.387c0.894-0.894,1.386-2.083,1.386-3.347H578.059z"/>
<path style="fill:#C38981;" d="M867.913,1055.664v-4.735H656.948V625.07l206.229,0v430.594H867.913v-4.735V1055.664h4.733V620.335
	c0-1.264-0.492-2.453-1.386-3.348c-0.894-0.894-2.083-1.387-3.347-1.387H652.216c-1.247,0-2.468,0.505-3.35,1.386
	c-0.882,0.882-1.386,2.101-1.386,3.348v435.329c0,1.247,0.504,2.467,1.386,3.348c0.882,0.882,2.102,1.386,3.35,1.386h215.696
	c1.264,0,2.453-0.492,3.347-1.387c0.894-0.894,1.386-2.083,1.386-3.347H867.913z"/>
<path style="fill:#C38981;" d="M578.059,1610.48v-4.735H367.094v-425.862h206.228l0.002,430.597H578.059v-4.735V1610.48h4.733
	v-435.331c0-1.265-0.492-2.453-1.386-3.348c-0.894-0.894-2.083-1.387-3.347-1.387H362.363c-1.247,0-2.468,0.505-3.35,1.386
	c-0.882,0.882-1.386,2.101-1.386,3.349v435.331c0,1.246,0.504,2.466,1.386,3.348c0.882,0.881,2.102,1.386,3.35,1.386h215.696
	c1.264,0,2.453-0.492,3.347-1.387c0.894-0.895,1.386-2.083,1.386-3.347H578.059z"/>
<path style="fill:#C38981;" d="M867.913,1610.48v-4.735H656.948v-425.862h206.227l0.003,430.597H867.913v-4.735V1610.48h4.733
	v-435.331c0-1.265-0.492-2.453-1.386-3.348c-0.894-0.894-2.083-1.387-3.347-1.387H652.216c-1.247,0-2.468,0.505-3.35,1.386
	c-0.882,0.882-1.386,2.101-1.386,3.349v435.331c0,1.246,0.504,2.466,1.386,3.348c0.882,0.881,2.102,1.386,3.35,1.386h215.696
	c1.264,0,2.453-0.492,3.347-1.387c0.894-0.895,1.386-2.083,1.386-3.347H867.913z"/>
<path style="fill:#FABA5D;" d="M833.647,1105.939c-16.394,38.08,47.308,56.528,54.928,13.761
	C894.938,1084.005,847.304,1074.222,833.647,1105.939z"/>
<path style="fill:#B1B1B6;" d="M1309.01,1857.204c5.676,13.291,23.61,17.605,38.626,18.66c21.944,1.54,44.014,1.269,65.914-0.811
	c22.723-2.161,45.534-6.265,68.238-3.878c22.334,2.351,43.517,10.886,65.475,15.603c51.059,10.965,101.437,0.085,151.39-10.845
	c40.847-8.938,89.373,4.541,131.136,7.291c46.255,3.05,94.995,0.641,135.146-22.526c5.525-3.186,10.977-6.879,14.553-12.158
	c7.215-10.645,4.935-25.691-2.563-36.139c-7.498-10.448-19.191-17.067-31.026-22.1c-68.496-29.135-146.508-14.341-220.456-5.81
	c-53.31,6.148-107.03,8.765-160.685,7.824c-44.828-0.787-89.758-4.046-134.43-0.204c-35.372,3.04-66.1,6.131-97.734,24.312
	c-14.104,8.109-28.838,22.287-24.555,37.982C1308.303,1855.379,1308.63,1856.312,1309.01,1857.204z"/>
<path style="fill:#FFFFFF;" d="M280.235,842.129c18.835-36.248,60.589-54.36,103.892-54.609
	c-17.023-34.955,12.161-77.218,44.613-96.827c19.074-11.523,43.449-18.58,65.373-12.207c11.737,3.41,21.72,10.324,31.186,17.364
	c-24.916-18.534,50.63-81.88,67.264-87.743c40.482-14.273,92.004,16.957,88.915,56.219c25.252-30.012,59.882-55.549,101.1-63.632
	c41.218-8.083,89.086,4.677,111.468,36.431c22.387,31.753,15.391,72.596,7.615,109.407c21.505-16.385,57.899-13.876,76.291,5.259
	c18.392,19.135,15.435,51.417-6.197,67.668c40.355,3.031,75.98,33.359,81.061,69.006c5.082,35.649-20.916,72.891-59.152,84.74
	c44.214,27.612,75.473,74.993,68.915,122.613c-6.558,47.617-58.406,89.775-111.828,82.367c22.173,22.392,23.868,58.684,3.854,82.625
	c-12.024,14.39-28.721,22.031-47.118,23.43c-8.604,0.653-55.288,0.402-58.411-10.534c7.605,26.648,15.688,59.722,1.968,85.956
	c-11.62,22.226-39.624,32.36-61.661,40.353c-10.563,3.829-21.296,7.698-32.507,8.441c-18.07,1.201-35.571-5.773-52.336-12.623
	c-10.85-4.431-20.117-9.891-27.941-18.587c-10.061,14.17-13.846,29.868-28.356,42.148c-9.359,7.915-20.881,14.341-33.125,13.893
	c-12.536-0.461-23.781-8.063-32.423-17.152c-15.196-15.978-24.492-37.444-25.754-59.459
	c-30.987,49.581-95.722,77.741-152.072,56.431c-56.092-21.213-83.342-87.856-55.624-136.04
	c-44.082,23.491-107.804-2.853-123.906-46.182c-7.766-20.906-5.53-43.556,3.42-63.882c5.919-13.427,19.23-21.332,29.447-31.81
	c17.403-17.849,15.883-13.281,6.178-30.546c-15.469-27.512-34.479-43.514-22.986-77.967c10.592-31.756,40.248-56.19,73.32-71.551
	c-36.633-23.089-52.784-68.747-37.593-106.265C278.052,846.575,279.095,844.329,280.235,842.129z"/>
<path style="fill:#FFFFFF;" d="M986.674,1020.39c0.049,34.353-6.241,76.801,1.73,109.716c1.851,7.654,151.93-49.135,164.627-56.187
	C1110.96,1038.188,1039.005,1032.442,986.674,1020.39z"/>
<path style="fill:#647EBE;" d="M1337.443,1043.284c-0.828,0.475-1.589,1.052-2.246,1.752c-1.915,2.039-2.699,5.32-1.242,7.71
	c-3.343,2.641-3.401,8.433-0.117,11.142c-2.202,1.966-3.318,5.081-2.865,8c0.458,2.919,2.466,5.547,5.165,6.75
	c-0.716,2.697-1.428,5.596-0.482,8.219c0.999,2.755,3.683,4.621,6.504,5.403c7.055,1.951,13.963-0.397,20.779-2.095
	c2.324-0.577,5.506-1.277,6.86-3.425c0.882-1.403,1.184-3.082,1.472-4.714c1.525-8.682,3.045-17.364,4.57-26.044
	c0.171-0.989,0.336-2.053-0.093-2.962c-0.423-0.901-1.344-1.452-2.222-1.929c-8.706-4.743-20.672-11.306-30.869-9.554
	C1340.849,1041.849,1339.027,1042.381,1337.443,1043.284z"/>
<path style="fill:#ECF2F6;" d="M1579.224,903.144c-0.97,27.547-1.252,55.449-1.676,83.694c-0.219,14.139-0.467,28.355-1.023,42.847
	c-0.302,7.276-0.619,14.548-1.199,22.088c-0.239,3.707-0.633,7.605-1.013,11.459l-0.74,6.003l-0.195,1.508l-0.097,0.755
	l-0.161,1.065l-0.233,1.313c-0.624,3.45-1.9,7.011-3.513,10.01c-3.284,6.173-7.62,10.204-11.26,12.886
	c-3.698,2.69-7.054,4.36-10.002,5.596c-5.929,2.426-10.845,3.535-15.459,4.407c-9.145,1.615-17.159,2.031-25.018,2.224
	c-15.601,0.273-30.27-0.682-44.814-1.961c-15.133-1.374-30.221-3.206-45.271-5.301c-14.407-2.007-28.916-5.194-43.415-5.825
	c-1.437-0.063-2.952-0.151-4.146-0.952c-2.392-1.612-2.294-5.108-1.871-7.963c0.979-6.541,2.314-13.028,3.99-19.427
	c1.345-5.113,1.35-19.822,8.336-19.081c7.352,0.782,14.456,2.931,21.676,4.409c6.743,1.381,13.037,2.08,19.917,2.638
	c14.514,1.181,29.233,2.602,43.805,2.602c13.491,0.421,26.943,0.453,39.415-0.507c6.168-0.487,12.19-1.274,16.828-2.424
	c2.256-0.548,4.16-1.277,4.692-1.627c0.273-0.151,0.015-0.193-0.867,0.404c-0.838,0.587-2.665,2.035-4.331,5.082
	c-0.789,1.457-1.462,3.333-1.813,5.052l-0.112,0.667l-0.053,0.414l0.029-0.555l0.058-1.116l0.234-4.485
	c0.078-3.157,0.19-6.266,0.166-9.578c0.048-6.492-0.127-13.272-0.317-20.041c-0.429-13.603-1.155-27.478-1.91-41.43
	c-1.53-27.931-3.22-56.206-4.219-84.849c-0.634-18.109,13.53-33.305,31.639-33.942c18.109-0.633,33.305,13.532,33.944,31.644
	C1579.249,901.588,1579.244,902.414,1579.224,903.144z"/>
<path style="fill:#524743;" d="M1288.873,1078.205l-131.409-0.226c-2.972-0.005-5.379-2.419-5.374-5.393
	c0.005-2.974,2.422-5.382,5.394-5.377h0.166l131.302-0.207c3.094-0.005,5.608,2.5,5.613,5.593c0.005,3.094-2.499,5.605-5.593,5.61
	h-0.019H1288.873z"/>
<path style="fill:#8E9ED1;" d="M1433.467,1056.122c-2.753-0.453-5.827-0.198-8.614-0.29c-33.408-1.128-67.58,1.116-100.905-0.998
	c-1.793-0.115-3.62-0.224-5.369,0.189c-4.764,1.133-5.525,4.58-8.701,7.503c-3.245,2.982-8.472,2.709-12.546,2.621
	c-5.218-0.109-10.44,0.002-15.653,0.334c-0.731,0.046-1.52,0.12-2.071,0.602c-2.309,2.008-0.609,7.686-0.302,10.129
	c0.087,0.672,0.214,1.418,0.755,1.824c2.495,1.878,10.49,0.582,13.486,0.634c5.569,0.092,11.142,0.119,16.716,0.083
	c9.603-0.066,46.046,0.334,54.553,0.636c11.674,0.414,59.751-0.166,71.625-2.042c7.22-1.143,4.433-12.448,2.582-17.169
	c-0.604-1.542-1.457-3.183-3.011-3.754c-0.633-0.236-1.325-0.26-2.002-0.282L1433.467,1056.122z"/>
<path style="fill:#FAD46F;" d="M1830.885,906.947c-1.262-11.169-2.518-22.336-3.776-33.503c-0.19-1.678-0.443-3.491-1.632-4.687
	c-1.506-1.518-3.927-1.489-6.066-1.352c-21.53,1.379-43.025,3.298-64.457,5.754c-0.945,16.17-1.89,32.341-2.835,48.513
	c25.305-2.005,50.616-3.951,75.916-5.956L1830.885,906.947z"/>
<path style="fill:#F6BF63;" d="M1764.207,890.036c16.253-3.544,32.925-5.296,49.588-5.211c15.839,0.083,33.106,2.477,43.995,13.578
	c7.708,7.856,11.225,18.696,13.603,29.273c9.739,43.335,22.942,122.445,25.846,178.798c0.38,7.389,0.253,15.33-4.029,21.467
	c-4.209,6.029-11.659,9.027-18.762,11.444c-36.175,12.304-74.781,17.91-113.105,16.419c-11.542-57.38-15.844-116.335-11.109-174.607
	L1764.207,890.036z"/>
<path style="fill:#FFFFFF;" d="M1410.548,1455.202c-0.005-3.111-0.034,4.11-0.102,1.119c-1.179-49.919,29.734-89.841,55.809-130.167
	c28.58-44.196,58.051-87.711,83.805-133.665c1.267-2.258,9.486-36.54,12.102-36.645c65.962-2.589,131.336-11.729,196.651-16.36
	c7.849-0.558,16.522-1.349,22.821,3.367c5.603,4.193,7.639,11.542,9.213,18.363c8.307,35.927,13.096,63.717,13.915,100.304
	c0.755,33.812-5.847,81.283-1.603,115.614c4.585,37.037,38.816,71.612,53.768,90.75c4.604,5.888,4.024,5.883,11.249,9.252
	c5.36,2.499,11.776,0.358,15.673,6.19c3.664,5.486,0.224,11.863,1.969,17.646c1.769,5.847,7.854,9.162,11.844,13.732
	c3.069,3.51,5.457,8.09,4.687,12.687c-0.512,3.05-2.344,5.712-3.216,8.677c-3.478,11.817,9.223,24.58-2.163,34.964
	c-11.995,10.943-33.934,17.606-49.261,21.82c-12.633,3.474-23.8,7.815-35.342-1.148c-4.112-3.198-7.932-7.028-12.838-8.777
	c-6.421-2.287-13.876-0.691-20.01-3.668c-9.218-4.48-8.297-12.74-8.701-21.006c-0.448-9.132-5.16-18.75-9.637-26.543
	c-9.413-16.38-23.128-29.751-36.195-43.186c-23.089-23.742-39.868-45.332-46.767-78.311c-7.494-35.809-10.758-72.272-17.477-108.07
	c-28.731,37.281-105.421,118.89-114.264,142.88c-9.569,25.973-0.049,55.897,9.096,75.895c4.414,9.654-4.292,16.628-5.856,26.076
	c-1.301,7.866,7.031,14.767,6.222,22.699c-0.804,7.851-8.604,10.056-12.434,15.79c-4.697,7.038-4.205,11.391-4.229,20.214
	c-0.048,16.723-0.37,33.442-0.726,50.16c-0.74,34.667-1.496,69.327-1.013,104.004c0.185,13.41-18.45,10.689-30.572,9.444
	c-10.719-1.101-27.269,1.036-33.379-7.371c-2.767-37.016-9.164-73.646-16.896-109.916c-3.596-16.865-5.68-36.251-11.893-52.336
	c-4.901-12.691-17.9-20.078-15.303-35.737c0.375-2.258,1.038-4.538,0.663-6.794c-1.321-7.92-10.066-11.897-12.999-18.799
	c-3.81-8.958-0.492-18.231-0.39-27.646c0.083-8.024-2.271-15.844-3.849-23.713
	C1410.124,1473.054,1410.573,1469.324,1410.548,1455.202z"/>
<path style="fill:#647EBE;" d="M1365.009,1829.652c5.315,5.138,17.632,4.629,24.516,4.809c10.203,0.256,101.544,0.911,128.14,0.365
	c5.72-0.109,13.846-0.109,18.109-4.772c8.151-8.916,7.454-34.146,8.239-45.844c1.544-23.006,2.026-46.146,2.694-69.19
	c0.653-22.514,0.765-45.038,1.354-67.554c0.302-11.486,0.735-22.969,1.462-34.438c0.468-7.332,4.185-21.99,1.232-28.891
	c-1.54-3.608-6.241-4.356-10.158-4.506c-32.92-1.262-68.574,1.43-100.496,9.795c-1.5,0.395-3.21,1.084-3.605,2.587
	c-0.214,0.821,0.034,1.688,0.292,2.497c5.846,18.287,11.366,35.495,15.449,54.606c4.151,19.457,8.131,38.952,11.932,58.479
	c5.086,26.107,2.782,41.802-19.484,57.351c-2.295,1.603-4.663,3.133-7.103,4.553c-1.749,1.094-3.572,2.112-5.394,3.133
	c-2.402,1.386-4.916,2.624-7.503,3.717c-2.042,0.911-4.117,1.713-6.192,2.405c-2.587,0.911-5.14,1.676-7.654,2.331
	c-2.114,0.548-4.224,1.02-6.231,1.42c-14.5,2.77-33.807,5.976-41.388,21.242C1359.835,1810.598,1358.812,1823.75,1365.009,1829.652z
	"/>
<path style="fill:#CBD3E2;" d="M1536.238,1829.387l-0.477,0.66c-4.263,4.663-12.39,4.663-18.11,4.772
	c-26.597,0.545-117.938-0.11-128.14-0.363c-6.889-0.183-19.201,0.326-24.521-4.811l-0.21-0.259H1536.238z"/>
<path style="fill:#647EBE;" d="M1808.479,1832.208c22.002,0.173,62.265,0.198,69.032-2.821
	c31.795-14.183,79.137-46.358,84.935-59.919c2.528-5.912,1.042-12.687-0.502-18.928c-5.204-21.059-9.564-43.023-16.273-63.549
	c-7.069-21.634-14.777-43.05-21.69-64.74c-7.308-22.918-16.302-46.458-21.12-70.04c-2.031-9.915-1.388-13.876-13.564-11.072
	c-11.006,2.534-21.91,6.421-32.506,10.285c-20.614,7.515-40.701,16.74-59.361,28.316c-1.321,0.819-2.748,1.978-2.684,3.533
	c0.039,0.85,0.531,1.603,1.018,2.299c10.967,15.756,21.31,30.577,30.835,47.639c14.655,26.253,27.059,51.898,38.436,79.612
	c2.387,5.805,4.808,12.146,3.147,18.2c-1.369,4.979-21.773,29.6-36.448,33.081c-7.591,1.801-15.04,4.195-22.256,7.16
	c-3.912,1.605-7.79,3.401-11.137,5.988c-12.955,10.029-23.22,33.807-21.573,49.851
	C1777.575,1834.883,1792.445,1832.083,1808.479,1832.208z"/>
<path style="fill:#CBD3E2;" d="M1877.784,1820.04c-22.465,5.885-61.159,5.247-101.207,2.212c-0.024,1.613,0.025,3.23,0.19,4.85
	c0.809,7.781,15.678,4.981,31.712,5.106c22.002,0.173,62.265,0.198,69.032-2.821c31.795-14.183,79.137-46.358,84.935-59.919
	c1.086-2.54,1.408-5.244,1.325-7.992C1938.305,1781.843,1897.648,1811.952,1877.784,1820.04z"/>
<path style="fill:#FBD1BC;" d="M1572.276,859.161c0.784,7.072,9.798,14.631,13.505,21.023c6.524,11.247,18.748,24.412,27.698,31.159
	c15.259,11.506,28.818,10.16,44.535,2.597c15.717-7.561,34.899-46.355,40.029-62.07c0.629-1.978,1.067-4.438-0.59-5.788
	c-0.633-0.536-1.447-1.155-2.29-1.082c-40.351,3.834-47.225-11.854-49.534-27.598l-0.053-0.44
	c-0.765-5.101-1.018-10.144-1.813-14.592l-25.315,2.736l0.312,0.341l0.068,0.149c1.378,2.685,2.08,15.079,0.409,25.946l-0.107,0.726
	l-0.044,0.217c-0.989,6.046-2.796,11.513-5.622,14.49C1606.317,854.506,1582.703,856.657,1572.276,859.161z"/>
<path style="fill:#F1AA91;" d="M1618.449,805.106l0.312,0.341l0.068,0.149c1.378,2.685,2.08,15.079,0.409,25.946l-0.107,0.726
	l-0.044,0.217c4.365-1.489,8.595-3.13,12.697-5.176c4.809-2.419,9.91-5.698,13.252-9.639l0.541-0.706
	c-0.765-5.101-1.018-10.144-1.813-14.592L1618.449,805.106z"/>
<path style="fill:#FFFFFF;" d="M1794.813,1208.988c-5.413-2.295-4.799-9.286-8.706-13.262c-3.903-4.01-11.411-6.032-16.551-7.71
	c-11.342-3.769-23.196-5.45-34.782-8.327c-20.901-5.174-38.825-4.146-59.556-3.873c-10.348,0.102-120.452,0.063-120.662,3.593
	c0.346-5.929,1.272-10.173,1.34-16.102c0.755-47.427-7.708-95.88-17.135-142.279c-5.924-29.162-13.296-58.528-14.426-88.033
	c-0.171-3.427-0.205-6.853-0.171-10.28c0.171-14.702,2.09-29.4,6.685-44.17c7.23-23.099,62.981-16.38,56.097-44.206
	c-0.925-3.769-3.157-7.026-5.281-10.28c-11.41-17.374-20.799-36.701-23.059-57.398c-2.261-20.665,3.493-42.971,18.606-57.295
	c18.918-17.956,53.972-24.127,76.657-10.212c15.902,9.766,22.787,31.902,26.046,49.276c1.096,5.827,1.778,11.822,1.301,17.751
	c-0.55,6.751-2.572,13.296-4.248,19.876c-2.811,10.93-4.799,22.446-2.3,33.444c7.508,33.206,47.703,23.096,72.034,30.088
	c6.305,1.851,12.438,4.901,16.926,9.698c1.954,2.09,3.566,4.49,5.072,6.923c5.759,9.354,8.502,17.956,9.082,28.887
	c0.823,14.872-2.329,29.676-2.914,44.582c-0.375,9.732,0.346,19.498,1.062,29.23c2.913,39.376,7.44,78.611,10.28,118.019
	c1.067,14.565,2.129,29.127,3.157,43.727C1791.246,1156.421,1795.291,1183.186,1794.813,1208.988z"/>
<path style="fill:#FBD1BC;" d="M1671.272,756.868c1.744-1.077,4.273-0.692,5.788,0.492s2.188,2.967,2.475,4.726
	c0.604,3.652-0.239,7.52-2.363,10.85c-1.052,1.652-2.475,3.221-4.424,4.115l-0.395,0.048l-0.127-0.246
	c-0.643-4.338-1.316-8.672-1.964-13.011L1671.272,756.868z"/>
<path style="fill:#FBD1BC;" d="M1570.342,764.79c3.537,32.646,19.6,59.215,55.883,55.325c37.076-3.978,49.261-30.499,46.733-63.239
	c-2.524-32.74-27.615-58.323-55.878-55.325C1584.437,705.015,1565.46,719.735,1570.342,764.79z"/>
<path style="fill:#A56964;" d="M1665.05,727.692c-7.571-11.954-22.938-23.642-37.072-26.28c-5.544-1.035-13.145-0.609-18.602,1.001
	c-0.984,0.29-1.978,0.57-2.933,0.882c-23.454,7.642-41.091,30.199-38.372,55.264c0.438,0.609,0.848,1.267,1.326,1.813
	c6.494-2.694,13.515-4.999,19.308-8.996c10.105-6.972,21.252-14.804,21.213-14.828c6.811,7.25,13.7,9.844,23.084,10.836
	c7.069,0.748,14.143,1.496,21.213,2.244c2.202,0.234,4.473,0.487,6.412,1.552c4.843,2.66,4.463,7.71,6.305,11.82
	c0.272,0.604,0.589,1.186,0.979,1.739c1.106-1.503,1.813-3.92,3.23-5.54c0.253-0.292,4.73-3.759,4.892-2.27
	c-0.01-0.714-0.044-1.435-0.068-2.154C1673.552,745.282,1670.337,736.039,1665.05,727.692z"/>
<path style="fill:#ECF2F6;" d="M1660.324,1302.546l-1.052-0.26c-8.638-4.585-16.999-8.792-25.086-12.863
	c-8.122-4.09-16.521-8.317-25.223-12.93c-1.096-0.582-1.515-1.944-0.931-3.04c0.58-1.101,1.944-1.515,3.04-0.935
	c8.652,4.592,17.032,8.808,25.135,12.886c8.107,4.08,16.492,8.302,25.174,12.906c1.096,0.582,1.515,1.944,0.935,3.04
	C1661.913,1302.113,1661.133,1302.546,1660.324,1302.546z"/>
<path style="fill:#F1AA91;" d="M1611.341,784.826c-2.466,0-4.292-1.011-5.135-2.899c-0.477-1.077-0.521-2.175-0.122-3.177
	c0.429-1.089,1.354-1.978,2.602-2.505c1.437-0.604,3.152-0.641,4.818-0.11l0.482,0.938l-0.935,0.485
	c-1.331-0.428-2.675-0.405-3.786,0.063c-0.877,0.368-1.515,0.965-1.798,1.676c-0.249,0.631-0.215,1.311,0.102,2.025
	c1.043,2.346,4.083,2.085,5.34,1.868l0.858,0.607l-0.604,0.862C1612.525,784.77,1611.916,784.826,1611.341,784.826z"/>
<path style="fill:#855D54;" d="M1592.257,764.899c-2.071-0.154-4.341,0.166-6.5,0.682c-2.153,0.538-4.312,1.294-6.124,2.504
	l-0.02,0.014l-0.867-0.173l0.127-0.831c1.905-1.547,4.107-2.536,6.348-3.332c2.266-0.76,4.58-1.345,7.128-1.406
	c0.706-0.017,1.286,0.538,1.306,1.243c0.015,0.704-0.541,1.286-1.243,1.303l-0.122-0.003L1592.257,764.899z"/>
<path style="fill:#855D54;" d="M1630.731,758.083c2.514-0.405,4.896-0.251,7.265,0.083c2.348,0.373,4.692,0.945,6.85,2.119
	l0.248,0.845l-0.789,0.275l-0.029-0.01c-1.998-0.86-4.258-1.211-6.48-1.348c-2.212-0.112-4.501-0.012-6.514,0.517l-0.024,0.007
	c-0.682,0.178-1.379-0.229-1.559-0.908c-0.176-0.68,0.229-1.377,0.911-1.554L1630.731,758.083z"/>
<path style="fill:#855D54;" d="M1602.522,794.292c-2.602,1.045-0.429,3.966,1.466,5.547c2.11,1.757,4.677,2.782,7.45,2.594
	c4.063-0.272,8.565-3.308,10.826-6.535c1.784-2.555,1.174-5.038-1.861-3.874c-5.281,2.03-10.841,2.512-16.536,1.954
	C1603.322,793.925,1602.878,794.149,1602.522,794.292z"/>
<path style="fill:#EB5E5D;" d="M1610.785,797.002c3.391-1.274,7.255-1.152,10.992-0.49c-2.373,2.987-6.534,5.667-10.339,5.922
	c-2.271,0.154-4.399-0.514-6.256-1.722C1606.815,799.108,1608.661,797.8,1610.785,797.002z"/>
<path style="fill:#855D54;" d="M1632.067,771.348c0.433,2.884,2.299,4.994,4.165,4.711c1.861-0.28,3.021-2.848,2.582-5.732
	c-0.433-2.882-2.299-4.992-4.161-4.711C1632.787,765.898,1631.628,768.466,1632.067,771.348z"/>
<path style="fill:#FFFFFF;" d="M1635.033,768.147c0.112,0.748,0.697,1.279,1.301,1.186c0.609-0.093,1.009-0.772,0.896-1.518
	c-0.112-0.748-0.697-1.279-1.306-1.186C1635.321,766.721,1634.921,767.401,1635.033,768.147z"/>
<path style="fill:#855D54;" d="M1585.996,777.562c0.439,2.884,2.304,4.994,4.166,4.711c1.866-0.282,3.02-2.848,2.587-5.732
	c-0.438-2.884-2.299-4.994-4.165-4.711C1586.722,772.112,1585.563,774.678,1585.996,777.562z"/>
<path style="fill:#FFFFFF;" d="M1588.968,774.361c0.112,0.745,0.692,1.277,1.301,1.186c0.604-0.093,1.009-0.772,0.892-1.518
	c-0.112-0.748-0.697-1.279-1.301-1.186C1589.255,772.934,1588.851,773.613,1588.968,774.361z"/>
<path style="fill:#FFFFFF;" d="M1595.56,785.642c4.916-3.006,9.316-7.101,15.216-7.873c4.492-0.59,8.96,0.943,13.33,2.141
	c5.608,1.54,8.672,1.647,14.474,1.564c5.924-0.085,13.267-1.555,18.616-5.008c-0.005,8.105,4.063,18.718,7.025,25.305
	c-4.545,5.043-10.012,9.718-16.005,12.95c-6.928,3.739-14.685,5.708-22.475,6.561c-3.732,0.407-7.498,0.521-11.245,0.232
	c-8.799-0.682-17.271-3.739-24.112-9.379c-3.235-2.665-6.046-5.817-8.433-9.252c-0.634-0.911-6.729-11.776-5.681-11.888
	c4.614-0.502,9.179-1.413,13.627-2.719C1591.921,787.681,1593.772,786.734,1595.56,785.642z"/>
<path style="fill:#FFFFFF;" d="M1655.974,779.352l-0.526-0.166l-0.219-1.267c4.735-6.738,11.293-14.4,17.081-21.159l2.417-2.826
	l1.281-0.103l0.102,1.284l-2.417,2.831c-5.759,6.726-12.287,14.353-16.979,21.02L1655.974,779.352z"/>
<path style="fill:#FFFFFF;" d="M1662.546,803.228l-0.526-0.166l-0.219-1.267c5.667-8.058,8.512-16.363,10.738-24.139
	c0.136-0.482,0.638-0.772,1.125-0.624c0.487,0.139,0.765,0.641,0.624,1.126c-2.27,7.927-5.174,16.407-11.001,24.684
	L1662.546,803.228z"/>
<path style="fill:#FFFFFF;" d="M1663.433,806.936l-1.072-0.202c2.929-2.375,3.07-8.982,3.362-12.509
	c1.135-13.727-3.352-27.473-7.673-40.375c-0.687-2.054-1.618-4.314-3.615-5.15c-2.422-1.013-15.454-1.096-19.089-1.123
	c-7.362-0.053-14.728,0.429-22.022,1.435c-14.426,1.993-28.589,6.032-41.827,12.122c-4.039,1.859-4.828,1.917-6.241-2.48
	c-0.96-2.992-1.501-6.108-1.661-9.243c-0.648-12.648,4.784-25.417,13.578-34.397c12.137-12.395,29.588-18.351,46.831-20.251
	c4.847-0.533,9.793-0.777,14.557,0.243c8.122,1.74,15.133,7.067,20.351,13.53c5.218,6.461,8.838,14.042,12.234,21.622
	c7.031,15.695,12.287,26.076,7.201,43.785c-1.744,6.066-3.22,12.188-5.354,18.136
	C1671.803,795.394,1668.475,807.065,1663.433,806.936z"/>
<path style="fill:#FDEAE4;" d="M1611.326,778.203c0.955-3.496,1.944-7.157,2.933-10.816c1.642-6.068,3.299-12.195,4.721-17.293
	c-3.663,0.302-7.322,0.699-10.977,1.114c-1.164,4.239-2.421,8.889-3.668,13.498c-1.73,6.39-3.474,12.836-4.941,18.078
	C1602.864,780.356,1607.014,778.885,1611.326,778.203z"/>
<path style="fill:#FDEAE4;" d="M1619.482,777.857c1.067-3.89,2.193-8.044,3.318-12.197c1.515-5.606,3.05-11.279,4.399-16.156
	c-1.208,0.083-2.417,0.17-3.625,0.26c-1.276,4.616-2.685,9.829-4.083,15.001c-1.203,4.446-2.417,8.925-3.542,13.03
	C1617.134,777.766,1618.312,777.774,1619.482,777.857z"/>
<path style="fill:#8E9ED1;" d="M1580.403,793.713c-1.286,0-2.533-0.268-3.668-0.947c-1.939-1.162-2.87-3.172-3.586-4.963
	c-1.725-4.302-3.069-8.792-3.995-13.352c-0.156-0.794-0.365-1.618-0.57-2.458c-1.175-4.707-2.772-11.155,4.058-13.995
	c10.305-4.288,21.418-6.248,32.166-8.146l1.369-0.241c12.862-2.273,25.91-3.564,36.74-3.633l1.457-0.024
	c4.424-0.083,11.113-0.234,14.099,3.328c1.384,1.652,1.895,3.742,2.309,5.423l3.318,13.574c0.799,3.269,0.034,5.615-2.47,7.605
	c-6.958,5.53-16.117,8.339-24.482,7.513c-3.362-0.331-6.66-1.072-9.851-1.788c-2.563-0.577-5.213-1.176-7.824-1.535
	c-7.815-1.069-13.55,1.24-19.742,5.055l-1.769,1.096c-2.938,1.834-5.978,3.735-9.276,5.148
	C1586.284,792.407,1583.253,793.713,1580.403,793.713z M1642.936,749.406c-10.641,0.066-23.483,1.338-36.161,3.579l-1.374,0.244
	c-10.562,1.863-21.486,3.793-31.449,7.934c-3.703,1.54-3.444,4.365-2.046,10.005c0.219,0.887,0.439,1.761,0.609,2.606
	c0.881,4.353,2.163,8.645,3.81,12.755c0.512,1.271,1.145,2.682,2.168,3.296c2.139,1.281,5.988-0.375,8.536-1.469
	c3.362-1.445,6.29-3.272,9.121-5.038l1.783-1.108c5.9-3.635,12.638-6.833,22.007-5.53c2.753,0.378,5.476,0.992,8.112,1.584
	c3.089,0.694,6.28,1.415,9.427,1.725c7.522,0.731,15.742-1.798,22.022-6.787c1.457-1.16,1.754-2.122,1.267-4.11l-3.318-13.571
	c-0.356-1.474-0.731-2.999-1.603-4.037c-1.929-2.307-7.859-2.187-11.401-2.104L1642.936,749.406z"/>
<path style="fill:#F0F6FD;" d="M1602.707,798.407c-0.497,0-0.969-0.287-1.179-0.775c-0.283-0.652,0.019-1.408,0.672-1.688
	c10.037-4.334,21.106-6.349,32.044-5.844c0.711,0.034,1.257,0.633,1.223,1.345c-0.029,0.711-0.667,1.286-1.34,1.223
	c-10.558-0.509-21.228,1.457-30.913,5.635L1602.707,798.407z"/>
<path style="fill:#F0F6FD;" d="M1612.135,809.898c-4.103,0-8.424-0.39-12.96-1.171c-0.696-0.122-1.164-0.787-1.048-1.486
	c0.122-0.696,0.765-1.149,1.486-1.047c17.276,2.989,31.269,0.073,41.583-8.653c0.545-0.453,1.354-0.392,1.812,0.151
	c0.458,0.543,0.39,1.354-0.151,1.812C1634.673,806.422,1624.374,809.898,1612.135,809.898z"/>
<path style="fill:#8E9ED1;" d="M1662.108,761.74l-2.577-6.351c4.969-2.015,15.854-5.688,20.769-7.184l1.993,6.555
	C1677.606,756.188,1666.828,759.825,1662.108,761.74z"/>
<path style="fill:#8E9ED1;" d="M1558.479,774.549v-6.852c2.436,0,7.503,0,10.465-0.341l0.78,6.811
	C1566.371,774.549,1561.236,774.549,1558.479,774.549z"/>
<path style="fill:#B8CDEC;" d="M1645.645,1199.173c-16.414,0-32.828-0.492-49.208-1.498c-8.093-0.499-16.175-1.123-24.249-1.883
	c-3.912-0.368-18.149-0.962-21.038-1.981c-0.575-0.202-1.086-0.714-1.091-1.323c-0.029-3.325,1.413-7.332,2.002-10.641
	c0.672-3.807,1.321-7.622,1.759-11.466l0.326-0.755l0.682-0.058c28.984,4.507,57.754,5.384,87.059,5.493
	c29.622,0.112,59.279-1.344,88.716-4.658c11.103-1.25,22.177-2.757,33.198-4.609c5.589-0.94,11.167-1.969,16.721-3.096
	c3.932-0.799,7.664-1.966,11.508-3.048c2.217-0.624,1.9,1.506,2.143,3.045c0.526,3.301,1.184,6.58,1.807,9.861
	c0.322,1.703,0.634,3.406,0.926,5.113c0.199,1.182,0.896,3.038,0.74,4.205c-0.122,0.909-1.13,1.371-1.998,1.671
	c-4.731,1.627-9.544,2.521-14.465,3.483c-7.357,1.435-14.738,2.714-22.144,3.858c-15.551,2.402-31.191,4.212-46.869,5.532
	C1690.049,1198.282,1667.842,1199.173,1645.645,1199.173z"/>
<path style="fill:#B8CDEC;" d="M1754.511,914.389c-59.624,15.454-120.379,19.464-179.116,19.464
	c-17.237,0-34.266-0.343-51.059-0.857c-0.171-3.427-0.205-6.853-0.171-10.28c73.403,2.193,151.741,1.44,227.779-18.299
	L1754.511,914.389z"/>
<path style="fill:#524743;" d="M1825.692,1110.977c-55.644,0-106.674-54.112-119.672-105.229
	c-6.076-23.876-10.275-44.083-11.035-65.086c-0.784-21.666-0.526-44.728,7.834-65.091c3.888-9.479,9.724-18.116,17.695-24.628
	c4.857-3.968,10.528-7.167,16.512-9.072c3.025-0.964,6.197-1.595,9.383-1.571c3.094,0.022,6.256,0.237,9.194,1.279
	c3.03,1.075,4.882,3.172,6.797,5.667c0.94,1.23,1.788,2.536,2.548,3.888c0.482,0.85,1.296,3.712,2.061,4.175
	c-5.491-3.345-14.032-4.694-17.617-4.848c-5.774-0.251-11.313,1.354-16.239,4.256c-8.375,4.931-14.831,12.29-19.137,20.962
	c-9.73,19.615-9.525,43.254-8.755,64.611c0.726,20.095,4.808,39.688,10.718,62.925c12.141,47.732,59.6,98.291,110.908,97.47
	c2.884,0.058,2.87,2.377,2.918,5.216c0.044,2.84,0.083,5.02-2.752,5.067C1826.598,1110.972,1826.14,1110.977,1825.692,1110.977z"/>
<path style="fill:#524743;" d="M1827.67,1110.533c0.687,2.463,2.124,4.704,4.453,6.399c7.542,5.488,19.162,3.371,23.254-5.354
	c4.867-10.385-3.79-22.753-15.376-20.923C1831.232,1092.042,1825.424,1102.47,1827.67,1110.533z"/>
<path style="fill:#8E9ED1;" d="M1745.668,1472.922c-35.668,0.002-72.17-11.515-104.467-33.571
	c-41.461-28.314-70.479-67.848-94.089-128.182c-11.342-28.982-20.931-59.251-30.207-88.525
	c-3.995-12.616-8.127-25.661-12.336-38.399c-1.632-4.933-3.298-10.45-5.081-16.328c-7.43-24.531-16.672-55.06-32.692-75.318
	c-15.488-19.581-34.411-21.442-61.515-22.051c-1.895-0.044-3.396-1.61-3.352-3.503s1.549-3.54,3.503-3.35
	c28.16,0.631,49.427,2.77,66.738,24.653c16.828,21.277,26.28,52.497,33.88,77.58c1.759,5.82,3.41,11.281,5.028,16.166
	c4.219,12.779,8.361,25.846,12.365,38.482c9.238,29.167,18.792,59.325,30.051,88.097c23.079,58.971,51.317,97.527,91.575,125.02
	c43.322,29.588,94.406,39.508,140.15,27.225c58.445-15.695,73.212-79.312,76.813-115.835c7.64-77.451-8.862-163.394-23.425-239.223
	c-0.356-1.859,0.862-3.654,2.719-4.01c1.866-0.348,3.654,0.86,4.015,2.719c14.645,76.284,31.245,162.747,23.513,241.187
	c-3.776,38.287-19.43,105.017-81.86,121.782C1773.556,1471.146,1759.676,1472.922,1745.668,1472.922z"/>
<path style="fill:#524743;" d="M1541.875,1044.602c-1.072-3.496-1.997-7.038-2.241-10.675c-0.356-5.389,1.915-11.761,2.762-17.118
	c1.038-6.57,1.934-13.162,2.69-19.773c1.486-13.052,2.422-26.17,2.816-39.3c0.487-16.173,0.146-32.368-1.033-48.504
	c-0.585-8.041-1.379-16.065-2.382-24.065c-0.502-3.988-1.053-7.968-1.661-11.942c-0.356-2.336-2.339-6.719,0.297-8.115
	c2.222-1.179,4.449-2.355,6.675-3.535l1.043-0.314c1.715,0.176,3.128,17.113,3.42,19.337c0.935,7.026,1.705,14.07,2.319,21.13
	c1.223,14.01,1.822,28.07,1.813,42.131c-0.01,16.436-0.848,32.875-2.538,49.225c-0.848,8.258-1.92,16.495-3.201,24.696
	c-1.164,7.43-1.637,16.253-4.521,23.228c-1.058,2.565-2.758,4.894-4.838,6.726l-0.287,0.117l-0.18-0.243
	C1542.508,1046.609,1542.186,1045.608,1541.875,1044.602z"/>
<path style="fill:#647EBE;" d="M1394.276,1054.607l-0.215,1.169l1.013,0.758c3.333,1.366,6.855,2.631,9.364,5.21
	c1.632,1.671,2.757,4.217,1.774,6.333c-0.419,0.897-1.155,1.594-1.881,2.268c-2.719,2.543-10.27,7.135-8.122,11.785
	c0.297,0.651,3.454,3.501,4.229,2.585c-1.515,1.791-1.53,4.67-0.039,6.48c1.106,1.343,2.972,2.03,4.619,2.346
	c-0.439,1.657-0.161,3.903,1.681,4.675c1.735,0.728,3.713,0.156,5.505-0.422c4.088-1.318,8.175-2.636,12.263-3.956
	c6.943-2.241,13.89-4.48,20.838-6.721c1.374-0.443,2.914-1.03,3.459-2.372c1.481-3.64,0.468-10.499,0.492-14.346
	c0.034-5.574-0.014-11.147-0.146-16.721c-0.01-0.546-0.044-1.14-0.4-1.552c-0.453-0.519-1.228-0.551-1.915-0.543
	c-8.302,0.083-16.531,0.704-24.599-0.991c-8.785-1.847-20.307-3.196-27.411,3.434L1394.276,1054.607z"/>
<path style="fill:#ECF2F6;" d="M1779.534,899.593c-2.972,14.609-9.233,29.435-13.593,39.912
	c-11.523,27.683-28.156,52.849-46.007,76.81c-15.766,21.164-34.996,43.837-57.676,57.932
	c-19.294,11.985-42.509,16.382-64.803,18.492c-44.102,4.173-88.53,3.449-132.788,1.513c-4.478-0.197-9.165-0.468-13.004-2.782
	c-10.577-6.38-8.263-38.041-4.458-47.464c43.444-0.382,86.878-2.434,130.167-6.144c16.049-1.374,32.418-3.074,47.658-8.604
	c17.072-6.197,21.837-14.745,30.718-29.69c7.869-13.267,15.347-27.337,22.607-41.578c14.519-28.574,28.097-57.963,41.666-87.746
	c7.508-16.489,26.967-23.768,43.454-16.256C1781.721,862.297,1783.363,880.762,1779.534,899.593z"/>
<path style="fill:#524743;" d="M1150.517,1058.514c-0.536-0.624-1.525-1.332-2.348-0.923c-0.536,0.268-0.555,0.838-0.521,1.318
	c0.502,6.561,0.297,13.501,0.541,20.207c0.088,2.449,0.132,4.816,0.37,7.27c0.059,0.572,0.253,1.296,0.829,1.347l0.707-0.256
	c2.134-1.491,10.211-12.197,12.808-15.315l-5.354-6.349C1155.389,1063.281,1152.67,1061.043,1150.517,1058.514z"/>
<path style="fill:#6CC3C1;" d="M784.673,962.622c-11.332-44.584-45.071-84.537-92.579-95.889
	c-63.127-15.086-134.065,26.592-153.202,96.016c-10.095,36.624-3.615,79.161,19.245,107.88
	c43.985,55.261,137.358,60.012,190.381,19.291C787.689,1059.837,795.674,1005.913,784.673,962.622z"/>
<path style="fill:#6CC3C1;" d="M690.565,834.297c-1.686-2.906-5.579-4.994-9.472-5.661c-8.726-1.496-52.16-7.001-48.881,11.698
	c0.511,2.938,3.367,4.85,6.124,5.988c7.406,3.057,15.668,3.048,23.678,2.965c6.129-0.063,12.326-0.151,18.251-1.705
	c3.133-0.819,6.261-2.112,8.477-4.47C691.836,839.825,691.997,836.765,690.565,834.297z"/>
<path style="fill:#6CC3C1;" d="M643.647,1136.682c-4.717,1.498-11.552,4.375-11.61,9.598c-0.034,2.59,2.119,4.417,4.131,5.525
	c8.896,4.901,20.901,5.578,30.558,4.346c7.162-0.913,13.642-1.589,20.166-5.623c6.845-4.231,5.535-11.686-1.135-14.628
	c-5.998-2.646-12.624-2.597-19.069-2.417c-6.772,0.19-13.632,0.524-20.258,2.378C645.683,1136.07,644.719,1136.341,643.647,1136.682
	z"/>
<path style="fill:#6CC3C1;" d="M661.03,877.33h-0.058c-2.348-0.034-4.219-1.961-4.185-4.304l0.434-30.283
	c0.034-2.341,2.036-4.153,4.306-4.182c2.344,0.036,4.215,1.963,4.18,4.304l-0.433,30.283
	C665.24,875.468,663.349,877.33,661.03,877.33z"/>
<path style="fill:#6CC3C1;" d="M661.03,1141.617h-0.058c-2.348-0.034-4.219-1.961-4.185-4.304l0.434-30.282
	c0.034-2.344,2.036-4.171,4.306-4.183c2.344,0.034,4.215,1.961,4.18,4.305l-0.433,30.282
	C665.24,1139.756,663.349,1141.617,661.03,1141.617z"/>
<path style="fill:#6CC3C1;" d="M579.053,866.74c-3.206-0.853-7.376,0.407-10.563,2.658c-7.133,5.047-41.291,31.515-25.953,42.28
	c2.412,1.693,5.739,1.035,8.458-0.095c7.303-3.038,13.062-8.809,18.591-14.458c4.234-4.319,8.497-8.706,11.552-13.927
	c1.612-2.76,2.894-5.844,2.796-9.038C583.798,869.707,581.771,867.464,579.053,866.74z"/>
<path style="fill:#6CC3C1;" d="M757.628,1110.182c-2.056,3.973-4.584,10.185-1.286,13.562c1.637,1.676,4.18,1.469,6.178,0.889
	c8.823-2.553,16.935-9.795,22.319-16.76c3.995-5.165,7.708-9.737,9.301-16.49c1.671-7.081-3.937-11.011-10.08-8.628
	c-5.53,2.144-9.734,6.412-13.739,10.651c-4.21,4.451-8.385,9.05-11.435,14.472C758.54,1108.492,758.096,1109.278,757.628,1110.182z"
	/>
<path style="fill:#6CC3C1;" d="M585.825,918.995c-1.106,0-2.212-0.429-3.04-1.286l-21.105-21.72c-1.632-1.681-1.593-4.368,0.087-6
	c1.681-1.632,4.365-1.595,5.998,0.085l21.106,21.72c1.632,1.681,1.598,4.367-0.088,6
	C587.959,918.596,586.892,918.995,585.825,918.995z"/>
<path style="fill:#6CC3C1;" d="M768.63,1103.289c-1.106,0-2.212-0.432-3.045-1.287l-21.101-21.72
	c-1.637-1.681-1.598-4.368,0.083-6.002c1.681-1.63,4.37-1.593,6.002,0.088l21.106,21.717c1.632,1.683,1.593,4.37-0.088,6.002
	C770.763,1102.889,769.697,1103.289,768.63,1103.289z"/>
<path style="fill:#6CC3C1;" d="M755.582,859.074c2.796-0.741,6.426,0.356,9.203,2.316c6.217,4.397,35.975,27.461,22.611,36.84
	c-2.1,1.474-4.998,0.901-7.366-0.085c-6.363-2.646-11.381-7.674-16.2-12.594c-3.688-3.766-7.406-7.588-10.066-12.136
	c-1.403-2.405-2.519-5.091-2.436-7.873C751.446,861.661,753.215,859.705,755.582,859.074z"/>
<path style="fill:#6CC3C1;" d="M562.8,1108.149c1.583,4.005,3.323,10.375-0.712,14.557c-2.002,2.076-4.677,2.242-6.719,1.917
	c-9.004-1.422-16.526-8.058-21.193-14.806c-3.464-5.006-6.714-9.413-7.372-16.514c-0.692-7.45,5.88-12.585,12.063-10.938
	c5.559,1.484,9.384,5.481,12.999,9.476c3.795,4.197,7.537,8.56,9.953,13.993C562.093,1106.448,562.444,1107.238,562.8,1108.149z"/>
<path style="fill:#6CC3C1;" d="M746.549,908.408c-1.067,0-2.129-0.399-2.957-1.201c-1.681-1.632-1.72-4.319-0.083-6l21.105-21.72
	c1.632-1.681,4.321-1.718,5.998-0.085c1.681,1.632,1.72,4.319,0.088,6l-21.106,21.72
	C748.761,907.977,747.655,908.408,746.549,908.408z"/>
<path style="fill:#6CC3C1;" d="M551.672,1103.289c-1.067,0-2.134-0.4-2.958-1.201c-1.681-1.632-1.72-4.319-0.087-6.002
	l21.105-21.717c1.637-1.681,4.321-1.718,6.003-0.088c1.681,1.634,1.72,4.321,0.087,6.002l-21.11,21.72
	C553.884,1102.857,552.778,1103.289,551.672,1103.289z"/>
<path style="fill:#6CC3C1;" d="M816.055,961.041c3.532,1.681,6.066,5.557,6.874,9.437c1.818,8.697,8.507,51.98-14.207,48.714
	c-3.571-0.511-5.895-3.357-7.279-6.104c-3.713-7.379-3.698-15.613-3.601-23.595c0.078-6.104,0.185-12.282,2.07-18.19
	c0.999-3.121,2.568-6.236,5.432-8.448C809.336,959.772,813.053,959.616,816.055,961.041z"/>
<path style="fill:#6CC3C1;" d="M511.624,1005.131c-1.272,4.005-3.713,9.81-8.151,9.861c-2.198,0.024-3.747-1.8-4.692-3.513
	c-4.16-7.552-4.735-17.746-3.688-25.949c0.775-6.08,1.35-11.583,4.774-17.125c3.591-5.81,9.925-4.699,12.419,0.965
	c2.251,5.094,2.207,10.723,2.056,16.195c-0.161,5.751-0.443,11.576-2.022,17.203
	C512.145,1003.404,511.916,1004.222,511.624,1005.131z"/>
<path style="fill:#6CC3C1;" d="M776.464,994.719c-2.314,0-4.209-1.861-4.244-4.182c-0.034-2.344,1.842-4.271,4.185-4.305
	l30.28-0.433c2.373-0.059,4.273,1.839,4.307,4.182c0.034,2.344-1.841,4.27-4.185,4.305l-30.28,0.433H776.464z"/>
<path style="fill:#6CC3C1;" d="M512.179,994.719c-2.314,0-4.21-1.861-4.244-4.182c-0.034-2.344,1.837-4.271,4.185-4.305l30.28-0.433
	c2.387-0.059,4.273,1.839,4.302,4.182c0.034,2.344-1.836,4.27-4.18,4.305l-30.28,0.433H512.179z"/>
<path style="fill:#4EB7B5;" d="M611.296,906.192c-2.066,3.88-2.504,8.784-0.424,12.655c2.008,3.725,6.105,6.046,10.3,6.561
	c4.2,0.516,8.467-0.597,12.277-2.434c3.912-1.886,7.508-4.604,9.876-8.246c2.368-3.641,3.391-8.27,2.188-12.441
	c-1.481-5.14-6.28-8.994-11.551-9.925C624.597,890.708,615.501,898.289,611.296,906.192z"/>
<path style="fill:#4EB7B5;" d="M608.017,1006.627c-3.518,0.202-7.065,1.944-8.848,4.984c-1.72,2.926-1.603,6.701-0.204,9.793
	c1.393,3.094,3.937,5.554,6.782,7.401c2.923,1.895,6.285,3.23,9.768,3.335c3.479,0.102,7.079-1.123,9.437-3.685
	c2.904-3.158,3.547-8.054,1.988-12.051C624.173,1009.292,615.189,1006.217,608.017,1006.627z"/>
<path style="fill:#4EB7B5;" d="M700.518,915.341c0.087,2.765,0.594,5.734,2.577,7.664c1.154,1.125,2.694,1.771,4.253,2.178
	c5.671,1.484,12.282-0.231,15.869-4.867c7.474-9.659-4.4-23.805-15.362-19.233C702.36,903.373,700.343,909.807,700.518,915.341z"/>
<path style="fill:#4EB7B5;" d="M687.71,1061.664c0.136,4.175,0.902,8.667,3.893,11.583c1.749,1.7,4.077,2.677,6.436,3.293
	c8.57,2.239,18.563-0.353,23.985-7.359c11.289-14.599-6.655-35.98-23.225-29.071C690.496,1043.574,687.447,1053.296,687.71,1061.664
	z"/>
<path style="fill:#4EB7B5;" d="M551.686,980.417c0.117,3.693,0.794,7.664,3.44,10.244c1.545,1.503,3.605,2.365,5.69,2.911
	c7.581,1.98,16.414-0.312,21.208-6.509c9.987-12.906-5.885-31.815-20.536-25.705C554.147,964.42,551.453,973.017,551.686,980.417z"
	/>
<path style="fill:#4EB7B5;" d="M645.727,971.74c-0.545,7.81,4.658,15.362,11.698,18.782c7.04,3.42,15.508,3.096,22.85,0.37
	c11.171-4.148,16.828-19.181,13.242-30.47c-3.537-11.152-18.144-18.136-29.13-14.993C652.938,948.7,646.512,960.483,645.727,971.74z
	"/>
<path style="fill:#4EB7B5;" d="M730.603,991.664c-0.355,5.104,3.04,10.037,7.64,12.273c4.604,2.234,10.134,2.022,14.933,0.241
	c7.298-2.711,10.996-12.533,8.652-19.909c-2.314-7.286-11.858-11.849-19.035-9.798C735.315,976.61,731.115,984.31,730.603,991.664z"
	/>
<path style="fill:#4EB7B5;" d="M606.482,1077.432c-0.39,5.596,3.338,11.004,8.38,13.452c5.043,2.451,11.109,2.22,16.365,0.265
	c8-2.972,12.048-13.737,9.486-21.822c-2.538-7.985-12.999-12.989-20.867-10.738C611.647,1060.933,607.043,1069.372,606.482,1077.432
	z"/>
<path style="fill:#58BBBA;" d="M748.522,1089.915c-53.012,40.74-146.4,35.988-190.39-19.293c-6.592-8.29-11.8-17.766-15.649-27.865
	c16.638,16.238,42.128,27.3,64.277,32.365c3.508,0.818,6.904,1.471,10.187,1.951c8.034,1.215,16.151,1.442,24.244,0.765
	c16.126-1.33,32.082-6.112,46.737-13.325c10.353-5.121,20.029-11.459,28.628-18.672c0.677-0.565,1.33-1.132,1.978-1.698
	c12.307-10.863,21.559-24.102,27.785-38.616c4.015-9.394,6.787-19.267,8.317-29.393c4.668-30.358-1.783-62.665-18.757-88.523
	c24.272,18.504,41.359,45.775,48.798,75.027C795.684,1005.921,787.68,1059.842,748.522,1089.915z"/>
<path style="fill:#38B0B1;" d="M722.018,1069.179c-5.403,7.016-15.42,9.591-23.99,7.355c-2.348-0.621-4.672-1.583-6.426-3.282
	c-2.319-2.263-3.308-5.459-3.674-8.74c10.353-5.121,20.029-11.459,28.628-18.672c0.677-0.565,1.33-1.132,1.978-1.698
	C725.409,1050.365,728.44,1060.862,722.018,1069.179z"/>
<path style="fill:#38B0B1;" d="M753.166,1004.167c-2.178,0.794-4.526,1.303-6.845,1.359c4.015-9.394,6.787-19.267,8.317-29.393
	c3.338,1.81,6.081,4.667,7.187,8.146C764.172,991.636,760.464,1001.479,753.166,1004.167z"/>
<path style="fill:#38B0B1;" d="M641.191,1077.837c-1.018,5.827-4.585,11.315-9.958,13.323c-5.262,1.954-11.318,2.18-16.38-0.282
	c-5.038-2.431-8.77-7.864-8.375-13.437c0.058-0.765,0.141-1.557,0.282-2.319c3.508,0.818,6.904,1.471,10.187,1.951
	C624.982,1078.287,633.099,1078.514,641.191,1077.837z"/>
<path style="fill:#6CC3C1;" d="M1034.927,718.846c-7.06-27.761-28.068-52.637-57.651-59.707
	c-39.308-9.396-83.478,16.557-95.395,59.788c-6.285,22.804-2.251,49.29,11.985,67.173c27.386,34.409,85.529,37.369,118.547,12.012
	C1036.802,779.381,1041.777,745.804,1034.927,718.846z"/>
<path style="fill:#6CC3C1;" d="M976.326,638.942c-1.053-1.81-3.474-3.111-5.9-3.525c-5.433-0.933-32.477-4.36-30.436,7.284
	c0.321,1.829,2.095,3.02,3.815,3.727c4.609,1.905,9.754,1.898,14.743,1.846c3.815-0.039,7.674-0.095,11.366-1.062
	c1.949-0.509,3.898-1.316,5.276-2.782C977.115,642.384,977.217,640.477,976.326,638.942z"/>
<path style="fill:#6CC3C1;" d="M947.108,827.23c-2.933,0.933-7.191,2.724-7.23,5.975c-0.014,1.613,1.321,2.75,2.577,3.442
	c5.54,3.05,13.013,3.473,19.026,2.704c4.463-0.567,8.492-0.989,12.56-3.5c4.258-2.633,3.444-7.276-0.711-9.108
	c-3.732-1.647-7.859-1.617-11.873-1.506c-4.219,0.12-8.487,0.327-12.614,1.481C948.375,826.85,947.775,827.018,947.108,827.23z"/>
<path style="fill:#6CC3C1;" d="M957.934,665.736h-0.04c-1.457-0.02-2.621-1.22-2.601-2.68l0.268-18.855
	c0.02-1.459,1.271-2.587,2.68-2.604c1.461,0.022,2.626,1.22,2.606,2.68l-0.268,18.855
	C960.555,664.579,959.376,665.736,957.934,665.736z"/>
<path style="fill:#6CC3C1;" d="M957.934,830.302h-0.04c-1.457-0.022-2.621-1.22-2.601-2.68l0.268-18.855
	c0.02-1.459,1.271-2.597,2.68-2.607c1.461,0.022,2.626,1.223,2.606,2.682l-0.268,18.855
	C960.555,829.145,959.376,830.302,957.934,830.302z"/>
<path style="fill:#6CC3C1;" d="M906.889,659.142c-1.998-0.529-4.594,0.253-6.578,1.656c-4.443,3.143-25.71,19.625-16.16,26.327
	c1.501,1.055,3.571,0.645,5.267-0.059c4.545-1.89,8.131-5.486,11.576-9.004c2.636-2.689,5.291-5.42,7.191-8.672
	c1.003-1.718,1.802-3.637,1.744-5.628C909.842,660.991,908.584,659.592,906.889,659.142z"/>
<path style="fill:#6CC3C1;" d="M1018.084,810.728c-1.281,2.475-2.855,6.344-0.799,8.446c1.018,1.043,2.602,0.914,3.844,0.553
	c5.496-1.591,10.543-6.1,13.9-10.436c2.484-3.216,4.799-6.064,5.788-10.268c1.043-4.409-2.446-6.855-6.275-5.372
	c-3.444,1.335-6.061,3.993-8.555,6.631c-2.621,2.772-5.218,5.635-7.118,9.011C1018.654,809.676,1018.377,810.166,1018.084,810.728z"
	/>
<path style="fill:#6CC3C1;" d="M911.108,691.682c-0.692,0-1.379-0.268-1.895-0.801l-13.145-13.525
	c-1.014-1.045-0.989-2.719,0.053-3.737c1.048-1.016,2.724-0.991,3.737,0.054l13.145,13.525c1.018,1.048,0.994,2.721-0.054,3.737
	C912.433,691.433,911.771,691.682,911.108,691.682z"/>
<path style="fill:#6CC3C1;" d="M1024.934,806.436c-0.687,0-1.378-0.268-1.895-0.802l-13.14-13.522
	c-1.018-1.048-0.994-2.721,0.053-3.737c1.048-1.016,2.719-0.994,3.737,0.053l13.14,13.523c1.018,1.047,0.994,2.721-0.053,3.737
	C1026.264,806.188,1025.597,806.436,1024.934,806.436z"/>
<path style="fill:#6CC3C1;" d="M1016.813,654.369c1.739-0.461,4,0.222,5.729,1.442c3.869,2.738,22.397,17.098,14.08,22.94
	c-1.311,0.916-3.113,0.56-4.589-0.053c-3.961-1.647-7.084-4.777-10.09-7.842c-2.294-2.343-4.609-4.726-6.265-7.556
	c-0.872-1.498-1.569-3.172-1.515-4.904C1014.235,655.98,1015.336,654.761,1016.813,654.369z"/>
<path style="fill:#6CC3C1;" d="M896.77,809.461c0.984,2.495,2.065,6.463-0.444,9.067c-1.247,1.291-2.914,1.393-4.185,1.194
	c-5.603-0.887-10.29-5.018-13.199-9.221c-2.153-3.118-4.175-5.861-4.589-10.282c-0.429-4.638,3.664-7.837,7.513-6.811
	c3.459,0.923,5.842,3.412,8.093,5.9c2.368,2.614,4.692,5.332,6.197,8.714C896.326,808.404,896.546,808.894,896.77,809.461z"/>
<path style="fill:#6CC3C1;" d="M1011.185,685.088c-0.663,0-1.325-0.249-1.842-0.748c-1.047-1.016-1.072-2.689-0.053-3.734
	l13.145-13.525c1.018-1.045,2.689-1.07,3.737-0.054c1.047,1.016,1.072,2.69,0.053,3.737l-13.145,13.525
	C1012.564,684.82,1011.877,685.088,1011.185,685.088z"/>
<path style="fill:#6CC3C1;" d="M889.837,806.436c-0.662,0-1.325-0.248-1.841-0.748c-1.043-1.016-1.067-2.69-0.053-3.737
	l13.144-13.523c1.018-1.047,2.69-1.069,3.737-0.053c1.048,1.016,1.072,2.689,0.054,3.737l-13.145,13.522
	C891.216,806.168,890.529,806.436,889.837,806.436z"/>
<path style="fill:#6CC3C1;" d="M1054.464,717.862c2.197,1.047,3.776,3.459,4.282,5.876c1.13,5.416,5.296,32.368-8.848,30.334
	c-2.226-0.319-3.668-2.09-4.531-3.8c-2.309-4.597-2.304-9.723-2.241-14.694c0.049-3.801,0.112-7.647,1.286-11.326
	c0.624-1.944,1.598-3.883,3.386-5.261C1050.284,717.073,1052.598,716.975,1054.464,717.862z"/>
<path style="fill:#6CC3C1;" d="M864.902,745.316c-0.789,2.495-2.314,6.109-5.072,6.141c-1.369,0.014-2.339-1.123-2.923-2.188
	c-2.592-4.704-2.952-11.052-2.3-16.158c0.482-3.788,0.843-7.213,2.972-10.663c2.241-3.62,6.183-2.925,7.737,0.599
	c1.398,3.172,1.374,6.677,1.277,10.085c-0.098,3.581-0.273,7.208-1.257,10.711C865.228,744.239,865.082,744.748,864.902,745.316z"/>
<path style="fill:#6CC3C1;" d="M1029.811,738.831c-1.442,0-2.621-1.157-2.641-2.604c-0.019-1.459,1.145-2.658,2.606-2.68
	l18.855-0.27c1.476-0.034,2.66,1.145,2.68,2.604c0.02,1.459-1.144,2.66-2.606,2.682l-18.855,0.268H1029.811z"/>
<path style="fill:#6CC3C1;" d="M865.247,738.831c-1.442,0-2.621-1.157-2.641-2.604c-0.024-1.459,1.145-2.658,2.602-2.68l18.855-0.27
	c1.491-0.034,2.66,1.145,2.685,2.604c0.019,1.459-1.15,2.66-2.607,2.682l-18.855,0.268H865.247z"/>
<path style="fill:#4EB7B5;" d="M926.967,683.709c-1.286,2.417-1.559,5.469-0.263,7.881c1.247,2.319,3.8,3.764,6.411,4.085
	c2.617,0.319,5.272-0.373,7.645-1.515c2.436-1.174,4.677-2.87,6.148-5.135c1.476-2.268,2.114-5.15,1.364-7.746
	c-0.925-3.201-3.912-5.601-7.191-6.18C935.249,674.067,929.583,678.788,926.967,683.709z"/>
<path style="fill:#4EB7B5;" d="M924.925,746.247c-2.192,0.127-4.399,1.211-5.51,3.104c-1.072,1.822-0.998,4.173-0.126,6.1
	c0.867,1.924,2.451,3.456,4.224,4.606c1.818,1.181,3.912,2.012,6.081,2.076c2.168,0.066,4.409-0.697,5.875-2.294
	c1.807-1.966,2.207-5.013,1.242-7.503C934.986,747.908,929.388,745.994,924.925,746.247z"/>
<path style="fill:#4EB7B5;" d="M982.523,689.407c0.053,1.72,0.37,3.571,1.603,4.772c0.721,0.7,1.681,1.101,2.65,1.357
	c3.532,0.921,7.649-0.146,9.881-3.033c4.653-6.015-2.738-14.821-9.564-11.976C983.668,681.955,982.416,685.96,982.523,689.407z"/>
<path style="fill:#4EB7B5;" d="M974.547,780.519c0.083,2.599,0.56,5.396,2.427,7.213c1.086,1.057,2.538,1.666,4.005,2.049
	c5.335,1.396,11.562-0.219,14.933-4.582c7.035-9.089-4.141-22.405-14.461-18.103C976.282,769.253,974.382,775.308,974.547,780.519z"
	/>
<path style="fill:#4EB7B5;" d="M889.847,729.927c0.073,2.3,0.497,4.773,2.144,6.378c0.96,0.935,2.246,1.474,3.542,1.812
	c4.721,1.235,10.222-0.192,13.208-4.051c6.217-8.039-3.664-19.812-12.789-16.007C891.381,719.967,889.701,725.319,889.847,729.927z"
	/>
<path style="fill:#4EB7B5;" d="M948.404,724.524c-0.336,4.862,2.899,9.566,7.284,11.696c4.385,2.129,9.661,1.927,14.231,0.232
	c6.957-2.585,10.475-11.944,8.243-18.975c-2.202-6.943-11.298-11.293-18.138-9.337C952.896,710.179,948.891,717.516,948.404,724.524
	z"/>
<path style="fill:#4EB7B5;" d="M1001.256,736.931c-0.224,3.177,1.895,6.249,4.76,7.642c2.865,1.391,6.31,1.259,9.296,0.151
	c4.546-1.688,6.845-7.805,5.389-12.397c-1.442-4.539-7.386-7.379-11.854-6.102C1004.189,727.557,1001.573,732.352,1001.256,736.931z
	"/>
<path style="fill:#4EB7B5;" d="M923.97,790.336c-0.244,3.484,2.075,6.853,5.214,8.378c3.142,1.525,6.918,1.381,10.192,0.166
	c4.984-1.851,7.503-8.555,5.905-13.588c-1.578-4.975-8.093-8.088-12.989-6.689C927.186,780.064,924.317,785.318,923.97,790.336z"/>
<path style="fill:#58BBBA;" d="M1012.418,798.11c-33.013,25.366-91.166,22.407-118.556-12.015
	c-4.107-5.162-7.347-11.062-9.744-17.352c10.358,10.112,26.231,17.001,40.024,20.154c2.188,0.511,4.297,0.916,6.344,1.215
	c5.003,0.758,10.056,0.899,15.099,0.475c10.041-0.828,19.975-3.805,29.101-8.297c6.446-3.188,12.472-7.132,17.827-11.624
	l1.233-1.057c7.664-6.765,13.422-15.008,17.301-24.047c2.499-5.849,4.224-11.997,5.179-18.304
	c2.904-18.901-1.111-39.018-11.683-55.12c15.118,11.523,25.754,28.504,30.388,46.719
	C1041.782,745.808,1036.798,779.384,1012.418,798.11z"/>
<path style="fill:#38B0B1;" d="M995.912,785.197c-3.367,4.37-9.603,5.973-14.938,4.582c-1.466-0.387-2.909-0.986-4-2.044
	c-1.447-1.411-2.061-3.401-2.29-5.445c6.446-3.188,12.472-7.132,17.827-11.624l1.233-1.057
	C998.021,773.484,999.906,780.018,995.912,785.197z"/>
<path style="fill:#38B0B1;" d="M1015.307,744.717c-1.359,0.492-2.821,0.809-4.263,0.845c2.499-5.849,4.224-11.997,5.179-18.304
	c2.076,1.128,3.786,2.909,4.473,5.074C1022.157,736.912,1019.848,743.043,1015.307,744.717z"/>
<path style="fill:#38B0B1;" d="M945.583,790.587c-0.639,3.63-2.855,7.047-6.202,8.297c-3.279,1.216-7.045,1.357-10.202-0.175
	c-3.133-1.515-5.461-4.897-5.213-8.368c0.034-0.475,0.087-0.969,0.175-1.444c2.188,0.511,4.297,0.916,6.344,1.215
	C935.488,790.87,940.54,791.011,945.583,790.587z"/>
<path style="fill:#6CC3C1;" d="M585.601,643.305c-7.06-27.763-28.068-52.64-57.651-59.709
	c-39.308-9.393-83.478,16.557-95.395,59.788c-6.285,22.804-2.251,49.293,11.986,67.173c27.386,34.409,85.529,37.369,118.547,12.012
	C587.477,703.838,592.451,670.26,585.601,643.305z"/>
<path style="fill:#6CC3C1;" d="M527,563.398c-1.052-1.81-3.474-3.108-5.9-3.525c-5.432-0.933-32.477-4.36-30.436,7.284
	c0.321,1.829,2.095,3.02,3.815,3.729c4.609,1.903,9.754,1.898,14.743,1.844c3.815-0.039,7.674-0.095,11.366-1.06
	c1.949-0.511,3.898-1.315,5.277-2.784C527.794,566.84,527.891,564.936,527,563.398z"/>
<path style="fill:#6CC3C1;" d="M497.782,751.687c-2.933,0.933-7.192,2.723-7.23,5.975c-0.014,1.613,1.321,2.75,2.577,3.442
	c5.54,3.05,13.013,3.474,19.025,2.706c4.463-0.57,8.497-0.989,12.56-3.503c4.258-2.633,3.444-7.274-0.706-9.106
	c-3.737-1.649-7.864-1.62-11.878-1.506c-4.214,0.117-8.487,0.324-12.614,1.479C499.053,751.306,498.449,751.474,497.782,751.687z"/>
<path style="fill:#6CC3C1;" d="M508.608,590.194h-0.034c-1.461-0.022-2.626-1.223-2.606-2.682l0.268-18.855
	c0.024-1.459,1.272-2.587,2.68-2.604c1.462,0.022,2.626,1.22,2.607,2.68l-0.268,18.855
	C511.229,589.035,510.05,590.194,508.608,590.194z"/>
<path style="fill:#6CC3C1;" d="M508.608,754.761h-0.034c-1.461-0.022-2.626-1.223-2.606-2.682l0.268-18.855
	c0.024-1.459,1.272-2.597,2.68-2.604c1.462,0.019,2.626,1.22,2.607,2.68l-0.268,18.855
	C511.229,753.601,510.05,754.761,508.608,754.761z"/>
<path style="fill:#6CC3C1;" d="M457.563,583.6c-1.998-0.531-4.594,0.253-6.577,1.654c-4.444,3.143-25.71,19.625-16.161,26.326
	c1.501,1.055,3.571,0.646,5.267-0.059c4.545-1.89,8.132-5.483,11.576-9.001c2.636-2.692,5.291-5.423,7.191-8.674
	c1.008-1.718,1.802-3.637,1.744-5.628C460.52,585.447,459.259,584.051,457.563,583.6z"/>
<path style="fill:#6CC3C1;" d="M568.758,735.187c-1.276,2.473-2.855,6.341-0.799,8.443c1.018,1.043,2.601,0.916,3.848,0.556
	c5.491-1.591,10.538-6.103,13.895-10.438c2.485-3.216,4.799-6.064,5.788-10.268c1.042-4.409-2.446-6.855-6.276-5.372
	c-3.439,1.335-6.061,3.993-8.555,6.631c-2.621,2.772-5.218,5.637-7.118,9.013C569.328,734.132,569.05,734.624,568.758,735.187z"/>
<path style="fill:#6CC3C1;" d="M461.782,616.138c-0.691,0-1.378-0.268-1.895-0.801l-13.139-13.523
	c-1.018-1.047-0.994-2.721,0.053-3.737c1.043-1.016,2.719-0.994,3.732,0.054l13.145,13.522c1.018,1.048,0.994,2.721-0.053,3.737
	C463.108,615.89,462.445,616.138,461.782,616.138z"/>
<path style="fill:#6CC3C1;" d="M575.608,730.892c-0.687,0-1.379-0.268-1.895-0.801l-13.14-13.523
	c-1.018-1.048-0.994-2.721,0.053-3.737c1.048-1.016,2.719-0.994,3.737,0.053l13.14,13.523c1.018,1.047,0.994,2.721-0.053,3.737
	C576.939,730.644,576.271,730.892,575.608,730.892z"/>
<path style="fill:#6CC3C1;" d="M567.486,578.825c1.74-0.46,4,0.222,5.73,1.445c3.868,2.735,22.402,17.098,14.08,22.937
	c-1.311,0.919-3.113,0.56-4.589-0.053c-3.961-1.647-7.084-4.777-10.085-7.842c-2.299-2.343-4.609-4.726-6.265-7.556
	c-0.877-1.496-1.574-3.17-1.52-4.904C564.909,580.438,566.01,579.22,567.486,578.825z"/>
<path style="fill:#6CC3C1;" d="M447.444,733.92c0.984,2.494,2.07,6.461-0.444,9.064c-1.247,1.291-2.913,1.396-4.185,1.194
	c-5.603-0.887-10.29-5.018-13.198-9.221c-2.154-3.116-4.175-5.861-4.59-10.282c-0.428-4.638,3.664-7.837,7.513-6.811
	c3.459,0.923,5.842,3.413,8.093,5.902c2.368,2.614,4.692,5.33,6.197,8.711C447,732.861,447.22,733.353,447.444,733.92z"/>
<path style="fill:#6CC3C1;" d="M561.859,609.544c-0.663,0-1.325-0.248-1.841-0.746c-1.043-1.018-1.067-2.689-0.054-3.737
	l13.145-13.525c1.018-1.045,2.689-1.07,3.737-0.054c1.048,1.018,1.072,2.69,0.054,3.737l-13.145,13.525
	C563.238,609.278,562.551,609.544,561.859,609.544z"/>
<path style="fill:#6CC3C1;" d="M440.516,730.892c-0.668,0-1.33-0.248-1.841-0.748c-1.048-1.016-1.072-2.689-0.053-3.737
	l13.14-13.523c1.018-1.047,2.69-1.069,3.737-0.053c1.047,1.016,1.072,2.689,0.053,3.737l-13.145,13.523
	C441.889,730.625,441.203,730.892,440.516,730.892z"/>
<path style="fill:#6CC3C1;" d="M605.138,642.318c2.197,1.048,3.776,3.461,4.283,5.878c1.13,5.415,5.296,32.365-8.848,30.331
	c-2.222-0.319-3.669-2.088-4.531-3.8c-2.309-4.594-2.304-9.722-2.241-14.692c0.049-3.803,0.117-7.649,1.291-11.328
	c0.619-1.944,1.598-3.883,3.382-5.259C600.958,641.529,603.272,641.432,605.138,642.318z"/>
<path style="fill:#6CC3C1;" d="M415.576,669.772c-0.789,2.495-2.309,6.11-5.072,6.141c-1.369,0.015-2.338-1.12-2.923-2.188
	c-2.592-4.704-2.952-11.052-2.3-16.158c0.487-3.786,0.843-7.211,2.977-10.662c2.237-3.62,6.178-2.926,7.732,0.599
	c1.398,3.174,1.374,6.677,1.277,10.085c-0.098,3.581-0.273,7.209-1.257,10.711C415.902,668.698,415.756,669.207,415.576,669.772z"/>
<path style="fill:#6CC3C1;" d="M580.485,663.29c-1.442,0-2.621-1.159-2.641-2.607c-0.02-1.456,1.145-2.658,2.607-2.68l18.855-0.27
	c1.476-0.034,2.66,1.148,2.68,2.607c0.02,1.459-1.145,2.658-2.602,2.68l-18.86,0.27H580.485z"/>
<path style="fill:#6CC3C1;" d="M415.921,663.29c-1.442,0-2.621-1.159-2.64-2.607c-0.02-1.456,1.144-2.658,2.601-2.68l18.86-0.27
	c1.486-0.034,2.655,1.148,2.68,2.607c0.02,1.459-1.149,2.658-2.606,2.68l-18.855,0.27H415.921z"/>
<path style="fill:#4EB7B5;" d="M477.641,608.165c-1.286,2.417-1.559,5.469-0.263,7.881c1.247,2.319,3.8,3.764,6.412,4.085
	c2.616,0.322,5.271-0.373,7.644-1.515c2.436-1.174,4.677-2.867,6.153-5.135c1.471-2.268,2.109-5.15,1.359-7.746
	c-0.926-3.201-3.912-5.601-7.192-6.18C485.923,598.523,480.257,603.245,477.641,608.165z"/>
<path style="fill:#4EB7B5;" d="M475.6,670.705c-2.193,0.124-4.4,1.211-5.51,3.104c-1.072,1.82-0.999,4.17-0.127,6.098
	c0.867,1.924,2.451,3.459,4.224,4.609c1.817,1.179,3.912,2.01,6.08,2.075c2.168,0.063,4.409-0.699,5.876-2.294
	c1.813-1.966,2.212-5.016,1.243-7.505C485.66,672.365,480.062,670.45,475.6,670.705z"/>
<path style="fill:#4EB7B5;" d="M533.197,613.863c0.053,1.72,0.37,3.571,1.603,4.772c0.721,0.699,1.681,1.104,2.65,1.357
	c3.532,0.923,7.649-0.146,9.881-3.033c4.653-6.012-2.738-14.821-9.564-11.976C534.347,606.411,533.09,610.416,533.197,613.863z"/>
<path style="fill:#4EB7B5;" d="M525.222,704.976c0.083,2.599,0.56,5.396,2.426,7.213c1.087,1.057,2.538,1.666,4.005,2.048
	c5.335,1.396,11.562-0.219,14.933-4.582c7.035-9.089-4.141-22.405-14.456-18.103C526.956,693.709,525.055,699.765,525.222,704.976z"
	/>
<path style="fill:#4EB7B5;" d="M440.521,654.384c0.073,2.299,0.497,4.772,2.144,6.377c0.965,0.938,2.246,1.474,3.542,1.815
	c4.721,1.233,10.222-0.195,13.208-4.054c6.217-8.036-3.664-19.81-12.784-16.007C442.055,644.423,440.374,649.777,440.521,654.384z"
	/>
<path style="fill:#4EB7B5;" d="M499.078,648.981c-0.336,4.863,2.899,9.566,7.284,11.696c4.39,2.129,9.661,1.929,14.231,0.232
	c6.957-2.585,10.48-11.944,8.248-18.975c-2.207-6.943-11.303-11.291-18.143-9.337C503.57,634.635,499.565,641.973,499.078,648.981z"
	/>
<path style="fill:#4EB7B5;" d="M551.93,661.388c-0.224,3.177,1.895,6.251,4.76,7.642c2.865,1.391,6.309,1.259,9.296,0.151
	c4.545-1.688,6.845-7.805,5.388-12.397c-1.442-4.539-7.386-7.379-11.853-6.102C554.863,652.014,552.246,656.808,551.93,661.388z"/>
<path style="fill:#4EB7B5;" d="M474.645,714.795c-0.244,3.481,2.075,6.85,5.218,8.375c3.137,1.525,6.913,1.381,10.187,0.166
	c4.985-1.851,7.503-8.556,5.905-13.589c-1.578-4.974-8.092-8.088-12.989-6.687C477.86,704.52,474.995,709.774,474.645,714.795z"/>
<path style="fill:#58BBBA;" d="M563.092,722.566c-33.013,25.366-91.166,22.409-118.557-12.014c-4.102-5.16-7.347-11.062-9.744-17.35
	c10.363,10.11,26.231,16.998,40.024,20.151c2.188,0.511,4.302,0.916,6.344,1.215c5.004,0.758,10.061,0.899,15.099,0.475
	c10.041-0.826,19.975-3.805,29.101-8.297c6.446-3.187,12.472-7.133,17.827-11.625l1.233-1.057
	c7.664-6.765,13.422-15.008,17.301-24.046c2.499-5.849,4.224-11.997,5.179-18.302c2.904-18.904-1.111-39.02-11.683-55.12
	c15.118,11.52,25.759,28.502,30.392,46.716C592.456,670.265,587.472,703.84,563.092,722.566z"/>
<path style="fill:#38B0B1;" d="M546.586,709.655c-3.367,4.368-9.603,5.97-14.938,4.579c-1.461-0.387-2.909-0.986-4-2.043
	c-1.447-1.41-2.061-3.401-2.29-5.445c6.446-3.187,12.472-7.133,17.827-11.625l1.233-1.057
	C548.7,697.94,550.585,704.476,546.586,709.655z"/>
<path style="fill:#38B0B1;" d="M565.981,669.173c-1.359,0.492-2.821,0.811-4.263,0.845c2.499-5.849,4.224-11.997,5.179-18.302
	c2.075,1.125,3.786,2.906,4.473,5.072C572.831,661.368,570.522,667.5,565.981,669.173z"/>
<path style="fill:#38B0B1;" d="M496.257,715.043c-0.634,3.63-2.855,7.047-6.202,8.297c-3.279,1.216-7.045,1.357-10.202-0.175
	c-3.133-1.515-5.456-4.897-5.213-8.368c0.034-0.475,0.088-0.969,0.175-1.444c2.188,0.511,4.302,0.916,6.344,1.215
	C486.162,715.326,491.219,715.467,496.257,715.043z"/>
<path style="fill:#6CC3C1;" d="M357.238,1013.414c-5.184-20.387-20.614-38.655-42.334-43.849
	c-28.867-6.896-61.305,12.161-70.06,43.907c-4.614,16.748-1.651,36.2,8.804,49.33c20.112,25.272,62.81,27.444,87.054,8.821
	C358.616,1057.869,362.266,1033.211,357.238,1013.414z"/>
<path style="fill:#6CC3C1;" d="M314.203,954.734c-0.77-1.33-2.548-2.282-4.331-2.59c-3.99-0.685-23.849-3.201-22.353,5.35
	c0.234,1.345,1.54,2.219,2.802,2.738c3.386,1.398,7.162,1.393,10.826,1.357c2.801-0.029,5.637-0.07,8.346-0.779
	c1.433-0.375,2.865-0.967,3.878-2.047C314.783,957.26,314.855,955.862,314.203,954.734z"/>
<path style="fill:#6CC3C1;" d="M292.746,1093.006c-2.153,0.687-5.281,2.003-5.306,4.39c-0.015,1.184,0.97,2.02,1.89,2.526
	c4.069,2.241,9.555,2.553,13.973,1.988c3.274-0.419,6.236-0.726,9.218-2.57c3.133-1.937,2.533-5.345-0.517-6.69
	c-2.743-1.21-5.773-1.189-8.721-1.105c-3.099,0.087-6.236,0.238-9.262,1.086C293.676,1092.729,293.238,1092.85,292.746,1093.006z"/>
<path style="fill:#6CC3C1;" d="M300.697,974.413h-0.029c-1.072-0.017-1.925-0.899-1.91-1.968l0.195-13.846
	c0.02-1.072,0.935-1.9,1.969-1.915c1.072,0.017,1.929,0.899,1.915,1.968l-0.2,13.846
	C302.622,973.56,301.755,974.413,300.697,974.413z"/>
<path style="fill:#6CC3C1;" d="M300.697,1095.265h-0.029c-1.072-0.018-1.925-0.897-1.91-1.969l0.195-13.849
	c0.02-1.069,0.935-1.905,1.969-1.912c1.072,0.017,1.929,0.897,1.915,1.969l-0.2,13.849
	C302.622,1094.414,301.755,1095.265,300.697,1095.265z"/>
<path style="fill:#6CC3C1;" d="M263.212,969.57c-1.467-0.39-3.377,0.185-4.828,1.216c-3.264,2.307-18.884,14.411-11.868,19.332
	c1.101,0.774,2.621,0.475,3.864-0.044c3.342-1.388,5.973-4.027,8.507-6.609c1.934-1.976,3.883-3.983,5.276-6.37
	c0.74-1.262,1.325-2.672,1.281-4.131C265.379,970.927,264.454,969.901,263.212,969.57z"/>
<path style="fill:#6CC3C1;" d="M344.872,1080.889c-0.94,1.818-2.1,4.658-0.589,6.202c0.745,0.765,1.91,0.672,2.826,0.406
	c4.034-1.169,7.741-4.479,10.202-7.664c1.827-2.363,3.527-4.453,4.253-7.542c0.765-3.238-1.798-5.033-4.609-3.944
	c-2.528,0.979-4.453,2.933-6.285,4.87c-1.924,2.036-3.829,4.139-5.228,6.619L344.872,1080.889z"/>
<path style="fill:#6CC3C1;" d="M266.31,993.465c-0.507,0-1.014-0.198-1.393-0.587l-9.652-9.932c-0.745-0.77-0.726-1.998,0.039-2.745
	c0.77-0.745,1.998-0.728,2.748,0.039l9.647,9.932c0.75,0.77,0.731,1.998-0.039,2.745
	C267.285,993.282,266.797,993.465,266.31,993.465z"/>
<path style="fill:#6CC3C1;" d="M349.9,1077.737c-0.507,0-1.014-0.198-1.393-0.587l-9.652-9.932c-0.745-0.77-0.726-1.998,0.044-2.745
	c0.765-0.745,1.998-0.728,2.743,0.039l9.651,9.932c0.746,0.77,0.726,1.998-0.043,2.745
	C350.875,1077.554,350.387,1077.737,349.9,1077.737z"/>
<path style="fill:#6CC3C1;" d="M343.932,966.065c1.281-0.339,2.943,0.163,4.209,1.06c2.84,2.01,16.453,12.555,10.339,16.845
	c-0.96,0.674-2.285,0.412-3.367-0.039c-2.909-1.208-5.203-3.508-7.411-5.759c-1.686-1.722-3.381-3.469-4.599-5.549
	c-0.643-1.099-1.154-2.329-1.115-3.6C342.042,967.248,342.851,966.352,343.932,966.065z"/>
<path style="fill:#6CC3C1;" d="M255.782,1079.959c0.721,1.832,1.515,4.746-0.326,6.658c-0.916,0.948-2.139,1.025-3.074,0.877
	c-4.117-0.65-7.557-3.685-9.691-6.772c-1.583-2.287-3.069-4.302-3.371-7.549c-0.317-3.408,2.689-5.756,5.515-5.001
	c2.543,0.677,4.292,2.507,5.944,4.332c1.739,1.919,3.444,3.914,4.55,6.399L255.782,1079.959z"/>
<path style="fill:#6CC3C1;" d="M339.805,988.622c-0.487,0-0.974-0.183-1.354-0.548c-0.77-0.745-0.784-1.976-0.039-2.743l9.652-9.932
	c0.745-0.77,1.978-0.787,2.743-0.039c0.77,0.745,0.789,1.973,0.039,2.743l-9.652,9.931
	C340.814,988.427,340.312,988.622,339.805,988.622z"/>
<path style="fill:#6CC3C1;" d="M250.69,1077.737c-0.487,0-0.974-0.183-1.355-0.548c-0.765-0.748-0.784-1.976-0.039-2.745
	l9.652-9.932c0.75-0.767,1.978-0.784,2.743-0.039c0.77,0.748,0.789,1.976,0.039,2.745l-9.647,9.932
	C251.704,1077.54,251.197,1077.737,250.69,1077.737z"/>
<path style="fill:#6CC3C1;" d="M371.586,1012.693c1.613,0.767,2.772,2.541,3.142,4.314c0.833,3.978,3.893,23.769-6.494,22.275
	c-1.632-0.234-2.695-1.535-3.328-2.792c-1.701-3.374-1.696-7.138-1.647-10.789c0.034-2.792,0.083-5.618,0.945-8.317
	c0.458-1.427,1.174-2.853,2.485-3.863C368.516,1012.11,370.217,1012.04,371.586,1012.693z"/>
<path style="fill:#6CC3C1;" d="M232.376,1032.853c-0.58,1.829-1.695,4.485-3.727,4.509c-1.003,0.01-1.715-0.823-2.143-1.605
	c-1.905-3.454-2.168-8.117-1.686-11.866c0.351-2.782,0.614-5.298,2.183-7.832c1.642-2.658,4.535-2.149,5.68,0.441
	c1.028,2.329,1.009,4.904,0.936,7.405c-0.073,2.631-0.2,5.294-0.921,7.866L232.376,1032.853z"/>
<path style="fill:#6CC3C1;" d="M353.481,1028.091c-1.057,0-1.924-0.85-1.939-1.912c-0.015-1.072,0.843-1.954,1.914-1.968
	l13.846-0.198c1.082-0.027,1.954,0.841,1.969,1.912c0.014,1.072-0.843,1.951-1.915,1.969l-13.846,0.197H353.481z"/>
<path style="fill:#6CC3C1;" d="M232.63,1028.091c-1.057,0-1.925-0.85-1.939-1.912c-0.014-1.072,0.843-1.954,1.915-1.968
	l13.846-0.198c1.091-0.027,1.954,0.841,1.968,1.912c0.015,1.072-0.843,1.951-1.915,1.969l-13.846,0.197H232.63z"/>
<path style="fill:#4EB7B5;" d="M277.955,987.609c-0.945,1.776-1.145,4.017-0.19,5.788c0.916,1.703,2.787,2.765,4.706,2.999
	c1.92,0.236,3.873-0.273,5.613-1.111c1.793-0.862,3.435-2.107,4.516-3.771c1.082-1.666,1.554-3.781,1.004-5.691
	c-0.682-2.348-2.875-4.112-5.281-4.535C284.035,980.53,279.879,983.996,277.955,987.609z"/>
<path style="fill:#4EB7B5;" d="M276.458,1033.538c-1.612,0.09-3.23,0.886-4.048,2.277c-0.784,1.338-0.731,3.065-0.092,4.478
	c0.638,1.415,1.798,2.541,3.099,3.386c1.34,0.865,2.874,1.476,4.468,1.523c1.593,0.049,3.24-0.512,4.316-1.683
	c1.33-1.445,1.622-3.683,0.911-5.513C283.845,1034.755,279.733,1033.35,276.458,1033.538z"/>
<path style="fill:#4EB7B5;" d="M318.753,991.794c0.044,1.264,0.273,2.624,1.179,3.505c0.526,0.514,1.233,0.809,1.949,0.997
	c2.592,0.677,5.613-0.107,7.254-2.227c3.415-4.417-2.012-10.887-7.025-8.797C319.596,986.32,318.675,989.263,318.753,991.794z"/>
<path style="fill:#4EB7B5;" d="M312.897,1058.704c0.063,1.91,0.414,3.964,1.783,5.296c0.794,0.777,1.861,1.225,2.938,1.505
	c3.922,1.026,8.492-0.161,10.972-3.364c5.159-6.675-3.045-16.453-10.621-13.294C314.173,1050.431,312.775,1054.877,312.897,1058.704
	z"/>
<path style="fill:#4EB7B5;" d="M250.695,1021.553c0.053,1.688,0.365,3.503,1.574,4.682c0.706,0.689,1.652,1.084,2.602,1.333
	c3.469,0.906,7.508-0.144,9.7-2.977c4.565-5.902-2.689-14.548-9.388-11.754C251.821,1014.237,250.588,1018.169,250.695,1021.553z"/>
<path style="fill:#4EB7B5;" d="M293.701,1017.584c-0.249,3.572,2.129,7.023,5.35,8.587c3.22,1.567,7.089,1.418,10.445,0.171
	c5.111-1.898,7.698-8.77,6.056-13.934c-1.618-5.098-8.297-8.292-13.32-6.855C296.999,1007.048,294.057,1012.437,293.701,1017.584z"
	/>
<path style="fill:#4EB7B5;" d="M332.512,1026.695c-0.166,2.334,1.388,4.589,3.493,5.61c2.105,1.023,4.633,0.926,6.826,0.112
	c3.342-1.24,5.028-5.732,3.961-9.103c-1.062-3.333-5.423-5.42-8.706-4.48C334.665,1019.81,332.746,1023.331,332.512,1026.695z"/>
<path style="fill:#4EB7B5;" d="M275.752,1065.915c-0.175,2.558,1.525,5.03,3.834,6.151c2.304,1.121,5.077,1.013,7.484,0.122
	c3.659-1.359,5.51-6.283,4.336-9.98c-1.16-3.652-5.944-5.939-9.539-4.911C278.115,1058.368,276.01,1062.229,275.752,1065.915z"/>
<path style="fill:#58BBBA;" d="M340.707,1071.623c-24.243,18.628-66.947,16.455-87.064-8.823c-3.016-3.79-5.393-8.124-7.152-12.743
	c7.605,7.428,19.259,12.485,29.393,14.801c1.603,0.375,3.152,0.673,4.653,0.892c3.674,0.556,7.391,0.66,11.089,0.349
	c7.371-0.607,14.67-2.794,21.369-6.093c4.736-2.341,9.159-5.24,13.096-8.539l0.902-0.774c5.627-4.969,9.861-11.023,12.706-17.659
	c1.837-4.295,3.104-8.811,3.805-13.442c2.134-13.88-0.818-28.655-8.58-40.477c11.099,8.46,18.913,20.93,22.314,34.307
	C362.27,1033.214,358.611,1057.871,340.707,1071.623z"/>
<path style="fill:#38B0B1;" d="M328.585,1062.139c-2.47,3.208-7.05,4.387-10.972,3.364c-1.072-0.285-2.134-0.723-2.933-1.501
	c-1.062-1.035-1.515-2.497-1.686-3.997c4.736-2.341,9.159-5.24,13.096-8.539l0.902-0.774
	C330.139,1053.537,331.523,1058.336,328.585,1062.139z"/>
<path style="fill:#38B0B1;" d="M342.826,1032.412c-0.994,0.363-2.066,0.595-3.128,0.621c1.837-4.295,3.104-8.811,3.805-13.442
	c1.525,0.828,2.777,2.134,3.284,3.727C347.859,1026.68,346.163,1031.182,342.826,1032.412z"/>
<path style="fill:#38B0B1;" d="M291.626,1066.098c-0.468,2.665-2.095,5.177-4.555,6.095c-2.407,0.892-5.174,0.997-7.488-0.129
	c-2.304-1.114-4.01-3.598-3.829-6.146l0.132-1.06c1.603,0.375,3.152,0.673,4.653,0.892
	C284.21,1066.305,287.928,1066.41,291.626,1066.098z"/>
<path style="fill:#6CC3C1;" d="M798.154,1274.822c-5.179-20.387-20.609-38.658-42.334-43.849
	c-28.867-6.899-61.305,12.161-70.055,43.907c-4.618,16.745-1.651,36.2,8.799,49.33c20.112,25.269,62.811,27.442,87.059,8.821
	C799.533,1319.277,803.187,1294.617,798.154,1274.822z"/>
<path style="fill:#6CC3C1;" d="M755.119,1216.143c-0.77-1.33-2.548-2.285-4.331-2.59c-3.99-0.684-23.848-3.201-22.353,5.35
	c0.238,1.342,1.54,2.217,2.801,2.738c3.386,1.396,7.167,1.394,10.831,1.354c2.801-0.029,5.632-0.068,8.346-0.78
	c1.433-0.375,2.86-0.964,3.873-2.044C755.704,1218.669,755.777,1217.27,755.119,1216.143z"/>
<path style="fill:#6CC3C1;" d="M733.668,1354.414c-2.158,0.685-5.286,2-5.311,4.39c-0.015,1.184,0.97,2.02,1.891,2.526
	c4.068,2.241,9.559,2.551,13.973,1.988c3.274-0.419,6.236-0.726,9.223-2.573c3.128-1.934,2.529-5.342-0.521-6.687
	c-2.743-1.211-5.773-1.189-8.721-1.106c-3.099,0.085-6.231,0.239-9.262,1.087C734.598,1354.134,734.155,1354.258,733.668,1354.414z"
	/>
<path style="fill:#6CC3C1;" d="M741.614,1235.818h-0.024c-1.072-0.014-1.929-0.896-1.915-1.968l0.2-13.847
	c0.015-1.072,0.931-1.898,1.969-1.912c1.072,0.017,1.924,0.896,1.91,1.968l-0.195,13.847
	C743.538,1234.968,742.676,1235.818,741.614,1235.818z"/>
<path style="fill:#6CC3C1;" d="M741.614,1356.672h-0.024c-1.072-0.017-1.929-0.899-1.915-1.968l0.2-13.849
	c0.015-1.072,0.931-1.907,1.969-1.912c1.072,0.014,1.924,0.896,1.91,1.968l-0.195,13.846
	C743.538,1355.82,742.676,1356.672,741.614,1356.672z"/>
<path style="fill:#6CC3C1;" d="M704.128,1230.975c-1.466-0.387-3.371,0.188-4.828,1.218c-3.264,2.307-18.879,14.409-11.868,19.332
	c1.101,0.775,2.621,0.473,3.868-0.043c3.338-1.389,5.973-4.027,8.502-6.611c1.934-1.976,3.883-3.981,5.281-6.368
	c0.736-1.262,1.321-2.673,1.277-4.134C706.302,1232.335,705.371,1231.307,704.128,1230.975z"/>
<path style="fill:#6CC3C1;" d="M785.789,1342.297c-0.941,1.817-2.1,4.658-0.59,6.202c0.75,0.765,1.91,0.67,2.826,0.407
	c4.034-1.169,7.742-4.48,10.207-7.666c1.827-2.361,3.523-4.451,4.249-7.54c0.765-3.237-1.798-5.035-4.609-3.944
	c-2.523,0.979-4.448,2.931-6.28,4.87c-1.925,2.034-3.835,4.139-5.228,6.616L785.789,1342.297z"/>
<path style="fill:#6CC3C1;" d="M707.227,1254.873c-0.507,0-1.013-0.197-1.393-0.589l-9.647-9.932
	c-0.75-0.768-0.731-1.998,0.039-2.743c0.765-0.746,1.998-0.731,2.743,0.039l9.652,9.932c0.745,0.77,0.726,1.998-0.039,2.743
	C708.201,1254.69,707.714,1254.873,707.227,1254.873z"/>
<path style="fill:#6CC3C1;" d="M790.817,1339.145c-0.507,0-1.009-0.197-1.389-0.589l-9.652-9.932
	c-0.75-0.767-0.731-1.998,0.039-2.743c0.77-0.746,1.997-0.728,2.743,0.039l9.652,9.931c0.745,0.77,0.731,1.998-0.039,2.743
	C791.792,1338.962,791.304,1339.145,790.817,1339.145z"/>
<path style="fill:#6CC3C1;" d="M784.854,1227.473c1.276-0.341,2.938,0.161,4.204,1.06c2.846,2.01,16.453,12.555,10.344,16.845
	c-0.965,0.672-2.285,0.412-3.372-0.039c-2.909-1.211-5.203-3.51-7.406-5.759c-1.686-1.722-3.386-3.471-4.604-5.549
	c-0.643-1.101-1.15-2.329-1.116-3.603C782.964,1228.654,783.767,1227.76,784.854,1227.473z"/>
<path style="fill:#6CC3C1;" d="M696.698,1341.367c0.721,1.831,1.52,4.745-0.326,6.657c-0.916,0.948-2.139,1.023-3.074,0.877
	c-4.112-0.651-7.556-3.686-9.691-6.772c-1.583-2.287-3.069-4.302-3.372-7.552c-0.316-3.406,2.69-5.754,5.515-5.001
	c2.543,0.679,4.292,2.506,5.944,4.333c1.739,1.92,3.449,3.915,4.555,6.399L696.698,1341.367z"/>
<path style="fill:#6CC3C1;" d="M780.722,1250.03c-0.487,0-0.974-0.183-1.354-0.548c-0.765-0.748-0.785-1.976-0.039-2.745
	l9.652-9.932c0.75-0.767,1.978-0.785,2.748-0.039c0.765,0.748,0.784,1.976,0.039,2.745l-9.652,9.932
	C781.736,1249.835,781.229,1250.03,780.722,1250.03z"/>
<path style="fill:#6CC3C1;" d="M691.607,1339.145c-0.487,0-0.974-0.183-1.35-0.55c-0.77-0.745-0.789-1.973-0.039-2.743l9.652-9.931
	c0.745-0.767,1.973-0.785,2.743-0.039c0.77,0.745,0.784,1.976,0.039,2.743l-9.652,9.932
	C692.621,1338.948,692.114,1339.145,691.607,1339.145z"/>
<path style="fill:#6CC3C1;" d="M812.503,1274.098c1.617,0.77,2.772,2.54,3.147,4.317c0.828,3.976,3.888,23.769-6.499,22.275
	c-1.632-0.234-2.695-1.535-3.328-2.791c-1.696-3.374-1.691-7.14-1.647-10.789c0.034-2.792,0.083-5.618,0.95-8.319
	c0.453-1.427,1.169-2.853,2.48-3.863C809.433,1273.518,811.133,1273.445,812.503,1274.098z"/>
<path style="fill:#6CC3C1;" d="M673.298,1294.261c-0.585,1.829-1.7,4.484-3.727,4.506c-1.008,0.012-1.715-0.824-2.148-1.605
	c-1.9-3.454-2.163-8.115-1.686-11.866c0.356-2.779,0.614-5.296,2.183-7.829c1.642-2.658,4.536-2.149,5.681,0.44
	c1.028,2.329,1.008,4.902,0.94,7.406c-0.078,2.629-0.204,5.293-0.925,7.866L673.298,1294.261z"/>
<path style="fill:#6CC3C1;" d="M794.398,1289.499c-1.058,0-1.925-0.85-1.939-1.912c-0.015-1.072,0.843-1.954,1.915-1.969l13.846-0.2
	c1.086-0.024,1.954,0.843,1.968,1.912c0.015,1.072-0.843,1.954-1.915,1.968l-13.846,0.2H794.398z"/>
<path style="fill:#6CC3C1;" d="M673.551,1289.499c-1.062,0-1.929-0.85-1.944-1.912c-0.014-1.072,0.843-1.954,1.915-1.969l13.846-0.2
	c1.092-0.024,1.954,0.843,1.969,1.912c0.014,1.072-0.843,1.954-1.915,1.968l-13.846,0.2H673.551z"/>
<path style="fill:#4EB7B5;" d="M718.871,1249.017c-0.94,1.776-1.145,4.017-0.19,5.788c0.916,1.703,2.787,2.762,4.707,2.998
	c1.919,0.236,3.873-0.272,5.617-1.113c1.788-0.862,3.435-2.105,4.517-3.771c1.082-1.664,1.55-3.781,0.999-5.688
	c-0.677-2.351-2.875-4.112-5.281-4.538C724.956,1241.938,720.796,1245.404,718.871,1249.017z"/>
<path style="fill:#4EB7B5;" d="M717.376,1294.943c-1.613,0.092-3.23,0.889-4.049,2.28c-0.785,1.338-0.731,3.065-0.093,4.478
	c0.638,1.415,1.798,2.541,3.104,3.383c1.335,0.867,2.874,1.476,4.463,1.525c1.593,0.048,3.24-0.512,4.316-1.686
	c1.33-1.442,1.622-3.681,0.911-5.51C724.761,1296.164,720.654,1294.756,717.376,1294.943z"/>
<path style="fill:#4EB7B5;" d="M759.675,1253.202c0.039,1.262,0.268,2.621,1.174,3.503c0.531,0.516,1.233,0.811,1.949,0.996
	c2.592,0.677,5.617-0.107,7.255-2.227c3.415-4.416-2.012-10.884-7.026-8.794C760.513,1247.728,759.592,1250.671,759.675,1253.202z"
	/>
<path style="fill:#4EB7B5;" d="M753.819,1320.11c0.058,1.91,0.409,3.966,1.778,5.298c0.799,0.777,1.861,1.223,2.943,1.506
	c3.917,1.023,8.487-0.161,10.967-3.367c5.165-6.675-3.045-16.451-10.621-13.294C755.09,1311.837,753.697,1316.285,753.819,1320.11z"
	/>
<path style="fill:#4EB7B5;" d="M691.617,1282.958c0.053,1.691,0.361,3.506,1.574,4.685c0.706,0.687,1.647,1.082,2.602,1.333
	c3.464,0.904,7.503-0.144,9.696-2.977c4.565-5.902-2.689-14.548-9.389-11.754C692.743,1275.643,691.51,1279.574,691.617,1282.958z"
	/>
<path style="fill:#4EB7B5;" d="M734.618,1278.99c-0.248,3.574,2.129,7.026,5.35,8.589c3.22,1.564,7.094,1.415,10.445,0.171
	c5.111-1.898,7.698-8.772,6.061-13.934c-1.622-5.099-8.302-8.292-13.325-6.857C737.916,1268.456,734.973,1273.845,734.618,1278.99z"
	/>
<path style="fill:#4EB7B5;" d="M773.428,1288.103c-0.161,2.331,1.389,4.589,3.493,5.61c2.105,1.023,4.633,0.926,6.831,0.112
	c3.337-1.24,5.028-5.732,3.956-9.106c-1.057-3.33-5.422-5.418-8.706-4.48C775.582,1281.219,773.662,1284.739,773.428,1288.103z"/>
<path style="fill:#4EB7B5;" d="M716.674,1327.323c-0.181,2.558,1.525,5.03,3.829,6.151c2.304,1.118,5.082,1.014,7.483,0.12
	c3.659-1.357,5.51-6.28,4.336-9.978c-1.16-3.652-5.944-5.939-9.539-4.911C719.037,1319.776,716.927,1323.635,716.674,1327.323z"/>
<path style="fill:#58BBBA;" d="M781.623,1333.031c-24.243,18.628-66.947,16.455-87.064-8.824c-3.011-3.791-5.393-8.124-7.152-12.743
	c7.606,7.425,19.264,12.484,29.393,14.799c1.603,0.375,3.158,0.672,4.658,0.894c3.674,0.555,7.386,0.66,11.084,0.348
	c7.376-0.609,14.67-2.794,21.374-6.093c4.736-2.341,9.159-5.239,13.091-8.538l0.906-0.777c5.627-4.967,9.856-11.021,12.701-17.659
	c1.836-4.294,3.103-8.809,3.805-13.439c2.134-13.881-0.814-28.655-8.58-40.48c11.103,8.46,18.913,20.933,22.319,34.309
	C803.192,1294.622,799.529,1319.279,781.623,1333.031z"/>
<path style="fill:#38B0B1;" d="M769.502,1323.547c-2.47,3.208-7.05,4.385-10.967,3.364c-1.077-0.285-2.134-0.726-2.938-1.501
	c-1.062-1.035-1.515-2.497-1.681-3.998c4.736-2.341,9.159-5.239,13.091-8.538l0.906-0.777
	C771.056,1314.946,772.44,1319.745,769.502,1323.547z"/>
<path style="fill:#38B0B1;" d="M783.748,1293.82c-0.999,0.361-2.071,0.594-3.133,0.619c1.836-4.294,3.103-8.809,3.805-13.439
	c1.525,0.828,2.782,2.134,3.284,3.724C788.781,1288.089,787.085,1292.59,783.748,1293.82z"/>
<path style="fill:#38B0B1;" d="M732.542,1327.506c-0.463,2.665-2.095,5.174-4.551,6.093c-2.407,0.894-5.179,0.996-7.493-0.129
	c-2.3-1.111-4.01-3.596-3.829-6.144l0.131-1.062c1.603,0.375,3.158,0.672,4.658,0.894
	C725.132,1327.713,728.844,1327.817,732.542,1327.506z"/>
<path style="fill:#6CC3C1;" d="M1073.587,1214.311c-5.179-20.387-20.609-38.655-42.334-43.849
	c-28.867-6.896-61.305,12.161-70.055,43.907c-4.614,16.747-1.651,36.2,8.799,49.33c20.117,25.271,62.811,27.444,87.059,8.821
	C1074.966,1258.766,1078.62,1234.108,1073.587,1214.311z"/>
<path style="fill:#6CC3C1;" d="M1030.557,1155.632c-0.775-1.33-2.553-2.283-4.331-2.59c-3.99-0.684-23.853-3.201-22.353,5.35
	c0.233,1.344,1.54,2.219,2.801,2.738c3.386,1.398,7.162,1.393,10.826,1.357c2.801-0.029,5.637-0.071,8.346-0.78
	c1.432-0.375,2.865-0.967,3.878-2.046C1031.136,1158.158,1031.21,1156.759,1030.557,1155.632z"/>
<path style="fill:#6CC3C1;" d="M1009.1,1293.903c-2.153,0.687-5.281,2.003-5.31,4.39c-0.015,1.184,0.969,2.02,1.89,2.526
	c4.068,2.241,9.559,2.553,13.973,1.988c3.279-0.419,6.241-0.726,9.223-2.57c3.128-1.937,2.529-5.345-0.516-6.689
	c-2.748-1.211-5.778-1.189-8.721-1.106c-3.099,0.088-6.236,0.239-9.266,1.087C1010.031,1293.625,1009.592,1293.747,1009.1,1293.903z
	"/>
<path style="fill:#6CC3C1;" d="M1017.052,1175.31h-0.029c-1.072-0.017-1.929-0.899-1.915-1.968l0.2-13.846
	c0.014-1.072,0.93-1.9,1.968-1.915c1.072,0.017,1.929,0.899,1.915,1.968l-0.2,13.847
	C1018.976,1174.457,1018.109,1175.31,1017.052,1175.31z"/>
<path style="fill:#6CC3C1;" d="M1017.052,1296.161h-0.029c-1.072-0.017-1.929-0.896-1.915-1.968l0.2-13.849
	c0.014-1.069,0.93-1.905,1.968-1.912c1.072,0.017,1.929,0.897,1.915,1.968l-0.2,13.849
	C1018.976,1295.311,1018.109,1296.161,1017.052,1296.161z"/>
<path style="fill:#6CC3C1;" d="M979.561,1170.467c-1.462-0.39-3.372,0.185-4.828,1.215c-3.259,2.307-18.879,14.412-11.863,19.332
	c1.101,0.775,2.621,0.475,3.863-0.043c3.338-1.389,5.973-4.027,8.502-6.609c1.934-1.976,3.888-3.983,5.281-6.37
	c0.741-1.262,1.325-2.673,1.282-4.131C981.734,1171.824,980.808,1170.798,979.561,1170.467z"/>
<path style="fill:#6CC3C1;" d="M1061.222,1281.786c-0.94,1.817-2.095,4.658-0.59,6.202c0.75,0.765,1.915,0.672,2.826,0.407
	c4.034-1.169,7.742-4.48,10.207-7.664c1.827-2.363,3.523-4.453,4.254-7.542c0.765-3.237-1.798-5.033-4.609-3.944
	c-2.528,0.979-4.453,2.933-6.285,4.87c-1.925,2.036-3.83,4.139-5.228,6.618L1061.222,1281.786z"/>
<path style="fill:#6CC3C1;" d="M982.659,1194.362c-0.502,0-1.008-0.197-1.388-0.587l-9.652-9.932
	c-0.745-0.77-0.731-1.998,0.039-2.745c0.77-0.745,1.998-0.728,2.743,0.039l9.652,9.932c0.745,0.77,0.731,1.998-0.039,2.745
	C983.639,1194.179,983.147,1194.362,982.659,1194.362z"/>
<path style="fill:#6CC3C1;" d="M1066.255,1278.634c-0.507,0-1.014-0.197-1.394-0.587l-9.652-9.932
	c-0.745-0.77-0.731-1.997,0.039-2.745c0.77-0.745,1.998-0.728,2.743,0.04l9.652,9.931c0.75,0.77,0.731,1.998-0.039,2.746
	C1067.229,1278.451,1066.741,1278.634,1066.255,1278.634z"/>
<path style="fill:#6CC3C1;" d="M1060.286,1166.962c1.276-0.339,2.938,0.163,4.209,1.06c2.841,2.01,16.448,12.555,10.339,16.845
	c-0.96,0.675-2.285,0.412-3.366-0.039c-2.914-1.208-5.204-3.508-7.411-5.759c-1.686-1.722-3.386-3.469-4.599-5.549
	c-0.643-1.099-1.155-2.329-1.116-3.601C1058.396,1168.146,1059.204,1167.249,1060.286,1166.962z"/>
<path style="fill:#6CC3C1;" d="M972.131,1280.856c0.726,1.831,1.52,4.745-0.327,6.657c-0.911,0.948-2.139,1.026-3.069,0.877
	c-4.117-0.651-7.557-3.686-9.691-6.77c-1.583-2.29-3.069-4.305-3.372-7.552c-0.317-3.408,2.69-5.756,5.515-5.001
	c2.543,0.677,4.287,2.506,5.944,4.331c1.735,1.92,3.444,3.915,4.55,6.399L972.131,1280.856z"/>
<path style="fill:#6CC3C1;" d="M1056.155,1189.519c-0.487,0-0.975-0.18-1.35-0.548c-0.77-0.745-0.789-1.976-0.039-2.743l9.652-9.932
	c0.745-0.77,1.973-0.787,2.743-0.039c0.77,0.745,0.784,1.973,0.039,2.743l-9.652,9.932
	C1057.168,1189.324,1056.661,1189.519,1056.155,1189.519z"/>
<path style="fill:#6CC3C1;" d="M967.044,1278.634c-0.487,0-0.979-0.183-1.355-0.548c-0.77-0.748-0.784-1.976-0.039-2.746
	l9.652-9.931c0.745-0.767,1.973-0.785,2.743-0.04c0.77,0.748,0.789,1.976,0.039,2.745l-9.652,9.932
	C968.053,1278.437,967.546,1278.634,967.044,1278.634z"/>
<path style="fill:#6CC3C1;" d="M1087.94,1213.589c1.613,0.768,2.772,2.541,3.143,4.314c0.833,3.978,3.888,23.768-6.499,22.275
	c-1.632-0.234-2.694-1.535-3.323-2.791c-1.7-3.374-1.696-7.138-1.647-10.789c0.034-2.792,0.083-5.618,0.945-8.317
	c0.453-1.428,1.174-2.853,2.484-3.863C1084.865,1213.007,1086.566,1212.937,1087.94,1213.589z"/>
<path style="fill:#6CC3C1;" d="M948.73,1233.75c-0.58,1.83-1.7,4.485-3.727,4.509c-1.004,0.012-1.715-0.824-2.144-1.605
	c-1.905-3.454-2.168-8.117-1.691-11.866c0.356-2.782,0.619-5.298,2.183-7.832c1.647-2.658,4.541-2.148,5.681,0.441
	c1.028,2.329,1.008,4.904,0.94,7.406c-0.073,2.631-0.204,5.293-0.925,7.866L948.73,1233.75z"/>
<path style="fill:#6CC3C1;" d="M1069.835,1228.988c-1.057,0-1.924-0.85-1.939-1.912c-0.015-1.072,0.838-1.954,1.91-1.969
	l13.846-0.197c1.086-0.027,1.954,0.84,1.968,1.912c0.02,1.072-0.838,1.951-1.91,1.968l-13.847,0.198H1069.835z"/>
<path style="fill:#6CC3C1;" d="M948.984,1228.988c-1.057,0-1.924-0.85-1.939-1.912c-0.014-1.072,0.838-1.954,1.91-1.969
	l13.846-0.197c1.097-0.027,1.954,0.84,1.969,1.912c0.019,1.072-0.838,1.951-1.91,1.968l-13.846,0.198H948.984z"/>
<path style="fill:#4EB7B5;" d="M994.309,1188.506c-0.945,1.776-1.145,4.017-0.195,5.788c0.916,1.703,2.792,2.765,4.711,3.001
	c1.92,0.234,3.869-0.275,5.613-1.113c1.788-0.863,3.435-2.107,4.517-3.771c1.082-1.666,1.55-3.781,0.999-5.69
	c-0.677-2.348-2.87-4.112-5.281-4.536C1000.389,1181.427,996.228,1184.893,994.309,1188.506z"/>
<path style="fill:#4EB7B5;" d="M992.808,1234.435c-1.608,0.09-3.23,0.886-4.044,2.277c-0.789,1.338-0.735,3.065-0.097,4.478
	c0.638,1.416,1.802,2.541,3.104,3.386c1.335,0.867,2.874,1.476,4.468,1.523c1.588,0.048,3.235-0.512,4.317-1.683
	c1.325-1.445,1.617-3.683,0.906-5.513C1000.194,1235.653,996.087,1234.247,992.808,1234.435z"/>
<path style="fill:#4EB7B5;" d="M1035.107,1192.691c0.039,1.264,0.273,2.624,1.179,3.505c0.526,0.514,1.233,0.809,1.944,0.996
	c2.592,0.677,5.618-0.107,7.254-2.227c3.42-4.416-2.012-10.886-7.02-8.797C1035.95,1187.217,1035.024,1190.16,1035.107,1192.691z"/>
<path style="fill:#4EB7B5;" d="M1029.251,1259.601c0.058,1.91,0.409,3.963,1.778,5.296c0.799,0.777,1.866,1.225,2.943,1.506
	c3.922,1.025,8.487-0.161,10.967-3.364c5.165-6.675-3.04-16.453-10.616-13.294
	C1030.523,1251.329,1029.129,1255.774,1029.251,1259.601z"/>
<path style="fill:#4EB7B5;" d="M967.049,1222.449c0.053,1.688,0.365,3.503,1.574,4.682c0.706,0.69,1.647,1.084,2.602,1.333
	c3.464,0.906,7.508-0.144,9.7-2.977c4.565-5.902-2.694-14.548-9.393-11.754C968.175,1215.134,966.942,1219.066,967.049,1222.449z"/>
<path style="fill:#4EB7B5;" d="M1010.05,1218.481c-0.248,3.571,2.129,7.023,5.35,8.587c3.22,1.567,7.094,1.418,10.45,0.171
	c5.111-1.898,7.693-8.77,6.056-13.934c-1.617-5.099-8.297-8.292-13.32-6.855C1013.349,1207.945,1010.411,1213.334,1010.05,1218.481z
	"/>
<path style="fill:#4EB7B5;" d="M1048.861,1227.592c-0.161,2.334,1.393,4.589,3.498,5.61c2.105,1.023,4.633,0.925,6.826,0.112
	c3.337-1.24,5.028-5.732,3.956-9.104c-1.057-3.332-5.422-5.42-8.701-4.48C1051.02,1220.708,1049.095,1224.228,1048.861,1227.592z"/>
<path style="fill:#4EB7B5;" d="M992.107,1266.812c-0.176,2.558,1.525,5.03,3.829,6.151c2.309,1.12,5.082,1.013,7.484,0.122
	c3.659-1.359,5.515-6.282,4.341-9.98c-1.16-3.651-5.944-5.939-9.54-4.911C994.469,1259.265,992.365,1263.126,992.107,1266.812z"/>
<path style="fill:#58BBBA;" d="M1057.061,1272.52c-24.244,18.628-66.947,16.455-87.064-8.824c-3.016-3.791-5.393-8.124-7.157-12.743
	c7.61,7.428,19.264,12.484,29.394,14.801c1.602,0.375,3.157,0.673,4.657,0.892c3.674,0.555,7.386,0.66,11.089,0.348
	c7.371-0.607,14.67-2.794,21.369-6.093c4.735-2.341,9.159-5.24,13.091-8.538l0.906-0.775c5.627-4.97,9.856-11.023,12.706-17.659
	c1.837-4.295,3.104-8.811,3.801-13.442c2.134-13.881-0.814-28.655-8.575-40.477c11.099,8.46,18.913,20.93,22.314,34.306
	C1078.625,1234.111,1074.966,1258.768,1057.061,1272.52z"/>
<path style="fill:#38B0B1;" d="M1044.939,1263.036c-2.47,3.208-7.05,4.387-10.972,3.364c-1.072-0.285-2.134-0.723-2.938-1.501
	c-1.057-1.035-1.51-2.497-1.681-3.998c4.735-2.341,9.159-5.24,13.091-8.538l0.906-0.775
	C1046.489,1254.435,1047.872,1259.234,1044.939,1263.036z"/>
<path style="fill:#38B0B1;" d="M1059.18,1233.309c-0.994,0.363-2.07,0.594-3.128,0.621c1.837-4.295,3.104-8.811,3.801-13.442
	c1.53,0.828,2.782,2.134,3.288,3.727C1064.213,1227.578,1062.517,1232.079,1059.18,1233.309z"/>
<path style="fill:#38B0B1;" d="M1007.979,1266.995c-0.467,2.665-2.1,5.177-4.555,6.095c-2.407,0.891-5.174,0.996-7.489-0.129
	c-2.304-1.113-4.014-3.598-3.829-6.146l0.127-1.06c1.602,0.375,3.157,0.673,4.657,0.892
	C1000.564,1267.202,1004.277,1267.306,1007.979,1266.995z"/>
<path style="fill:#6CC3C1;" d="M508.876,1354.031c-7.245-28.497-28.808-54.033-59.176-61.29
	c-40.346-9.644-85.69,16.996-97.924,61.371c-6.45,23.408-2.309,50.599,12.302,68.954c28.117,35.32,87.8,38.358,121.689,12.329
	C510.8,1416.167,515.906,1381.7,508.876,1354.031z"/>
<path style="fill:#6CC3C1;" d="M448.72,1272.008c-1.077-1.858-3.562-3.191-6.051-3.618c-5.579-0.957-33.339-4.475-31.244,7.476
	c0.331,1.878,2.153,3.101,3.917,3.827c4.731,1.954,10.012,1.949,15.133,1.895c3.917-0.039,7.878-0.097,11.669-1.089
	c2.003-0.524,4-1.35,5.417-2.858C449.539,1275.543,449.636,1273.587,448.72,1272.008z"/>
<path style="fill:#6CC3C1;" d="M418.733,1465.283c-3.011,0.96-7.381,2.799-7.42,6.136c-0.02,1.654,1.354,2.823,2.641,3.532
	c5.686,3.133,13.359,3.567,19.532,2.777c4.579-0.585,8.721-1.016,12.891-3.593c4.375-2.704,3.537-7.469-0.726-9.35
	c-3.834-1.693-8.073-1.661-12.19-1.544c-4.331,0.119-8.711,0.334-12.95,1.518C420.034,1464.893,419.42,1465.066,418.733,1465.283z"
	/>
<path style="fill:#6CC3C1;" d="M429.846,1299.513h-0.039c-1.501-0.022-2.695-1.252-2.675-2.75l0.278-19.354
	c0.024-1.498,1.301-2.655,2.752-2.675c1.496,0.022,2.695,1.255,2.675,2.753l-0.278,19.354
	C432.535,1298.324,431.327,1299.513,429.846,1299.513z"/>
<path style="fill:#6CC3C1;" d="M429.846,1468.44h-0.039c-1.501-0.024-2.695-1.255-2.675-2.753l0.278-19.354
	c0.024-1.498,1.301-2.668,2.752-2.675c1.496,0.022,2.695,1.254,2.675,2.75l-0.278,19.357
	C432.535,1467.249,431.327,1468.44,429.846,1468.44z"/>
<path style="fill:#6CC3C1;" d="M377.447,1292.746c-2.046-0.546-4.716,0.258-6.748,1.698c-4.56,3.225-26.392,20.144-16.589,27.025
	c1.54,1.082,3.664,0.66,5.403-0.063c4.668-1.939,8.351-5.627,11.888-9.24c2.704-2.76,5.427-5.564,7.381-8.901
	c1.028-1.764,1.846-3.735,1.788-5.776C380.482,1294.644,379.186,1293.206,377.447,1292.746z"/>
<path style="fill:#6CC3C1;" d="M491.589,1448.347c-1.315,2.538-2.932,6.509-0.823,8.667c1.048,1.072,2.675,0.94,3.951,0.57
	c5.637-1.635,10.821-6.263,14.266-10.714c2.553-3.301,4.926-6.224,5.944-10.541c1.067-4.526-2.514-7.037-6.446-5.515
	c-3.532,1.371-6.222,4.099-8.78,6.808c-2.694,2.845-5.359,5.786-7.308,9.25C492.174,1447.266,491.887,1447.77,491.589,1448.347z"/>
<path style="fill:#6CC3C1;" d="M381.778,1326.147c-0.707,0-1.413-0.275-1.944-0.824l-13.491-13.88
	c-1.042-1.077-1.018-2.794,0.054-3.837c1.077-1.043,2.792-1.021,3.834,0.056l13.491,13.88c1.048,1.075,1.023,2.792-0.053,3.837
	C383.142,1325.891,382.46,1326.147,381.778,1326.147z"/>
<path style="fill:#6CC3C1;" d="M498.62,1443.941c-0.706,0-1.413-0.275-1.944-0.823l-13.491-13.883
	c-1.043-1.075-1.018-2.792,0.053-3.834c1.077-1.043,2.797-1.018,3.839,0.054l13.486,13.883c1.047,1.074,1.023,2.791-0.054,3.837
	C499.984,1443.685,499.302,1443.941,498.62,1443.941z"/>
<path style="fill:#6CC3C1;" d="M490.284,1287.847c1.783-0.475,4.107,0.226,5.88,1.479c3.971,2.811,22.991,17.552,14.451,23.547
	c-1.34,0.943-3.196,0.578-4.706-0.053c-4.068-1.691-7.274-4.904-10.358-8.051c-2.353-2.404-4.731-4.85-6.431-7.756
	c-0.897-1.537-1.612-3.254-1.559-5.033C487.638,1289.499,488.764,1288.249,490.284,1287.847z"/>
<path style="fill:#6CC3C1;" d="M367.06,1447.047c1.013,2.56,2.124,6.633-0.453,9.305c-1.282,1.325-2.991,1.432-4.297,1.225
	c-5.754-0.911-10.563-5.15-13.545-9.464c-2.212-3.201-4.292-6.017-4.711-10.555c-0.444-4.762,3.756-8.044,7.707-6.991
	c3.552,0.947,5.997,3.503,8.307,6.058c2.431,2.682,4.819,5.471,6.363,8.943C366.607,1445.96,366.831,1446.465,367.06,1447.047z"/>
<path style="fill:#6CC3C1;" d="M484.51,1319.379c-0.682,0-1.364-0.255-1.89-0.767c-1.077-1.045-1.101-2.762-0.058-3.837
	l13.491-13.883c1.047-1.072,2.762-1.097,3.834-0.054c1.077,1.043,1.101,2.76,0.058,3.835l-13.491,13.883
	C485.923,1319.104,485.217,1319.379,484.51,1319.379z"/>
<path style="fill:#6CC3C1;" d="M359.946,1443.941c-0.682,0-1.364-0.256-1.89-0.767c-1.077-1.045-1.101-2.763-0.053-3.837
	l13.491-13.883c1.043-1.072,2.762-1.096,3.834-0.054c1.072,1.043,1.101,2.76,0.054,3.834l-13.491,13.883
	C361.359,1443.665,360.653,1443.941,359.946,1443.941z"/>
<path style="fill:#6CC3C1;" d="M528.934,1353.021c2.255,1.074,3.873,3.552,4.395,6.032c1.159,5.559,5.437,33.223-9.086,31.137
	c-2.28-0.329-3.766-2.146-4.648-3.902c-2.373-4.719-2.368-9.981-2.299-15.082c0.049-3.902,0.117-7.851,1.32-11.627
	c0.638-1.995,1.642-3.985,3.474-5.401C524.641,1352.209,527.014,1352.11,528.934,1353.021z"/>
<path style="fill:#6CC3C1;" d="M334.349,1381.201c-0.814,2.56-2.373,6.271-5.208,6.305c-1.403,0.014-2.397-1.153-3.001-2.246
	c-2.66-4.828-3.026-11.344-2.358-16.587c0.497-3.885,0.863-7.403,3.055-10.945c2.295-3.715,6.343-3.004,7.936,0.616
	c1.437,3.257,1.413,6.852,1.316,10.353c-0.107,3.676-0.287,7.398-1.291,10.994C334.68,1380.097,334.534,1380.618,334.349,1381.201z"
	/>
<path style="fill:#6CC3C1;" d="M503.628,1374.545c-1.481,0-2.689-1.188-2.714-2.672c-0.02-1.498,1.174-2.731,2.675-2.753
	l19.357-0.277c1.515-0.034,2.729,1.176,2.748,2.675c0.024,1.498-1.174,2.731-2.67,2.75l-19.357,0.277H503.628z"/>
<path style="fill:#6CC3C1;" d="M334.704,1374.545c-1.481,0-2.689-1.188-2.714-2.672c-0.019-1.498,1.174-2.731,2.675-2.753
	l19.357-0.277c1.525-0.034,2.729,1.176,2.748,2.675c0.024,1.498-1.174,2.731-2.67,2.75l-19.356,0.277H334.704z"/>
<path style="fill:#4EB7B5;" d="M398.056,1317.962c-1.32,2.479-1.598,5.615-0.268,8.09c1.281,2.38,3.897,3.863,6.582,4.193
	c2.685,0.329,5.413-0.383,7.849-1.557c2.499-1.204,4.799-2.943,6.309-5.269c1.515-2.329,2.168-5.286,1.398-7.953
	c-0.945-3.284-4.015-5.747-7.381-6.341C406.557,1308.064,400.745,1312.911,398.056,1317.962z"/>
<path style="fill:#4EB7B5;" d="M395.961,1382.158c-2.251,0.129-4.512,1.243-5.656,3.184c-1.096,1.871-1.023,4.285-0.132,6.261
	c0.892,1.976,2.519,3.549,4.337,4.731c1.871,1.211,4.019,2.063,6.246,2.129c2.222,0.068,4.526-0.716,6.032-2.356
	c1.856-2.017,2.266-5.145,1.272-7.7C406.29,1383.861,400.545,1381.895,395.961,1382.158z"/>
<path style="fill:#4EB7B5;" d="M455.088,1323.81c0.054,1.766,0.38,3.666,1.642,4.899c0.741,0.719,1.725,1.131,2.723,1.391
	c3.625,0.947,7.849-0.149,10.139-3.111c4.78-6.173-2.811-15.215-9.817-12.292C456.262,1316.161,454.976,1320.273,455.088,1323.81z"
	/>
<path style="fill:#4EB7B5;" d="M446.898,1417.334c0.088,2.67,0.575,5.542,2.49,7.406c1.115,1.087,2.606,1.71,4.112,2.105
	c5.476,1.43,11.868-0.227,15.332-4.704c7.216-9.33-4.253-22.999-14.845-18.582C448.682,1405.773,446.728,1411.987,446.898,1417.334z
	"/>
<path style="fill:#4EB7B5;" d="M359.956,1365.405c0.073,2.361,0.506,4.899,2.202,6.546c0.984,0.962,2.299,1.513,3.634,1.861
	c4.843,1.267,10.489-0.2,13.554-4.158c6.382-8.251-3.761-20.336-13.125-16.431C361.53,1355.179,359.805,1360.675,359.956,1365.405z"
	/>
<path style="fill:#4EB7B5;" d="M420.063,1359.859c-0.346,4.991,2.977,9.82,7.479,12.005c4.502,2.187,9.915,1.98,14.601,0.236
	c7.142-2.65,10.758-12.258,8.468-19.476c-2.261-7.125-11.595-11.59-18.621-9.583
	C424.672,1345.133,420.565,1352.665,420.063,1359.859z"/>
<path style="fill:#4EB7B5;" d="M474.313,1372.594c-0.229,3.262,1.944,6.414,4.886,7.844c2.938,1.427,6.475,1.291,9.54,0.154
	c4.667-1.732,7.03-8.01,5.534-12.726c-1.481-4.655-7.581-7.574-12.165-6.261C477.324,1362.972,474.64,1367.893,474.313,1372.594z"/>
<path style="fill:#4EB7B5;" d="M394.981,1427.415c-0.248,3.576,2.129,7.033,5.354,8.599c3.225,1.564,7.099,1.415,10.46,0.168
	c5.116-1.9,7.703-8.779,6.061-13.949c-1.617-5.103-8.307-8.302-13.335-6.864C398.285,1416.869,395.337,1422.263,394.981,1427.415z"
	/>
<path style="fill:#58BBBA;" d="M485.772,1435.393c-33.89,26.039-93.577,23.001-121.699-12.331
	c-4.21-5.299-7.537-11.357-9.997-17.813c10.63,10.38,26.923,17.449,41.081,20.687c2.246,0.524,4.414,0.94,6.509,1.247
	c5.14,0.777,10.329,0.923,15.498,0.49c10.309-0.85,20.506-3.907,29.876-8.519c6.616-3.272,12.799-7.323,18.299-11.934l1.262-1.084
	c7.868-6.943,13.783-15.406,17.758-24.682c2.568-6.005,4.341-12.314,5.316-18.789c2.986-19.403-1.141-40.053-11.99-56.579
	c15.518,11.824,26.441,29.256,31.196,47.953C515.916,1381.708,510.796,1416.172,485.772,1435.393z"/>
<path style="fill:#38B0B1;" d="M468.827,1422.138c-3.454,4.485-9.856,6.131-15.332,4.702c-1.506-0.397-2.986-1.013-4.107-2.097
	c-1.481-1.447-2.115-3.491-2.348-5.588c6.616-3.272,12.799-7.323,18.299-11.934l1.262-1.084
	C470.995,1410.114,472.93,1416.823,468.827,1422.138z"/>
<path style="fill:#38B0B1;" d="M488.735,1380.584c-1.393,0.507-2.894,0.833-4.375,0.87c2.568-6.005,4.341-12.314,5.316-18.789
	c2.134,1.157,3.887,2.984,4.594,5.208C495.77,1372.575,493.402,1378.867,488.735,1380.584z"/>
<path style="fill:#38B0B1;" d="M417.164,1427.673c-0.648,3.725-2.928,7.233-6.363,8.516c-3.366,1.247-7.235,1.391-10.47-0.18
	c-3.22-1.557-5.608-5.028-5.354-8.59c0.039-0.49,0.093-0.996,0.18-1.484c2.246,0.524,4.414,0.94,6.509,1.247
	C406.806,1427.96,411.994,1428.107,417.164,1427.673z"/>
</svg>
