<?xml version="1.0" encoding="utf-8"?>
<!-- Generator: Adobe Illustrator 27.5.0, SVG Export Plug-In . SVG Version: 6.00 Build 0)  -->
<svg version="1.1" xmlns="http://www.w3.org/2000/svg" xmlns:xlink="http://www.w3.org/1999/xlink" x="0px" y="0px"
	 viewBox="0 0 2816.422 1459.018" style="enable-background:new 0 0 2816.422 1459.018;" xml:space="preserve">
<g id="Layer_2">
	<polygon style="fill:#DEDEDE;" points="0,1459.018 2816.421,1459.018 2816.421,1301.078 2816.421,0 0,0 	"/>
	<rect x="2816.421" y="1301.078" style="fill:#DEDEDE;" width="0" height="157.94"/>
	<rect x="2816.421" y="0" style="fill:#DEDEDE;" width="0.001" height="1301.078"/>
	<polygon style="fill:#D6D6D6;" points="0,397.104 2816.422,397.104 2816.422,1397.045 2816.422,1459.018 0,1459.018 	"/>
	<polygon style="fill:#71768A;" points="0,956.684 2816.422,956.684 2816.422,1427.312 2816.422,1459.018 0,1459.018 	"/>
	<polygon style="fill:#FFFFFF;" points="2816.422,397.104 2816.422,449.902 2816.422,460.985 0,460.985 0,397.104 	"/>
	<rect x="2816.421" y="1301.078" style="fill:#838AA1;" width="0" height="157.94"/>
	<rect x="2816.421" y="0" style="fill:#838AA1;" width="0.001" height="1301.078"/>
	
		<linearGradient id="SVGID_1_" gradientUnits="userSpaceOnUse" x1="-384.2393" y1="1416.5645" x2="-384.2393" y2="1451.6401" gradientTransform="matrix(-1 0 0 1 2432.1819 0)">
		<stop  offset="0" style="stop-color:#FFFFFF"/>
		<stop  offset="1" style="stop-color:#231F20"/>
	</linearGradient>
	<polygon style="opacity:0.2;fill:url(#SVGID_1_);" points="2816.421,1459.018 2816.421,1459.018 2816.421,1418.852 	"/>
	<rect x="0" y="1193.3" style="fill:#A4ACC9;" width="2816.421" height="265.718"/>
	
		<linearGradient id="SVGID_00000044164716955909847410000015322441781002533557_" gradientUnits="userSpaceOnUse" x1="2105.074" y1="1223.6777" x2="2105.074" y2="1527.5817" gradientTransform="matrix(-1 0 0 1 2432.1819 0)">
		<stop  offset="0" style="stop-color:#FFFFFF"/>
		<stop  offset="1" style="stop-color:#231F20"/>
	</linearGradient>
	
		<rect x="145.808" y="1193.3" style="opacity:0.1;fill:url(#SVGID_00000044164716955909847410000015322441781002533557_);" width="362.6" height="265.718"/>
	
		<linearGradient id="SVGID_00000057826781612564777130000002827607069505054874_" gradientUnits="userSpaceOnUse" x1="1495.7468" y1="1223.673" x2="1495.7468" y2="1527.583" gradientTransform="matrix(-1 0 0 1 2432.1819 0)">
		<stop  offset="0" style="stop-color:#FFFFFF"/>
		<stop  offset="1" style="stop-color:#231F20"/>
	</linearGradient>
	
		<rect x="860.122" y="1193.295" style="opacity:0.1;fill:url(#SVGID_00000057826781612564777130000002827607069505054874_);" width="152.626" height="265.723"/>
	
		<linearGradient id="SVGID_00000056426650378871812420000015337014320780175028_" gradientUnits="userSpaceOnUse" x1="394.993" y1="1178.1592" x2="394.993" y2="1410.2086" gradientTransform="matrix(-1 0 0 1 2432.1819 0)">
		<stop  offset="0" style="stop-color:#FFFFFF"/>
		<stop  offset="1" style="stop-color:#231F20"/>
	</linearGradient>
	<polygon style="opacity:0.1;fill:url(#SVGID_00000056426650378871812420000015337014320780175028_);" points="2275.09,1193.291 
		2275.09,1418.852 2275.09,1459.018 1799.288,1459.018 1799.288,1193.291 	"/>
</g>
<g id="Layer_9">
	<g>
		<g>
			<rect x="2130.999" y="593.769" style="fill:#F5F5F5;" width="241.819" height="599.511"/>
			<rect x="2145.638" y="607.569" style="fill:#3B2F36;" width="211.837" height="585.715"/>
			<rect x="2145.583" y="607.569" style="opacity:0.31;fill:#231F20;" width="211.893" height="14.576"/>
			<g>
				
					<linearGradient id="SVGID_00000006707784941458117150000000620319769139530933_" gradientUnits="userSpaceOnUse" x1="-2002.5659" y1="1343.4279" x2="-2002.5659" y2="711.3456" gradientTransform="matrix(-1 0 0 1 249.761 0)">
					<stop  offset="0" style="stop-color:#F7F7F7"/>
					<stop  offset="1" style="stop-color:#838AA1"/>
				</linearGradient>
				
					<rect x="2176.608" y="657.217" style="fill:url(#SVGID_00000006707784941458117150000000620319769139530933_);" width="151.439" height="466.007"/>
				<g>
					<rect x="2183.929" y="670.169" style="fill:#F5F5F5;" width="135.958" height="3.588"/>
					<rect x="2183.929" y="679.419" style="fill:#F5F5F5;" width="135.958" height="3.588"/>
					<rect x="2183.929" y="688.669" style="fill:#F5F5F5;" width="135.958" height="3.588"/>
					<rect x="2183.929" y="697.919" style="fill:#F5F5F5;" width="135.958" height="3.588"/>
					<rect x="2183.929" y="707.169" style="fill:#F5F5F5;" width="135.958" height="3.588"/>
					<rect x="2183.929" y="716.419" style="fill:#F5F5F5;" width="135.958" height="3.588"/>
					<rect x="2183.929" y="725.669" style="fill:#F5F5F5;" width="135.958" height="3.588"/>
					<rect x="2183.929" y="734.919" style="fill:#F5F5F5;" width="135.958" height="3.588"/>
					<rect x="2183.929" y="744.169" style="fill:#F5F5F5;" width="135.958" height="3.588"/>
				</g>
				<rect x="2176.608" y="657.217" style="opacity:0.31;fill:#231F20;" width="151.439" height="5.247"/>
			</g>
			<g>
				<path style="fill:#FFFFFF;" d="M2343.324,881.573c3.777,0,6.839,3.729,6.839,8.329v26.717c0,4.6-3.062,8.329-6.839,8.329
					c-3.777,0-6.839-3.729-6.839-8.329v-26.717C2336.485,885.302,2339.547,881.573,2343.324,881.573z"/>
			</g>
		</g>
	</g>
	<g>
		<rect x="0" y="598.772" style="fill:#EC9C52;" width="419.093" height="594.529"/>
		<rect x="337.45" y="598.772" style="opacity:0.25;fill:#DE7A1F;" width="81.643" height="594.529"/>
		<rect x="0" y="598.772" style="opacity:0.35;fill:#F5F5F5;" width="419.093" height="38.623"/>
		<polygon style="opacity:0.25;fill:#DE7A1F;" points="419.093,598.772 0.008,970.018 0.008,598.772 		"/>
		<g>
			<rect x="28.107" y="593.769" style="fill:#3B2F36;" width="6.129" height="599.532"/>
			<rect x="55.774" y="593.769" style="fill:#3B2F36;" width="6.129" height="599.532"/>
			<rect x="83.441" y="593.769" style="fill:#3B2F36;" width="6.129" height="599.532"/>
			<rect x="111.107" y="593.769" style="fill:#3B2F36;" width="6.129" height="599.532"/>
			<rect x="138.774" y="593.769" style="fill:#3B2F36;" width="6.129" height="599.532"/>
			<rect x="166.441" y="593.769" style="fill:#3B2F36;" width="6.129" height="599.532"/>
			<rect x="194.107" y="593.769" style="fill:#3B2F36;" width="6.129" height="599.532"/>
			<rect x="224.776" y="593.769" style="fill:#3B2F36;" width="6.129" height="599.532"/>
			
				<rect x="230.704" y="593.769" transform="matrix(-1 -1.224647e-16 1.224647e-16 -1 483.1464 1787.069)" style="fill:#3B2F36;" width="21.739" height="599.532"/>
			<rect x="277.107" y="593.769" style="fill:#3B2F36;" width="6.129" height="599.532"/>
			<rect x="304.774" y="593.769" style="fill:#3B2F36;" width="6.129" height="599.532"/>
			<rect x="332.441" y="593.769" style="fill:#3B2F36;" width="6.129" height="599.532"/>
			<rect x="360.107" y="593.769" style="fill:#3B2F36;" width="6.129" height="599.532"/>
			<rect x="387.774" y="593.769" style="fill:#3B2F36;" width="6.129" height="599.532"/>
			<rect x="419.093" y="593.769" style="fill:#3B2F36;" width="11.132" height="599.532"/>
			
				<rect x="209.554" y="378.085" transform="matrix(-1.836970e-16 1 -1 -1.836970e-16 808.3259 378.0851)" style="fill:#3B2F36;" width="11.132" height="430.241"/>
			<rect x="0" y="696.575" style="fill:#3B2F36;" width="430.225" height="6.129"/>
			<rect x="0.008" y="751.673" style="fill:#3B2F36;" width="430.225" height="6.129"/>
			<rect x="0" y="1066.797" style="fill:#3B2F36;" width="430.225" height="6.129"/>
			<rect x="0.008" y="1121.895" style="fill:#3B2F36;" width="430.225" height="6.129"/>
		</g>
		<rect x="230.704" y="892.725" style="fill:#3B2F36;" width="46.403" height="43.947"/>
	</g>
</g>
<g id="Layer_10">
	<g style="opacity:0.5;">
		<rect x="1174.277" y="613.988" style="fill:#FFFFFF;" width="193.531" height="234.393"/>
		<rect x="876.242" y="613.988" style="fill:#FFFFFF;" width="268.519" height="121.961"/>
		<g>
			<path style="fill:#E6E6E6;" d="M1148.188,852.498h-78.917v-94.703h78.917V852.498z M1139.953,766.03h-62.448v78.234h62.448
				V766.03z"/>
		</g>
		<g>
			<rect x="973.551" y="758.237" style="fill:#FFFFFF;" width="70.682" height="94.711"/>
		</g>
		<g>
			<rect x="876.242" y="758.237" style="fill:#E6E6E6;" width="70.682" height="94.711"/>
		</g>
		<g>
			<rect x="885.299" y="767.397" style="fill:#FFFFFF;" width="52.569" height="29.758"/>
		</g>
		<g>
			<rect x="1202.031" y="641.684" style="fill:#E6E6E6;" width="137.077" height="3.59"/>
			<rect x="1202.031" y="658.61" style="fill:#E6E6E6;" width="137.077" height="3.59"/>
			<rect x="1202.031" y="675.535" style="fill:#E6E6E6;" width="137.077" height="3.59"/>
			<rect x="1202.031" y="692.461" style="fill:#E6E6E6;" width="137.077" height="3.59"/>
			<rect x="1202.031" y="709.386" style="fill:#E6E6E6;" width="137.077" height="3.59"/>
			<rect x="1202.031" y="726.312" style="fill:#E6E6E6;" width="137.077" height="3.59"/>
			<rect x="1202.031" y="743.237" style="fill:#E6E6E6;" width="137.077" height="3.59"/>
			<rect x="1202.031" y="760.163" style="fill:#E6E6E6;" width="137.077" height="3.59"/>
			<rect x="1202.031" y="777.088" style="fill:#E6E6E6;" width="137.077" height="3.59"/>
			<rect x="1202.031" y="794.014" style="fill:#E6E6E6;" width="137.077" height="3.59"/>
		</g>
		<g>
			<rect x="982.257" y="631.937" style="fill:#E6E6E6;" width="137.077" height="3.59"/>
			<rect x="982.257" y="648.863" style="fill:#E6E6E6;" width="137.077" height="3.59"/>
			<rect x="982.257" y="665.789" style="fill:#E6E6E6;" width="137.077" height="3.59"/>
			<rect x="982.257" y="682.714" style="fill:#E6E6E6;" width="137.077" height="3.59"/>
			<rect x="982.257" y="699.64" style="fill:#E6E6E6;" width="137.077" height="3.59"/>
			<rect x="982.257" y="716.565" style="fill:#E6E6E6;" width="137.077" height="3.59"/>
		</g>
		<rect x="895.208" y="631.937" style="fill:#E6E6E6;" width="68.574" height="47.188"/>
	</g>
	<g>
		<rect x="577.1" y="912.737" style="fill:#838AA1;" width="283.023" height="280.564"/>
		<g>
			<path style="fill:#3B2F36;" d="M712.965,1048.787H592.527V928.348h120.438V1048.787z M595.182,1046.131H710.31V931.004H595.182
				V1046.131z"/>
		</g>
		<g>
			<path style="fill:#3B2F36;" d="M843.473,1048.787H723.035V928.348h120.438V1048.787z M725.69,1046.131h115.128V931.004H725.69
				V1046.131z"/>
		</g>
		<g>
			<path style="fill:#3B2F36;" d="M712.965,1177.579H592.527v-120.438h120.438V1177.579z M595.182,1174.923H710.31v-115.126H595.182
				V1174.923z"/>
		</g>
		<g>
			<path style="fill:#3B2F36;" d="M843.473,1177.579H723.035v-120.438h120.438V1177.579z M725.69,1174.923h115.128v-115.126H725.69
				V1174.923z"/>
		</g>
		<g>
			<rect x="631.746" y="966.795" style="fill:#E6E6E6;" width="42" height="24"/>
			<rect x="631.746" y="999.564" style="fill:#3B2F36;" width="42" height="5.846"/>
		</g>
		<g>
			<rect x="762.254" y="966.795" style="fill:#E6E6E6;" width="42" height="24"/>
			<rect x="762.254" y="999.564" style="fill:#3B2F36;" width="42" height="5.846"/>
		</g>
		<g>
			<rect x="631.746" y="1096.873" style="fill:#E6E6E6;" width="42" height="24"/>
			<rect x="631.746" y="1129.642" style="fill:#3B2F36;" width="42" height="5.846"/>
		</g>
		<g>
			<rect x="762.254" y="1096.873" style="fill:#E6E6E6;" width="42" height="24"/>
			<rect x="762.254" y="1129.642" style="fill:#3B2F36;" width="42" height="5.846"/>
		</g>
		<rect x="508.408" y="912.737" style="fill:#3B2F36;" width="68.692" height="280.564"/>
	</g>
	<g>
		<g>
			<rect x="565.971" y="867.607" style="fill:#DE7A1F;" width="29.063" height="45.129"/>
			<rect x="565.971" y="867.607" style="fill:#EC9C52;" width="6.936" height="45.129"/>
		</g>
		<g>
			<rect x="577.826" y="867.607" style="fill:#EC9C52;" width="29.063" height="45.129"/>
			<rect x="577.826" y="867.607" style="fill:#E6E6E6;" width="6.936" height="45.129"/>
		</g>
		<g>
			<rect x="589.811" y="876.037" style="fill:#838AA1;" width="29.063" height="36.7"/>
			<rect x="589.811" y="876.037" style="fill:#E6E6E6;" width="6.936" height="36.7"/>
		</g>
	</g>
	<g>
		<g>
			
				<rect x="2422.76" y="647.537" transform="matrix(-1 -1.224647e-16 1.224647e-16 -1 5128.542 1575.6379)" style="fill:#838AA1;" width="283.023" height="280.564"/>
			<g>
				<path style="fill:#3B2F36;" d="M2690.355,783.586h-120.438V663.149h120.438V783.586z M2572.573,780.931h115.126V665.804
					h-115.126V780.931z"/>
			</g>
			<g>
				<path style="fill:#3B2F36;" d="M2559.847,783.586h-120.438V663.149h120.438V783.586z M2442.065,780.931h115.126V665.804
					h-115.126V780.931z"/>
			</g>
			<g>
				<path style="fill:#3B2F36;" d="M2690.355,912.379h-120.438V791.941h120.438V912.379z M2572.573,909.724h115.126V794.596
					h-115.126V909.724z"/>
			</g>
			<g>
				<path style="fill:#3B2F36;" d="M2559.847,912.379h-120.438V791.941h120.438V912.379z M2442.065,909.724h115.126V794.596
					h-115.126V909.724z"/>
			</g>
			<g>
				
					<rect x="2609.136" y="701.595" transform="matrix(-1 -1.224647e-16 1.224647e-16 -1 5260.272 1427.1904)" style="fill:#E6E6E6;" width="42" height="24"/>
				
					<rect x="2609.136" y="734.365" transform="matrix(-1 -1.224647e-16 1.224647e-16 -1 5260.272 1474.5754)" style="fill:#3B2F36;" width="42" height="5.846"/>
			</g>
			<g>
				
					<rect x="2478.628" y="701.595" transform="matrix(-1 -1.224647e-16 1.224647e-16 -1 4999.2559 1427.1904)" style="fill:#E6E6E6;" width="42" height="24"/>
				
					<rect x="2478.628" y="734.365" transform="matrix(-1 -1.224647e-16 1.224647e-16 -1 4999.2559 1474.5754)" style="fill:#3B2F36;" width="42" height="5.846"/>
			</g>
			<g>
				
					<rect x="2609.136" y="831.673" transform="matrix(-1 -1.224647e-16 1.224647e-16 -1 5260.272 1687.3464)" style="fill:#E6E6E6;" width="42" height="24"/>
				
					<rect x="2609.136" y="864.443" transform="matrix(-1 -1.224647e-16 1.224647e-16 -1 5260.272 1734.7314)" style="fill:#3B2F36;" width="42" height="5.846"/>
			</g>
			<g>
				
					<rect x="2478.628" y="831.673" transform="matrix(-1 -1.224647e-16 1.224647e-16 -1 4999.2559 1687.3464)" style="fill:#E6E6E6;" width="42" height="24"/>
				
					<rect x="2478.628" y="864.443" transform="matrix(-1 -1.224647e-16 1.224647e-16 -1 4999.2559 1734.7314)" style="fill:#3B2F36;" width="42" height="5.846"/>
			</g>
			
				<rect x="2705.782" y="647.537" transform="matrix(-1 -1.224647e-16 1.224647e-16 -1 5480.2563 1575.6379)" style="fill:#3B2F36;" width="68.692" height="280.564"/>
		</g>
		<g>
			
				<rect x="2422.76" y="912.737" transform="matrix(-1 -1.224647e-16 1.224647e-16 -1 5128.542 2106.0374)" style="fill:#838AA1;" width="283.023" height="280.564"/>
			<g>
				<path style="fill:#3B2F36;" d="M2690.355,1048.787h-120.438V928.348h120.438V1048.787z M2572.573,1046.131h115.126V931.004
					h-115.126V1046.131z"/>
			</g>
			<g>
				<path style="fill:#3B2F36;" d="M2559.847,1048.787h-120.438V928.348h120.438V1048.787z M2442.065,1046.131h115.126V931.004
					h-115.126V1046.131z"/>
			</g>
			<g>
				<path style="fill:#3B2F36;" d="M2690.355,1177.579h-120.438v-120.438h120.438V1177.579z M2572.573,1174.923h115.126v-115.126
					h-115.126V1174.923z"/>
			</g>
			<g>
				<path style="fill:#3B2F36;" d="M2559.847,1177.579h-120.438v-120.438h120.438V1177.579z M2442.065,1174.923h115.126v-115.126
					h-115.126V1174.923z"/>
			</g>
			<g>
				
					<rect x="2609.136" y="966.795" transform="matrix(-1 -1.224647e-16 1.224647e-16 -1 5260.272 1957.5898)" style="fill:#E6E6E6;" width="42" height="24"/>
				
					<rect x="2609.136" y="999.564" transform="matrix(-1 -1.224647e-16 1.224647e-16 -1 5260.272 2004.9749)" style="fill:#3B2F36;" width="42" height="5.846"/>
			</g>
			<g>
				
					<rect x="2478.628" y="966.795" transform="matrix(-1 -1.224647e-16 1.224647e-16 -1 4999.2559 1957.5898)" style="fill:#E6E6E6;" width="42" height="24"/>
				
					<rect x="2478.628" y="999.564" transform="matrix(-1 -1.224647e-16 1.224647e-16 -1 4999.2559 2004.9749)" style="fill:#3B2F36;" width="42" height="5.846"/>
			</g>
			<g>
				
					<rect x="2609.136" y="1096.873" transform="matrix(-1 -1.224647e-16 1.224647e-16 -1 5260.272 2217.7458)" style="fill:#E6E6E6;" width="42" height="24"/>
				
					<rect x="2609.136" y="1129.642" transform="matrix(-1 -1.224647e-16 1.224647e-16 -1 5260.272 2265.1309)" style="fill:#3B2F36;" width="42" height="5.846"/>
			</g>
			<g>
				
					<rect x="2478.628" y="1096.873" transform="matrix(-1 -1.224647e-16 1.224647e-16 -1 4999.2559 2217.7458)" style="fill:#E6E6E6;" width="42" height="24"/>
				
					<rect x="2478.628" y="1129.642" transform="matrix(-1 -1.224647e-16 1.224647e-16 -1 4999.2559 2265.1309)" style="fill:#3B2F36;" width="42" height="5.846"/>
			</g>
			
				<rect x="2705.782" y="912.737" transform="matrix(-1 -1.224647e-16 1.224647e-16 -1 5480.2563 2106.0374)" style="fill:#3B2F36;" width="68.692" height="280.564"/>
		</g>
	</g>
	<g style="opacity:0.5;">
		<g>
			<rect x="1410.703" y="616.642" style="fill:#FFFFFF;" width="535.895" height="226.552"/>
			<path style="fill:#E6E6E6;" d="M1949.251,845.848h-541.203v-231.86h541.203V845.848z M1943.943,619.296h-530.587V840.54h530.587
				V619.296z"/>
		</g>
		<g>
			<rect x="1410.703" y="686.092" style="fill:#E6E6E6;" width="535.894" height="5.308"/>
		</g>
		<g>
			<rect x="1815.025" y="616.642" style="fill:#E6E6E6;" width="5.308" height="226.552"/>
		</g>
		<g>
			<rect x="1679.26" y="616.642" style="fill:#E6E6E6;" width="5.308" height="226.552"/>
		</g>
		<g>
			<rect x="1543.495" y="616.642" style="fill:#E6E6E6;" width="5.308" height="226.552"/>
		</g>
		<g>
			<path style="fill:#E6E6E6;" d="M1847.166,638.618h67.454c1.866,0,3.379,1.513,3.379,3.379c0,1.866-1.513,3.379-3.379,3.379
				h-67.454c-1.866,0-3.379-1.513-3.379-3.379C1843.787,640.131,1845.3,638.618,1847.166,638.618z"/>
			<path style="fill:#E6E6E6;" d="M1847.166,652.73h67.454c1.866,0,3.379,1.513,3.379,3.379c0,1.866-1.513,3.379-3.379,3.379
				h-67.454c-1.866,0-3.379-1.513-3.379-3.379C1843.787,654.243,1845.3,652.73,1847.166,652.73z"/>
		</g>
		<g>
			<path style="fill:#E6E6E6;" d="M1716.421,640.164h67.454c1.866,0,3.379,1.513,3.379,3.379c0,1.866-1.513,3.379-3.379,3.379
				h-67.454c-1.866,0-3.379-1.513-3.379-3.379C1713.042,641.677,1714.555,640.164,1716.421,640.164z"/>
			<path style="fill:#E6E6E6;" d="M1716.421,654.276h67.454c1.866,0,3.379,1.513,3.379,3.379c0,1.866-1.513,3.379-3.379,3.379
				h-67.454c-1.866,0-3.379-1.513-3.379-3.379C1713.042,655.789,1714.555,654.276,1716.421,654.276z"/>
		</g>
		<g>
			<path style="fill:#E6E6E6;" d="M1579.95,640.164h67.454c1.866,0,3.379,1.513,3.379,3.379c0,1.866-1.513,3.379-3.379,3.379
				h-67.454c-1.866,0-3.379-1.513-3.379-3.379C1576.571,641.677,1578.084,640.164,1579.95,640.164z"/>
			<path style="fill:#E6E6E6;" d="M1579.95,654.276h67.454c1.866,0,3.379,1.513,3.379,3.379c0,1.866-1.513,3.379-3.379,3.379
				h-67.454c-1.866,0-3.379-1.513-3.379-3.379C1576.571,655.789,1578.084,654.276,1579.95,654.276z"/>
		</g>
		<g>
			<path style="fill:#E6E6E6;" d="M1443.479,640.164h67.454c1.866,0,3.379,1.513,3.379,3.379c0,1.866-1.513,3.379-3.379,3.379
				h-67.454c-1.866,0-3.379-1.513-3.379-3.379C1440.1,641.677,1441.613,640.164,1443.479,640.164z"/>
			<path style="fill:#E6E6E6;" d="M1443.479,654.276h67.454c1.866,0,3.379,1.513,3.379,3.379c0,1.866-1.513,3.379-3.379,3.379
				h-67.454c-1.866,0-3.379-1.513-3.379-3.379C1440.1,655.789,1441.613,654.276,1443.479,654.276z"/>
		</g>
	</g>
	<g>
		
			<ellipse transform="matrix(0.7071 -0.7071 0.7071 0.7071 94.4276 1658.3386)" style="fill:#F5F5F5;" cx="2049.006" cy="715.185" rx="35.974" ry="35.974"/>
		<g>
			<path style="fill:#EC9C52;" d="M2049.006,676.754c-21.243,0-38.525,17.282-38.525,38.526c0,21.243,17.282,38.525,38.525,38.525
				s38.525-17.282,38.525-38.525C2087.531,694.037,2070.249,676.754,2049.006,676.754z M2083.714,715.28
				c0,19.138-15.57,34.708-34.708,34.708c-19.138,0-34.708-15.57-34.708-34.708c0-19.138,15.57-34.708,34.708-34.708
				C2068.144,680.572,2083.714,696.142,2083.714,715.28z"/>
			<path style="fill:#EC9C52;" d="M2068.123,699.512l-16.677,12.021V698.42c0-1.345-1.095-2.44-2.44-2.44
				c-1.345,0-2.44,1.095-2.44,2.44v16.63l-0.24,0.173c-0.736,0.531-0.904,1.562-0.376,2.3c0.31,0.431,0.811,0.688,1.342,0.688
				c0.348,0,0.681-0.108,0.964-0.312l0.402-0.29c0.115,0.017,0.229,0.035,0.349,0.035c1.2,0,2.195-0.872,2.397-2.015l18.65-13.443
				c0.735-0.53,0.904-1.562,0.376-2.3C2069.916,699.175,2068.836,698.997,2068.123,699.512z"/>
		</g>
	</g>
	<g>
		<g>
			<path style="fill:#3B2F36;" d="M733.298,673.596l-33.849-35.299c-0.129-0.135-0.255-0.136-0.385,0l-33.849,35.299l-1.917-1.838
				l33.849-35.299c1.098-1.144,3.122-1.143,4.219,0l33.849,35.299L733.298,673.596z"/>
		</g>
		<rect x="621.774" y="666.427" style="fill:#E6E6E6;" width="154.964" height="133.609"/>
		<rect x="642.872" y="759.858" style="fill:#838AA1;" width="23" height="23"/>
		<rect x="642.872" y="683.605" style="fill:#838AA1;" width="23" height="23"/>
		<rect x="642.872" y="721.732" style="fill:#838AA1;" width="23" height="23"/>
		<rect x="679.92" y="683.605" style="fill:#E6E6E6;" width="77.382" height="99.254"/>
	</g>
</g>
<g id="Layer_7">
	<g>
		<g>
			<rect x="1381.446" y="912.754" style="fill:#DE7A1F;" width="25.901" height="40.22"/>
			<rect x="1381.446" y="912.754" style="fill:#EC9C52;" width="6.182" height="40.22"/>
		</g>
		<g>
			<rect x="1392.011" y="912.754" style="fill:#EC9C52;" width="25.901" height="40.22"/>
			<rect x="1392.011" y="912.754" style="fill:#F5F5F5;" width="6.182" height="40.22"/>
		</g>
		<g>
			<rect x="1402.692" y="920.267" style="fill:#838AA1;" width="25.901" height="32.708"/>
			<rect x="1402.692" y="920.267" style="fill:#F5F5F5;" width="6.182" height="32.708"/>
		</g>
	</g>
	<g>
		<g>
			<g>
				<rect x="1080.768" y="885.141" style="fill:#838AA1;" width="96.682" height="67.833"/>
				<rect x="1124.796" y="885.141" style="fill:#838AA1;" width="52.654" height="67.833"/>
			</g>
			<rect x="1154.301" y="885.141" style="fill:#F5F5F5;" width="8.025" height="8.665"/>
		</g>
		<g>
			<g>
				<rect x="1140.729" y="903.49" style="fill:#838AA1;" width="69.712" height="49.485"/>
				<rect x="1170.506" y="903.49" style="fill:#838AA1;" width="39.934" height="49.485"/>
			</g>
			<rect x="1188.008" y="903.49" style="fill:#F5F5F5;" width="8.025" height="8.665"/>
		</g>
	</g>
	<g>
		<path style="fill:#3B2F36;" d="M1320.128,861.878h-88.982c-1.875,0-3.395,1.606-3.395,3.577v62.179
			c0,1.971,1.519,3.577,3.395,3.577h88.982c1.875,0,3.395-1.606,3.395-3.577v-62.179
			C1323.523,863.483,1322.004,861.878,1320.128,861.878z"/>
		<path style="opacity:0.2;fill:#FFFFFF;" d="M1227.752,865.454v51.871h8.12v-55.448h-4.725
			C1229.271,861.878,1227.752,863.483,1227.752,865.454z"/>
		<rect x="1238.973" y="861.878" style="opacity:0.2;fill:#FFFFFF;" width="15.349" height="55.448"/>
		<rect x="1256.124" y="861.878" style="opacity:0.2;fill:#FFFFFF;" width="4.055" height="55.448"/>
		<path style="fill:#FFFFFF;" d="M1227.751,927.628c0,1.974,1.523,3.583,3.4,3.583h88.979c1.877,0,3.39-1.609,3.39-3.583v-10.301
			h-95.77V927.628z"/>
		<rect x="1260.475" y="948.167" style="fill:#3B2F36;" width="39.505" height="4.808"/>
		<rect x="1274.601" y="931.212" style="fill:#F5F5F5;" width="17.957" height="16.955"/>
	</g>
	<g>
		<path style="fill:#3B2F36;" d="M1532.243,861.877h-88.982c-1.875,0-3.395,1.606-3.395,3.577v62.179
			c0,1.971,1.519,3.577,3.395,3.577h88.982c1.875,0,3.395-1.606,3.395-3.577v-62.179
			C1535.638,863.483,1534.118,861.877,1532.243,861.877z"/>
		<path style="opacity:0.2;fill:#FFFFFF;" d="M1439.867,865.454v51.871h8.12v-55.448h-4.725
			C1441.386,861.877,1439.867,863.483,1439.867,865.454z"/>
		<rect x="1451.088" y="861.877" style="opacity:0.2;fill:#FFFFFF;" width="15.349" height="55.448"/>
		<rect x="1468.239" y="861.877" style="opacity:0.2;fill:#FFFFFF;" width="4.055" height="55.448"/>
		<path style="fill:#FFFFFF;" d="M1439.865,927.628c0,1.974,1.523,3.583,3.4,3.583h88.979c1.877,0,3.39-1.609,3.39-3.583v-10.3
			h-95.77V927.628z"/>
		<rect x="1472.59" y="948.166" style="fill:#3B2F36;" width="39.505" height="4.808"/>
		<rect x="1486.716" y="931.211" style="fill:#F5F5F5;" width="17.957" height="16.955"/>
	</g>
	<g>
		<path style="fill:#3B2F36;" d="M1745.743,861.88h-88.982c-1.875,0-3.395,1.606-3.395,3.577v62.179
			c0,1.971,1.519,3.577,3.395,3.577h88.982c1.875,0,3.395-1.606,3.395-3.577v-62.179
			C1749.138,863.486,1747.619,861.88,1745.743,861.88z"/>
		<path style="opacity:0.2;fill:#FFFFFF;" d="M1653.367,865.457v51.871h8.12V861.88h-4.725
			C1654.886,861.88,1653.367,863.486,1653.367,865.457z"/>
		<rect x="1664.588" y="861.88" style="opacity:0.2;fill:#FFFFFF;" width="15.349" height="55.448"/>
		<rect x="1681.739" y="861.88" style="opacity:0.2;fill:#FFFFFF;" width="4.055" height="55.448"/>
		<path style="fill:#FFFFFF;" d="M1653.366,927.631c0,1.974,1.523,3.583,3.4,3.583h88.979c1.877,0,3.39-1.609,3.39-3.583v-10.3
			h-95.77V927.631z"/>
		<rect x="1686.09" y="948.169" style="fill:#3B2F36;" width="39.505" height="4.808"/>
		<rect x="1700.216" y="931.214" style="fill:#F5F5F5;" width="17.957" height="16.955"/>
	</g>
	<rect x="1053.821" y="965.674" style="fill:#71768A;" width="1111.051" height="227.613"/>
	<g>
		<g>
			<circle style="fill:#DE7A1F;" cx="1969.969" cy="927.699" r="12.354"/>
			<rect x="1958.9" y="937.631" style="fill:#FFFFFF;" width="22.138" height="15.672"/>
		</g>
		<g>
			<rect x="1918.878" y="902.399" style="fill:#DE7A1F;" width="32.713" height="50.798"/>
			<rect x="1943.784" y="902.399" style="fill:#EC9C52;" width="7.808" height="50.798"/>
		</g>
		<g>
			<rect x="1905.535" y="902.399" style="fill:#EC9C52;" width="32.713" height="50.798"/>
			<rect x="1930.44" y="902.399" style="fill:#F5F5F5;" width="7.808" height="50.798"/>
		</g>
		<g>
			<rect x="1892.044" y="911.887" style="fill:#838AA1;" width="32.713" height="41.31"/>
			<rect x="1916.949" y="911.887" style="fill:#F5F5F5;" width="7.808" height="41.31"/>
		</g>
	</g>
	<g>
		<g>
			<path style="fill:#FFFFFF;" d="M2069.224,950.977h-72.533c-0.642,0-1.163,0.521-1.163,1.163c0,0.642,0.521,1.163,1.163,1.163
				h72.533c0.643,0,1.163-0.521,1.163-1.163C2070.387,951.497,2069.866,950.977,2069.224,950.977z"/>
			
				<linearGradient id="SVGID_00000103257146209627407570000017731939908041059468_" gradientUnits="userSpaceOnUse" x1="-1380.4822" y1="952.1398" x2="-1343.5549" y2="952.1398" gradientTransform="matrix(1 0 0 1 3447.719 0)">
				<stop  offset="0" style="stop-color:#F7F7F7"/>
				<stop  offset="1" style="stop-color:#F7F7F7"/>
			</linearGradient>
			<path style="fill:url(#SVGID_00000103257146209627407570000017731939908041059468_);" d="M2103.001,950.977H2068.4
				c-0.642,0-1.163,0.521-1.163,1.163c0,0.642,0.521,1.163,1.163,1.163h34.601c0.642,0,1.163-0.521,1.163-1.163
				C2104.164,951.497,2103.644,950.977,2103.001,950.977z"/>
		</g>
		<g>
			<path style="fill:#3B2F36;" d="M2057.941,895.671c-0.295-1.263-1.59-2.286-2.892-2.286h-70.41c-1.302,0-2.12,1.023-1.825,2.286
				l12.377,53.019c0.295,1.263,1.59,2.286,2.892,2.286h70.41c1.302,0,2.119-1.024,1.825-2.286L2057.941,895.671z"/>
			<path style="fill:#838AA1;" d="M2056.747,895.671c-0.295-1.263-1.59-2.286-2.892-2.286h-70.41c-1.302,0-2.12,1.023-1.825,2.286
				l12.377,53.019c0.295,1.263,1.59,2.286,2.892,2.286h70.41c1.302,0,2.119-1.024,1.825-2.286L2056.747,895.671z"/>
		</g>
	</g>
	<rect x="1753.527" y="952.977" style="fill:#E6E6E6;" width="411.345" height="240.307"/>
	<g>
		<polygon style="fill:#3B2F36;" points="1860.818,952.977 1846.382,952.977 1843.066,928.332 1864.133,928.332 		"/>
		<rect x="1842.509" y="926.342" style="fill:#EC9C52;" width="22.728" height="1.934"/>
		<polygon style="fill:#EC9C52;" points="1861.904,944.844 1845.26,944.844 1844.372,937.983 1862.827,937.983 		"/>
		<ellipse style="fill:#EC9C52;" cx="1856.066" cy="941.813" rx="5.263" ry="6.938"/>
	</g>
	<g>
		<path style="fill:#3B2F36;" d="M2025.739,931.987h-59.744c-7.602,0-14.801,3.522-19.371,9.597
			c-5.978,7.946-13.899,20.395-18.797,35.709c-13.151,41.119-9.971,76.961-9.971,76.961h85.031c0,0-0.433-45.955,11.707-71.755
			c6.516-13.847,13.781-27.381,19.114-36.949C2037.096,939.467,2032.702,931.987,2025.739,931.987z"/>
		<rect x="1936.038" y="1081.424" style="fill:#3B2F36;" width="9.848" height="111.861"/>
		<path style="fill:#3B2F36;" d="M1855.42,1081.424h122.817c13.612,0,24.647-11.035,24.647-24.648v-2.523h-120.294
			C1867.585,1054.254,1855.42,1066.418,1855.42,1081.424z"/>
		<path style="fill:#3B2F36;" d="M2037.129,931.987h-59.744c-7.602,0-14.801,3.522-19.371,9.597
			c-5.978,7.946-13.9,20.395-18.797,35.709c-13.152,41.119-9.971,76.961-9.971,76.961h85.031c0,0-0.434-45.955,11.706-71.755
			c6.516-13.847,13.781-27.381,19.114-36.949C2048.486,939.467,2044.093,931.987,2037.129,931.987z"/>
		<path style="fill:#3B2F36;" d="M1866.811,1081.424h122.817c13.612,0,24.647-11.035,24.647-24.648v-2.523h-120.294
			C1878.975,1054.254,1866.811,1066.418,1866.811,1081.424z"/>
		<rect x="1887.938" y="1038.212" style="fill:#FFFFFF;" width="8.238" height="33.819"/>
		<path style="fill:#3B2F36;" d="M1862.358,1027.806c0,5.747,4.659,10.406,10.406,10.406h27.532c5.747,0,10.406-4.659,10.406-10.406
			v-3.035h-48.343V1027.806z"/>
		<polygon style="fill:#FFFFFF;" points="1918.285,1081.424 1950.963,1193.285 1961.611,1193.285 1928.933,1081.424 		"/>
		<polygon style="fill:#3B2F36;" points="1973.815,1081.424 2006.493,1193.285 2017.141,1193.285 1984.463,1081.424 		"/>
		<rect x="1855.42" y="1081.424" style="fill:#FFFFFF;" width="9.848" height="111.861"/>
	</g>
	<rect x="1740.829" y="952.977" style="fill:#F5F5F5;" width="12.697" height="240.313"/>
	<rect x="1041.124" y="952.974" style="fill:#F5F5F5;" width="12.697" height="240.313"/>
	<rect x="1120.979" y="952.974" style="fill:#F5F5F5;" width="12.697" height="240.313"/>
	<rect x="1222.623" y="952.974" style="fill:#F5F5F5;" width="12.697" height="240.313"/>
	<rect x="1333.316" y="952.974" style="fill:#F5F5F5;" width="12.697" height="240.313"/>
	<rect x="1482.121" y="952.974" style="fill:#F5F5F5;" width="12.697" height="240.313"/>
	<rect x="1041.124" y="952.977" style="fill:#F5F5F5;" width="712.403" height="12.697"/>
	<g>
		<g>
			<rect x="1494.819" y="1000.004" style="fill:#F5F5F5;" width="103.327" height="193.283"/>
			<rect x="1598.145" y="1000.004" style="fill:#838AA1;" width="142.684" height="193.283"/>
		</g>
		<g>
			<rect x="1494.819" y="1013.291" style="fill:#838AA1;" width="103.327" height="2.42"/>
			<rect x="1494.819" y="1055.028" style="fill:#838AA1;" width="103.327" height="2.42"/>
			<rect x="1494.819" y="1096.765" style="fill:#838AA1;" width="103.327" height="2.42"/>
			<rect x="1494.819" y="1138.501" style="fill:#838AA1;" width="103.327" height="2.419"/>
		</g>
	</g>
	<g>
		<g>
			<rect x="1346.013" y="1000.004" style="fill:#F5F5F5;" width="57.167" height="193.283"/>
			<rect x="1403.18" y="1000.004" style="fill:#838AA1;" width="78.942" height="193.283"/>
		</g>
		<g>
			<rect x="1346.013" y="1013.291" style="fill:#838AA1;" width="57.167" height="2.42"/>
			<rect x="1346.013" y="1055.028" style="fill:#838AA1;" width="57.167" height="2.42"/>
			<rect x="1346.013" y="1096.765" style="fill:#838AA1;" width="57.167" height="2.42"/>
			<rect x="1346.013" y="1138.501" style="fill:#838AA1;" width="57.167" height="2.419"/>
		</g>
	</g>
	<g>
		<g>
			<rect x="1235.32" y="1000.004" style="fill:#F5F5F5;" width="41.159" height="193.283"/>
			<rect x="1276.479" y="1000.004" style="fill:#838AA1;" width="56.837" height="193.283"/>
		</g>
		<g>
			<rect x="1235.32" y="1013.291" style="fill:#838AA1;" width="41.159" height="2.42"/>
			<rect x="1235.32" y="1055.028" style="fill:#838AA1;" width="41.159" height="2.42"/>
			<rect x="1235.32" y="1096.765" style="fill:#838AA1;" width="41.159" height="2.42"/>
			<rect x="1235.32" y="1138.501" style="fill:#838AA1;" width="41.159" height="2.419"/>
		</g>
	</g>
	<g>
		<g>
			<rect x="1133.676" y="1000.004" style="fill:#F5F5F5;" width="37.358" height="193.283"/>
			<rect x="1171.034" y="1000.004" style="fill:#838AA1;" width="51.588" height="193.283"/>
		</g>
		<g>
			<rect x="1133.676" y="1013.291" style="fill:#838AA1;" width="37.358" height="2.42"/>
			<rect x="1133.676" y="1055.028" style="fill:#838AA1;" width="37.358" height="2.42"/>
			<rect x="1133.676" y="1096.765" style="fill:#838AA1;" width="37.358" height="2.42"/>
			<rect x="1133.676" y="1138.501" style="fill:#838AA1;" width="37.358" height="2.419"/>
		</g>
	</g>
	<g>
		<g>
			<rect x="1053.821" y="1000.004" style="fill:#F5F5F5;" width="28.207" height="193.283"/>
			<rect x="1082.028" y="1000.004" style="fill:#838AA1;" width="38.951" height="193.283"/>
		</g>
		<g>
			<rect x="1053.821" y="1013.291" style="fill:#838AA1;" width="28.207" height="2.42"/>
			<rect x="1053.821" y="1055.028" style="fill:#838AA1;" width="28.207" height="2.42"/>
			<rect x="1053.821" y="1096.765" style="fill:#838AA1;" width="28.207" height="2.42"/>
			<rect x="1053.821" y="1138.501" style="fill:#838AA1;" width="28.207" height="2.419"/>
		</g>
	</g>
	<g>
		<g>
			<g>
				<path style="fill:#3B2F36;" d="M1680.458,1176.287v2.913l-29.565-1.892v-15.44l26.535,10.872
					C1679.173,1173.016,1680.458,1174.52,1680.458,1176.287z"/>
				<circle style="fill:#3B2F36;" cx="1678.37" cy="1186.673" r="6.617"/>
				<rect x="1676.281" y="1178.048" style="fill:#3B2F36;" width="4.176" height="3.906"/>
			</g>
			<path style="fill:#3B2F36;" d="M1592.378,1063.97h115.4c4.095,0,7.418,3.479,7.418,7.79v8.508c0,4.311-3.323,7.808-7.418,7.808
				h-115.4c-4.095,0-7.4-3.498-7.4-7.808v-8.508C1584.978,1067.449,1588.283,1063.97,1592.378,1063.97z"/>
			<path style="fill:#3B2F36;" d="M1586.291,1063.97h61.949c3.868,0,7.006,3.479,7.006,7.79v8.508c0,4.311-3.138,7.808-7.006,7.808
				h-61.949c-3.868,0-6.989-3.498-6.989-7.808v-8.508C1579.302,1067.449,1582.424,1063.97,1586.291,1063.97z"/>
			<g>
				<g>
					<path style="fill:#3B2F36;" d="M1550.69,919.24h62.816c6.989,0,13.102,4.977,15.217,12.209
						c12.458,42.928-1.173,85.015,8.657,129.877c2.776,8.109,0.843,14.697-6.344,14.697h-57.215
						c-7.187,0-16.869-6.588-19.661-14.697c-10.062-45.9,4.461-88.936-9.583-132.902
						C1543.139,923.93,1546.279,919.24,1550.69,919.24z"/>
				</g>
			</g>
			<path style="fill:#3B2F36;" d="M1683.528,1091.148c0,3.263-2.645,5.908-5.908,5.908h-48.212c-3.263,0-5.908-2.645-5.908-5.908
				v-3.072h60.028V1091.148z"/>
			<rect x="1648.473" y="1097.057" style="fill:#3B2F36;" width="10.083" height="33.127"/>
			<rect x="1645.633" y="1130.184" style="fill:#3B2F36;" width="15.44" height="46.412"/>
			<g>
				<path style="fill:#3B2F36;" d="M1595.411,1172.74l56.804-10.872v15.44l-59.834,1.892v-2.913
					C1592.381,1174.52,1593.666,1173.016,1595.411,1172.74z"/>
				<path style="fill:#3B2F36;" d="M1594.469,1180.056c3.655,0,6.617,2.963,6.617,6.617c0,3.655-2.963,6.617-6.617,6.617
					s-6.617-2.963-6.617-6.617C1587.851,1183.019,1590.814,1180.056,1594.469,1180.056z"/>
				<rect x="1592.381" y="1178.048" style="fill:#3B2F36;" width="4.176" height="3.906"/>
			</g>
			<g>
				<path style="fill:#3B2F36;" d="M1624.357,1172.74l26.535-10.872v15.44l-29.565,1.892v-2.913
					C1621.327,1174.52,1622.612,1173.016,1624.357,1172.74z"/>
				<path style="fill:#3B2F36;" d="M1623.415,1180.056c3.655,0,6.617,2.963,6.617,6.617c0,3.655-2.963,6.617-6.617,6.617
					c-3.655,0-6.617-2.963-6.617-6.617C1616.798,1183.019,1619.76,1180.056,1623.415,1180.056z"/>
				<rect x="1621.327" y="1178.048" style="fill:#3B2F36;" width="4.176" height="3.906"/>
			</g>
			<g>
				<path style="fill:#3B2F36;" d="M1712.049,1176.287v2.913l-59.834-1.892v-15.44l56.804,10.872
					C1710.764,1173.016,1712.049,1174.52,1712.049,1176.287z"/>
				<path style="fill:#3B2F36;" d="M1709.961,1180.056c3.655,0,6.617,2.963,6.617,6.617c0,3.655-2.963,6.617-6.617,6.617
					c-3.655,0-6.617-2.963-6.617-6.617C1703.344,1183.019,1706.306,1180.056,1709.961,1180.056z"/>
				<rect x="1707.873" y="1178.048" style="fill:#3B2F36;" width="4.176" height="3.906"/>
			</g>
		</g>
		<g>
			<path style="fill:#3B2F36;" d="M1676.563,1029.757h11.194c8.877,0,16.1,7.95,16.1,17.722v40.596h-7.116v-40.596
				c0-5.849-4.03-10.608-8.984-10.608h-11.194c-4.954,0-8.984,4.759-8.984,10.608v40.596h-7.116v-40.596
				C1660.462,1037.707,1667.685,1029.757,1676.563,1029.757z"/>
		</g>
	</g>
	<g>
		<g>
			<g>
				<path style="fill:#3B2F36;" d="M1446.358,1176.287v2.913l-26.487-1.892v-15.44l23.772,10.872
					C1445.207,1173.016,1446.358,1174.52,1446.358,1176.287z"/>
				<ellipse style="fill:#3B2F36;" cx="1444.488" cy="1186.673" rx="5.928" ry="6.617"/>
				<rect x="1442.617" y="1178.048" style="fill:#3B2F36;" width="3.741" height="3.906"/>
			</g>
			<path style="fill:#3B2F36;" d="M1367.45,1063.97h103.384c3.669,0,6.646,3.479,6.646,7.79v8.508c0,4.311-2.977,7.808-6.646,7.808
				H1367.45c-3.669,0-6.63-3.498-6.63-7.808v-8.508C1360.82,1067.449,1363.781,1063.97,1367.45,1063.97z"/>
			<path style="fill:#3B2F36;" d="M1361.997,1063.97h55.499c3.465,0,6.276,3.479,6.276,7.79v8.508c0,4.311-2.812,7.808-6.276,7.808
				h-55.499c-3.465,0-6.261-3.498-6.261-7.808v-8.508C1355.736,1067.449,1358.532,1063.97,1361.997,1063.97z"/>
			<g>
				<g>
					<path style="fill:#3B2F36;" d="M1330.102,919.24h56.276c6.261,0,11.738,4.977,13.632,12.209
						c11.16,42.928-1.051,85.015,7.756,129.877c2.487,8.109,0.755,14.697-5.684,14.697h-51.258c-6.439,0-15.112-6.588-17.614-14.697
						c-9.014-45.9,3.996-88.936-8.585-132.902C1323.338,923.93,1326.15,919.24,1330.102,919.24z"/>
				</g>
			</g>
			<path style="fill:#3B2F36;" d="M1449.109,1091.148c0,3.263-2.37,5.908-5.293,5.908h-43.192c-2.923,0-5.293-2.645-5.293-5.908
				v-3.072h53.778V1091.148z"/>
			<rect x="1417.703" y="1097.057" style="fill:#3B2F36;" width="9.034" height="33.127"/>
			<rect x="1415.16" y="1130.184" style="fill:#3B2F36;" width="13.833" height="46.412"/>
			<g>
				<path style="fill:#3B2F36;" d="M1370.167,1172.74l50.889-10.872v15.44l-53.604,1.892v-2.913
					C1367.452,1174.52,1368.604,1173.016,1370.167,1172.74z"/>
				<ellipse style="fill:#3B2F36;" cx="1369.323" cy="1186.673" rx="5.928" ry="6.617"/>
				<rect x="1367.452" y="1178.048" style="fill:#3B2F36;" width="3.741" height="3.906"/>
			</g>
			<g>
				<path style="fill:#3B2F36;" d="M1396.099,1172.74l23.772-10.872v15.44l-26.487,1.892v-2.913
					C1393.384,1174.52,1394.536,1173.016,1396.099,1172.74z"/>
				<path style="fill:#3B2F36;" d="M1395.255,1180.056c3.274,0,5.928,2.963,5.928,6.617c0,3.655-2.654,6.617-5.928,6.617
					c-3.274,0-5.928-2.963-5.928-6.617C1389.327,1183.019,1391.981,1180.056,1395.255,1180.056z"/>
				<rect x="1393.384" y="1178.048" style="fill:#3B2F36;" width="3.741" height="3.906"/>
			</g>
			<g>
				<path style="fill:#3B2F36;" d="M1474.66,1176.287v2.913l-53.604-1.892v-15.44l50.889,10.872
					C1473.509,1173.016,1474.66,1174.52,1474.66,1176.287z"/>
				<path style="fill:#3B2F36;" d="M1472.79,1180.056c3.274,0,5.928,2.963,5.928,6.617c0,3.655-2.654,6.617-5.928,6.617
					c-3.274,0-5.928-2.963-5.928-6.617C1466.861,1183.019,1469.515,1180.056,1472.79,1180.056z"/>
				<rect x="1470.919" y="1178.048" style="fill:#3B2F36;" width="3.741" height="3.906"/>
			</g>
		</g>
		<g>
			<path style="fill:#3B2F36;" d="M1442.869,1029.757h10.029c7.953,0,14.423,7.95,14.423,17.722v40.596h-6.375v-40.596
				c0-5.849-3.61-10.608-8.048-10.608h-10.029c-4.438,0-8.049,4.759-8.049,10.608v40.596h-6.375v-40.596
				C1428.445,1037.707,1434.915,1029.757,1442.869,1029.757z"/>
		</g>
	</g>
</g>
<g id="Layer_8">
	<g>
		<polygon style="fill:#FFFFFF;" points="412.656,319.63 282.212,319.63 279.004,312.781 415.865,312.781 		"/>
		<polygon style="fill:#FFFFFF;" points="546.033,190.183 228.9,190.183 216.929,164.616 557.987,164.616 		"/>
		<polygon style="fill:#FFFFFF;" points="134.498,319.63 4.038,319.63 0,317.991 0,312.781 124.028,312.781 		"/>
		<polygon style="fill:#FFFFFF;" points="2816.422,317.884 2816.422,319.63 2785.89,319.63 		"/>
		<polygon style="fill:#FFFFFF;" points="2750.665,312.781 2638.128,319.63 2507.652,319.63 2613.757,312.781 		"/>
		<polygon style="fill:#FFFFFF;" points="2458.781,312.781 2359.922,319.63 2229.462,319.63 2321.92,312.781 		"/>
		<polygon style="fill:#FFFFFF;" points="2166.945,312.781 2081.748,319.63 1951.288,319.63 2030.084,312.781 		"/>
		<polygon style="fill:#FFFFFF;" points="1875.109,312.781 1803.574,319.63 1673.098,319.63 1738.216,312.781 		"/>
		<polygon style="fill:#FFFFFF;" points="1583.257,312.781 1525.384,319.63 1394.94,319.63 1446.38,312.781 		"/>
		<polygon style="fill:#FFFFFF;" points="2739.711,164.616 2574.697,190.183 2257.58,190.183 2398.669,164.616 		"/>
		<polygon style="fill:#FFFFFF;" points="1291.405,312.781 1247.21,319.63 1116.75,319.63 1154.528,312.781 		"/>
		<polygon style="fill:#FFFFFF;" points="2012.507,164.616 1898.502,190.183 1581.337,190.183 1671.417,164.616 		"/>
		<polygon style="fill:#FFFFFF;" points="999.569,312.781 969.036,319.63 838.56,319.63 862.692,312.781 		"/>
		<polygon style="fill:#FFFFFF;" points="1285.239,164.616 1222.26,190.183 905.126,190.183 944.181,164.616 		"/>
		<polygon style="fill:#FFFFFF;" points="707.716,312.781 690.846,319.63 560.386,319.63 570.856,312.781 		"/>
	</g>
</g>
<g id="Layer_5">
	
		<radialGradient id="SVGID_00000072242736787109564010000002957794474721944738_" cx="1011.0947" cy="243.6706" r="1400.7124" gradientTransform="matrix(-1 0 0 1 2432.1819 0)" gradientUnits="userSpaceOnUse">
		<stop  offset="0" style="stop-color:#ACE2FD"/>
		<stop  offset="0.1479" style="stop-color:#AADFF9"/>
		<stop  offset="0.2922" style="stop-color:#A4D4ED"/>
		<stop  offset="0.4352" style="stop-color:#9AC3DA"/>
		<stop  offset="0.5774" style="stop-color:#8BABBE"/>
		<stop  offset="0.719" style="stop-color:#798C9B"/>
		<stop  offset="0.8595" style="stop-color:#62676F"/>
		<stop  offset="0.998" style="stop-color:#473B3D"/>
		<stop  offset="1" style="stop-color:#473A3C"/>
	</radialGradient>
	<polygon style="opacity:0.34;fill:url(#SVGID_00000072242736787109564010000002957794474721944738_);" points="0,0 2816.421,0 
		2816.421,1353.678 2816.421,1459.018 0,1459.018 	"/>
</g>
<g id="Layer_11">
	<g>
		<g>
			<g>
				<g>
					<path style="fill:#6294CC;" d="M746.773,588.511v274.077h423.143V588.511c0-9.096-0.566-18.059-1.699-26.855
						c-0.966-7.63-2.332-15.127-4.098-22.49C1141.896,446.108,1058.2,376.94,958.345,376.94c-58.44,0-111.317,23.69-149.6,61.972
						c-27.154,27.154-46.945,61.639-56.175,100.255c-1.766,7.363-3.132,14.86-4.098,22.49
						C747.34,570.453,746.773,579.415,746.773,588.511z"/>
					
						<rect x="933.722" y="413.76" transform="matrix(-1 -1.224647e-16 1.224647e-16 -1 1913.9877 1226.3278)" style="fill:#6DA7E6;" width="46.543" height="398.808"/>
					<polygon style="fill:#424578;" points="1191.493,1327.313 984.493,1327.313 955.285,862.588 1169.917,862.588 					"/>
					<polygon style="fill:#1C222E;" points="984.49,1327.324 1241.354,1327.324 1187.847,1269.351 980.846,1269.351 					"/>
					<polygon style="fill:#424578;" points="728.438,1327.313 935.438,1327.313 964.646,862.588 746.773,862.588 					"/>
					<polygon style="fill:#1C222E;" points="935.441,1327.324 678.577,1327.324 730.724,1269.351 939.085,1269.351 					"/>
				</g>
			</g>
			<g>
				<path style="fill:#FA804D;" d="M1185.3,781.586l71.227,65.283c2.109-2.316,9.83-11.303,17.573-26.1
					c4.097-7.466,7.916-16.412,11.789-26.761c3.482-10.304,7.083-21.997,9.398-34.64c5.097-25.326,6.896-54.618,4.569-84.691
					c-0.344-3.741-0.69-7.512-1.039-11.311c-0.387-3.833-0.597-7.485-1.368-11.783c-1.318-8.32-2.525-16.749-4.83-25.12
					c-3.855-16.854-10.244-33.457-17.841-49.242c-7.627-15.857-17.309-30.361-27.489-43.853
					c-10.436-13.258-21.691-25.17-33.152-35.758c-23.084-20.939-46.699-36.618-67.367-48.305
					c-20.716-11.661-38.528-19.59-51.054-24.859c-6.287-2.551-11.221-4.585-14.624-5.822c-3.392-1.281-5.201-1.965-5.201-1.965
					c-20.173-7.489-40.49-7.807-56.016-2.766c-15.56,5.017-26.404,15.33-28.722,28.469v0c-2.322,13.134,2.449,26.279,11.71,37.698
					c9.288,11.415,22.99,21.083,39.484,27.207c0,0,5.989,2.137,16.201,6.361c10.165,4.275,24.552,10.71,40.646,19.769
					c16.062,9.053,33.656,20.944,49.702,35.478c7.911,7.337,15.397,15.316,22.134,23.82c6.419,8.656,12.526,17.618,17.061,27.194
					c4.525,9.567,8.449,19.361,10.684,29.563c1.478,4.987,2.083,10.205,2.954,15.286c0.514,2.379,0.674,5.48,0.955,8.313
					c0.269,2.873,0.536,5.726,0.801,8.555c1.771,22.569,0.277,42.87-2.965,58.929c-1.432,8.154-3.69,14.974-5.607,20.932
					c-2.196,5.686-4.193,10.555-6.084,13.865c-0.878,1.84-1.743,3.021-2.415,4.283c-0.653,0.936-1.278,2.012-1.582,2.363
					c-0.162,0.23-0.305,0.432-0.428,0.607c-0.023,0.028-0.008-0.002-0.008-0.002c2.225,1.82,4.236,3.465,6.03,4.933
					c2.156,1.854,4.051,3.483,5.68,4.885c-5.227-4.4,11.914,10.037-11.681-9.831l0.017-0.021l0.035-0.041l0.067-0.08l0.126-0.148
					c0.082-0.093,0.155-0.177,0.221-0.252C1185.163,781.735,1185.3,781.586,1185.3,781.586z"/>
				<path style="fill:#6294CC;" d="M990.556,449.003c0,10.877,4.582,21.555,12.312,31.077c9.283,11.395,22.989,21.077,39.484,27.173
					c0,0,2.709,1.036,7.49,2.829c4.701,1.913,11.395,4.622,19.324,8.128c15.698,7.132,36.058,17.61,54.027,30.28
					c9.204,6.176,17.371,13.108,24.902,19.642c7.212,6.773,13.626,13.228,18.447,19.125c5.02,5.817,8.447,10.996,11.076,14.503
					c1.235,1.793,2.032,3.267,2.669,4.223c0.598,0.996,0.917,1.514,0.917,1.514l82.315-50.56c0,0-0.518-0.836-1.514-2.43
					c-0.996-1.594-2.35-3.984-4.343-6.813c-4.024-5.658-9.642-13.865-17.252-22.71c-6.734-8.128-15.021-16.774-24.264-25.5
					c-1.036-0.956-2.072-1.952-3.148-2.948c-10.718-9.403-22.352-19.045-34.583-27.332c-3.904-2.749-7.849-5.379-11.793-7.889
					c-20.639-13.268-41.436-23.786-57.812-31.197c-9.761-4.383-18.009-7.69-23.786-10c-5.817-2.191-9.124-3.466-9.124-3.466
					c-20.16-7.49-40.48-7.809-56.019-2.749c-15.579,5.02-26.416,15.339-28.727,28.448
					C990.756,444.581,990.556,446.772,990.556,449.003z"/>
			</g>
			<g>
				<path style="fill:#FA804D;" d="M664.306,846.87l71.227-65.283c0,0,0.137,0.149,0.406,0.442c0.065,0.075,0.139,0.159,0.221,0.252
					l0.126,0.148l0.067,0.08l0.034,0.041l0.018,0.021c-23.595,19.868-6.454,5.432-11.681,9.831c1.63-1.401,3.525-3.031,5.68-4.885
					c1.794-1.468,3.805-3.113,6.03-4.933c0,0,0.015,0.03-0.008,0.002c-0.123-0.175-0.266-0.378-0.428-0.607
					c-0.304-0.351-0.929-1.427-1.582-2.363c-0.672-1.263-1.537-2.443-2.415-4.283c-1.89-3.311-3.887-8.179-6.084-13.865
					c-1.917-5.958-4.175-12.778-5.607-20.932c-3.242-16.059-4.735-36.36-2.965-58.929c0.265-2.829,0.532-5.681,0.801-8.555
					c0.281-2.833,0.441-5.933,0.955-8.313c0.872-5.081,1.477-10.3,2.954-15.286c2.236-10.202,6.159-19.995,10.684-29.563
					c4.535-9.576,10.642-18.538,17.061-27.194c6.737-8.504,14.223-16.483,22.134-23.82c16.046-14.534,33.64-26.425,49.702-35.478
					c16.094-9.059,30.481-15.494,40.647-19.769c10.212-4.225,16.201-6.361,16.201-6.361c16.494-6.123,30.196-15.792,39.484-27.207
					c9.26-11.419,14.031-24.564,11.71-37.698l0,0c-2.318-13.139-13.162-23.453-28.722-28.469
					c-15.526-5.041-35.843-4.723-56.017,2.766c0,0-1.809,0.683-5.201,1.965c-3.403,1.237-8.337,3.271-14.624,5.822
					c-12.526,5.269-30.338,13.197-51.054,24.859c-20.669,11.687-44.283,27.366-67.367,48.305
					c-11.461,10.589-22.717,22.5-33.153,35.758c-10.18,13.491-19.862,27.995-27.489,43.853
					c-7.598,15.785-13.986,32.388-17.842,49.242c-2.305,8.371-3.511,16.8-4.829,25.12c-0.771,4.298-0.981,7.95-1.368,11.783
					c-0.349,3.799-0.695,7.571-1.039,11.311c-2.327,30.073-0.528,59.365,4.569,84.691c2.315,12.642,5.916,24.336,9.398,34.64
					c3.874,10.349,7.693,19.295,11.79,26.761C654.476,835.567,662.197,844.554,664.306,846.87z"/>
				<path style="fill:#6294CC;" d="M657.312,556.937l82.315,50.56c0,0,0.319-0.518,0.916-1.514c0.638-0.956,1.435-2.43,2.67-4.223
					c2.629-3.506,6.056-8.686,11.076-14.503c4.821-5.897,11.236-12.351,18.447-19.125c7.53-6.534,15.738-13.467,24.902-19.642
					c17.969-12.67,38.329-23.149,54.027-30.28c7.929-3.506,14.622-6.215,19.324-8.128c4.781-1.793,7.49-2.829,7.49-2.829
					c16.495-6.096,30.201-15.778,39.484-27.173c9.283-11.435,14.025-24.583,11.714-37.731c-1.155-6.574-4.422-12.391-9.403-17.252
					c-4.941-4.861-11.515-8.686-19.324-11.196c-15.499-5.06-35.819-4.741-56.019,2.749c0,0-3.307,1.275-9.124,3.466
					c-5.777,2.311-13.985,5.618-23.786,10c-17.77,8.048-40.719,19.682-62.991,34.583c-2.231,1.474-4.423,2.948-6.614,4.502
					c-12.232,8.287-23.866,17.929-34.544,27.332c-2.391,2.231-4.741,4.462-7.052,6.694c-7.69,7.411-14.622,14.782-20.399,21.754
					c-7.61,8.845-13.228,17.052-17.252,22.71c-1.992,2.829-3.347,5.219-4.343,6.813S657.312,556.937,657.312,556.937z"/>
			</g>
			<path style="fill:#6DA7E6;" d="M1015.582,417.324c0-33.481-27.142-60.623-60.623-60.623c-33.481,0-60.623,27.142-60.623,60.623
				H1015.582z"/>
			<polygon style="fill:#FFFFFF;" points="956.994,462.45 982.329,398.536 931.658,398.536 			"/>
			<g>
				<path style="fill:#FA804D;" d="M956.994,425.248L956.994,425.248c13.992,0,25.336-11.343,25.336-25.335v-92.255h-50.671v92.255
					C931.659,413.905,943.002,425.248,956.994,425.248z"/>
				
					<ellipse transform="matrix(0.7071 -0.7071 0.7071 0.7071 52.2961 735.3593)" style="fill:#FA804D;" cx="913.805" cy="304.553" rx="18.95" ry="18.95"/>
				
					<ellipse transform="matrix(0.4929 -0.8701 0.8701 0.4929 240.6366 1022.0125)" style="fill:#FA804D;" cx="997.151" cy="304.553" rx="18.95" ry="18.95"/>
				<path style="fill:#FA804D;" d="M954.959,349.583L954.959,349.583c24.322,0,44.039-19.717,44.039-44.039v-14.68
					c0-24.322-19.717-44.039-44.039-44.039h0c-24.322,0-44.039,19.717-44.039,44.039v14.68
					C910.92,329.866,930.637,349.583,954.959,349.583z"/>
			</g>
			
				<rect x="911.216" y="266.225" transform="matrix(-1 -1.224647e-16 1.224647e-16 -1 1910.2141 552.0253)" style="fill:#1C222E;" width="87.783" height="19.575"/>
			<path style="fill:#424578;" d="M998.998,285.8h-87.783c0,0,21.826,12.403,43.744,12.403
				C976.877,298.204,998.998,285.8,998.998,285.8z"/>
			<polygon style="fill:#424578;" points="998.998,266.225 911.216,266.225 887.563,239.827 1025.02,239.827 			"/>
			
				<rect x="1015.074" y="532.673" transform="matrix(-1 -1.224647e-16 1.224647e-16 -1 2142.8274 1094.2319)" style="fill:#6DA7E6;" width="112.68" height="28.886"/>
			
				<rect x="790.267" y="532.673" transform="matrix(-1 -1.224647e-16 1.224647e-16 -1 1693.2134 1094.2319)" style="fill:#6DA7E6;" width="112.68" height="28.886"/>
			<path style="fill:#FBB766;" d="M850.914,652.134L850.914,652.134c16.187,0,29.31-13.122,29.31-29.31V580.92h-58.619v41.905
				C821.605,639.011,834.727,652.134,850.914,652.134z"/>
			<path style="fill:#FBB766;" d="M955.107,273.215L955.107,273.215c5.999,0,10.862-4.863,10.862-10.862v-15.529h-21.724v15.529
				C944.245,268.353,949.108,273.215,955.107,273.215z"/>
			<path style="fill:#FBB766;" d="M1158.493,482.392c0,17.292,14.065,31.356,31.396,31.356c10.997,0,20.678-5.697,26.256-14.264
				c-1.036-0.956-2.072-1.952-3.148-2.948c-10.718-9.403-22.352-19.045-34.583-27.332c-3.904-2.749-7.849-5.379-11.793-7.889
				C1161.561,466.893,1158.493,474.263,1158.493,482.392z"/>
			<path style="fill:#FBB766;" d="M700.82,503.229c5.299,9.801,15.658,16.495,27.611,16.495c17.331,0,31.396-14.065,31.396-31.356
				c0-9.443-4.183-17.929-10.797-23.667c-2.231,1.474-4.423,2.948-6.614,4.502c-12.232,8.287-23.866,17.929-34.544,27.332
				C705.482,498.767,703.131,500.998,700.82,503.229z"/>
			
				<rect x="746.773" y="812.568" transform="matrix(-1 -1.224647e-16 1.224647e-16 -1 1916.6902 1675.1561)" style="fill:#1C222E;" width="423.143" height="50.02"/>
			
				<rect x="913.522" y="812.568" transform="matrix(-1 -1.224647e-16 1.224647e-16 -1 1916.6902 1675.1559)" style="fill:#FFFFFF;" width="89.646" height="50.02"/>
			
				<rect x="1119.979" y="800.947" transform="matrix(-1 -1.224647e-16 1.224647e-16 -1 2307.2981 1721.4222)" style="fill:#1C222E;" width="67.341" height="119.528"/>
			<g>
				
					<rect x="852.396" y="781.547" transform="matrix(-1 -1.224647e-16 1.224647e-16 -1 1732.6825 1818.7511)" style="fill:#7074A3;" width="27.89" height="255.657"/>
				
					<rect x="794.564" y="837.659" transform="matrix(-1 -1.224647e-16 1.224647e-16 -1 1646.9601 1700.2191)" style="fill:#7074A3;" width="57.832" height="24.902"/>
			</g>
			<g>
				<g>
					<path style="fill:#A1A3C9;" d="M1060.06,969.671c25.33,0,45.938-20.608,45.938-45.94c0-25.33-20.608-45.938-45.938-45.938
						c-25.332,0-45.94,20.608-45.94,45.938C1014.12,949.063,1034.728,969.671,1060.06,969.671z M1060.06,892.579
						c17.176,0,31.152,13.976,31.152,31.152c0,17.178-13.976,31.154-31.152,31.154c-17.178,0-31.154-13.976-31.154-31.154
						C1028.905,906.555,1042.881,892.579,1060.06,892.579z"/>
				</g>
				<g>
					
						<rect x="1047.013" y="862.588" transform="matrix(-1 -1.224647e-16 1.224647e-16 -1 2116.9165 1748.6705)" style="fill:#A1A3C9;" width="22.89" height="23.494"/>
				</g>
			</g>
			
				<ellipse transform="matrix(0.7071 -0.7071 0.7071 0.7071 -229.0014 1094.1909)" style="fill:#FA804D;" cx="1206.305" cy="823.525" rx="73.045" ry="73.045"/>
			
				<ellipse transform="matrix(0.2228 -0.9749 0.9749 0.2228 -247.477 1336.6417)" style="fill:#FA804D;" cx="714.529" cy="823.525" rx="73.045" ry="73.045"/>
		</g>
		<path style="opacity:0.3;fill:#835353;" d="M620.967,674.689c0.346-3.762,0.692-7.524,1.038-11.329
			c0.389-3.848,0.605-7.48,1.383-11.761c1.297-8.346,2.508-16.777,4.843-25.123c3.849-16.863,10.205-33.468,17.815-49.25
			c3.373-7.049,7.221-13.751,11.286-20.28c0,0,0.087-0.216,0.303-0.519c0.562-0.951,1.124-1.859,1.729-2.767
			c0.951-1.557,2.119-3.589,3.806-5.967c2.291-3.2,5.145-7.307,8.562-11.805c0.605-0.821,1.211-1.686,1.816-2.508
			c0.39-0.518,0.821-0.994,1.211-1.47c1.729-2.248,3.632-4.54,5.665-6.918c0.129-0.173,0.302-0.389,0.475-0.562
			c0.39-0.476,0.822-0.994,1.254-1.47c4.324-5.103,9.21-10.335,14.529-15.653c1.254-1.254,2.507-2.508,3.761-3.719
			c0.13-0.13,0.26-0.26,0.389-0.346c0.346-0.389,0.735-0.735,1.124-1.081c1.599-1.513,3.156-3.07,4.756-4.54
			c0.173-0.173,0.389-0.345,0.562-0.518c0.216-0.216,0.389-0.39,0.605-0.563c1.081-0.951,2.205-1.902,3.33-2.854
			c4.021-3.589,8.13-7.005,12.151-10.248c5.318-4.281,10.767-8.389,16.345-12.323c0.778-0.519,1.557-1.081,2.292-1.643
			c0.173-0.087,0.303-0.173,0.432-0.26c1.514-1.081,3.027-2.119,4.584-3.113c9.34-6.356,18.464-11.934,27.069-16.777
			c8.216-4.67,15.955-8.691,23.134-12.194c0.994-0.475,1.946-0.951,2.897-1.427c1.124-0.519,2.292-1.081,3.373-1.6
			c2.94-1.383,5.837-2.767,8.518-3.978c0.951-0.433,1.816-0.779,2.767-1.211c0.043,0,0.129-0.043,0.173-0.087
			c1.557-0.649,3.07-1.341,4.497-1.946c1.73-0.779,3.416-1.47,4.973-2.119c23.09-18.94,50.245-33.036,79.995-40.862
			c6.616-9.988,16.086-17.902,27.241-22.528v-18.507c-7.394-4.626-13.317-11.415-16.907-19.458c-0.346,0-0.605,0.087-0.951,0.087
			c-10.464,0-18.94-8.475-18.94-18.939c0-9.599,7.135-17.426,16.388-18.68c0-0.043,0-0.043,0-0.043l-0.043-0.043v-19.544
			l-23.652-26.42h102.869l-26.031,26.42c0,0,0.512,55.83-0.137,55.787c-2.897,6.573-10.976,13.57-16.51,17.98v23.263
			c8.648,4.411,16.085,10.81,21.749,18.637c31.047,6.832,59.499,20.539,83.757,39.349c1.124,0.432,2.249,0.908,3.459,1.384
			c1.383,0.562,2.854,1.167,4.41,1.816c1.643,0.692,3.416,1.427,5.276,2.249c2.464,1.038,5.059,2.162,7.826,3.416
			c2.638,1.211,5.405,2.508,8.259,3.848c1.038,0.476,2.075,0.994,3.156,1.514c0.778,0.389,1.557,0.778,2.378,1.168
			c7.437,3.632,15.523,7.783,24.171,12.669c6.184,3.503,12.713,7.437,19.329,11.675c0.173,0.13,0.346,0.216,0.519,0.303
			c0.13,0.087,0.26,0.216,0.389,0.303c3.546,2.248,7.092,4.626,10.724,7.134c0.216,0.173,0.432,0.303,0.648,0.476
			c0.13,0.087,0.26,0.173,0.346,0.216c0.821,0.605,1.686,1.21,2.508,1.816c6.097,4.237,12.02,8.777,17.772,13.447
			c2.983,2.465,6.01,4.973,9.038,7.61c1.643,1.384,3.329,2.811,4.929,4.237c1.081,0.995,2.119,1.989,3.156,2.941
			c1.903,1.816,3.719,3.589,5.535,5.362c0.389,0.389,0.778,0.735,1.124,1.081c2.897,2.853,5.621,5.708,8.216,8.518
			c0.043,0.043,0.129,0.087,0.173,0.13c2.508,2.724,4.93,5.405,7.178,8.042c0.562,0.649,1.124,1.297,1.686,1.946
			c0.087,0.129,0.216,0.302,0.346,0.432c2.032,2.335,3.891,4.627,5.664,6.875c0.389,0.518,0.822,0.995,1.21,1.513
			c0.649,0.822,1.254,1.73,1.903,2.595c3.373,4.454,6.227,8.518,8.475,11.718c1.643,2.335,2.854,4.367,3.805,5.881
			c0.606,0.995,1.211,1.989,1.816,2.984c0.13,0.216,0.259,0.389,0.259,0.389h-0.043c4.065,6.529,7.913,13.231,11.286,20.28
			c7.61,15.782,13.967,32.387,17.858,49.25c2.291,8.346,3.502,16.777,4.8,25.123c0.778,4.281,0.995,7.913,1.384,11.761
			c0.345,3.805,0.692,7.567,1.038,11.329c2.335,30.052,0.518,59.369-4.584,84.664c-2.292,12.67-5.924,24.345-9.383,34.635
			c-2.508,6.703-4.973,12.713-7.524,18.161c0.605,3.719,0.995,7.48,0.995,11.372c0,34.333-23.696,63.087-55.608,70.914
			c-0.605-0.129-1.211-0.259-1.816-0.432v0.865c-5.016,1.124-10.292,1.686-15.653,1.686c-6.573,0-12.885-0.951-18.982-2.55v26.462
			h-14.702l16.258,349.987l52.494,56.861H984.488l-3.632-57.942l-20.885-332.301l-17.339,275.527l-17.296-275.527l-20.885,332.301
			l-3.632,57.942H678.563l52.148-57.942l15.004-379.866c-9.469,4.497-20.02,7.048-31.176,7.048c-1.254,0-2.464-0.043-3.719-0.086
			c-4.67-0.26-9.253-0.908-13.664-1.989c-31.954-7.826-55.693-36.624-55.693-70.957c0-3.892,0.432-7.654,0.994-11.372
			c-2.552-5.448-5.016-11.459-7.524-18.161c-3.46-10.291-7.092-21.966-9.383-34.635
			C620.448,734.058,618.632,704.741,620.967,674.689z M1169.902,760.261c8.518-4.886,18.031-8.172,28.236-9.297
			c0.865-3.243,1.729-6.659,2.378-10.421c3.243-16.085,4.756-36.365,2.984-58.937c-0.26-2.81-0.563-5.664-0.822-8.561
			c-0.259-2.81-0.432-5.924-0.951-8.302c-0.865-5.103-1.47-10.292-2.941-15.307c-2.249-10.205-6.183-19.977-10.68-29.534
			c-2.032-4.281-4.367-8.388-6.918-12.409c0,0-0.302-0.519-0.908-1.514c0-0.043-0.043-0.087-0.043-0.087
			c-2.335-3.675-4.885-7.221-7.437-10.767c-0.908-1.168-1.859-2.465-2.897-3.762V760.261z M1135.31,760.261
			c8.475-4.886,18.031-8.172,28.193-9.297c0.908-3.243,1.729-6.659,2.421-10.421c3.243-16.085,4.713-36.365,2.941-58.937
			c-0.26-2.81-0.519-5.664-0.778-8.561c-0.302-2.81-0.476-5.924-0.951-8.302c-0.908-5.103-1.513-10.292-2.984-15.307
			c-2.205-10.205-6.14-19.977-10.68-29.534c-1.989-4.281-4.367-8.388-6.875-12.409c0,0-0.302-0.519-0.908-1.514
			c-0.043-0.043-0.043-0.087-0.086-0.087c-2.335-3.675-4.843-7.221-7.438-10.767c-0.865-1.168-1.816-2.465-2.854-3.762V760.261z
			 M720.29,740.544c0.691,3.762,1.513,7.178,2.421,10.421c8.562,0.951,16.647,3.416,24.041,7.091V596.9
			c-2.119,2.984-4.194,5.967-6.183,9.037c0,0,0,0.043-0.043,0.043c-0.13,0.216-0.216,0.433-0.346,0.649
			c-0.13,0.173-0.259,0.389-0.346,0.476c-2.595,4.151-5.016,8.388-7.092,12.799c-4.54,9.557-8.432,19.328-10.68,29.534
			c-1.47,5.016-2.075,10.205-2.94,15.307c-0.519,2.378-0.692,5.492-0.994,8.302c-0.26,2.897-0.519,5.751-0.779,8.561
			C715.577,704.179,717.09,724.458,720.29,740.544z M685.698,740.544c0.648,3.762,1.513,7.178,2.378,10.421
			c8.605,0.951,16.69,3.416,24.084,7.091V596.9c-2.119,2.984-4.237,5.967-6.183,9.037c-0.043,0-0.043,0.043-0.043,0.043
			c-0.13,0.216-0.26,0.433-0.389,0.649c-0.087,0.173-0.216,0.389-0.302,0.476c-2.595,4.151-5.059,8.388-7.135,12.799
			c-4.497,9.557-8.432,19.328-10.68,29.534c-1.47,5.016-2.075,10.205-2.94,15.307c-0.519,2.378-0.692,5.492-0.951,8.302
			c-0.26,2.897-0.519,5.751-0.822,8.561C680.941,704.179,682.455,724.458,685.698,740.544z"/>
	</g>
	<g style="opacity:0.2;">
		<g>
			<g>
				<g>
					<polygon style="fill:#424578;" points="1191.493,1327.329 984.493,1327.329 968.325,1459.018 1179.549,1459.018 					"/>
					<polygon style="fill:#1C222E;" points="984.49,1327.324 1241.354,1327.324 1187.847,1357 980.846,1357 					"/>
					<polygon style="fill:#424578;" points="935.438,1327.329 728.438,1327.329 738.588,1459.018 951.606,1459.018 					"/>
					<polygon style="fill:#1C222E;" points="935.441,1327.324 678.577,1327.324 730.724,1357 939.085,1357 					"/>
				</g>
			</g>
		</g>
		<polygon style="opacity:0.3;fill:#835353;" points="904.45,1356.989 900.818,1327.328 678.563,1327.328 730.711,1356.989 
			738.583,1459.018 916.977,1459.018 		"/>
		<polygon style="opacity:0.3;fill:#835353;" points="1154.25,1356.436 1206.743,1327.328 984.488,1327.328 980.856,1356.989 
			968.329,1459.018 1144.94,1459.018 		"/>
		<polygon style="opacity:0.3;fill:#835353;" points="942.631,1386.052 933.683,1459.018 951.602,1459.018 		"/>
	</g>
</g>
</svg>
